<svg width="234" height="101" viewBox="0 0 234 101" fill="none" xmlns="http://www.w3.org/2000/svg">
<path d="M13.929 46.107C15.0143 43.7098 15.2456 41.4282 12.2339 39.3078C10.4465 38.0496 2.77114 36.5169 3.40199 33.4677C5.82258 21.7607 9.05393 7.36327 8.87518 3.11436C8.80626 1.47064 14.3542 0.842124 17.8461 0.59212C20.6323 0.392349 37.1863 0.880673 38.8253 1.81527C40.4387 2.73468 44.1724 5.85273 49.0369 10.7687C56.6258 21.0575 57.1749 35.5356 59.4646 47.6713C60.7321 54.3864 60.9495 61.5828 59.3057 68.2558C58.5557 71.3003 57.53 74.3587 56.1865 77.1952C56.1083 77.36 56.0125 77.5165 55.9295 77.6777C57.0861 78.9172 58.349 80.0761 59.745 81.1427C60.4191 81.2222 61.0943 81.2841 61.7696 81.3133C62.057 76.5001 65.8677 72.0059 72.3713 72.9779C82.0502 74.4253 91.8108 73.729 101.409 71.9591C102.494 71.7594 103.571 71.5304 104.646 71.2921C105.251 71.1355 105.855 70.9732 106.462 70.8201C107.76 70.4918 109.061 70.1823 110.365 69.8785C114.792 68.6927 119.182 67.3668 123.61 66.1997C124.482 64.5583 125.838 63.1599 127.665 62.3818C132.473 60.3351 139.473 59.2883 145.049 61.0687C144.593 58.9776 143.445 57.1574 141.417 55.9308C136.413 52.9004 138.443 43.6911 144.967 45.4797C147.72 46.2355 150.022 47.5089 151.902 49.1421C155.4 51.0218 157.076 54.495 158.224 58.2042C158.245 58.2731 158.264 58.3444 158.285 58.4133C160.716 62.9555 162.508 67.9147 161.197 72.3704C161.377 73.8505 161.522 75.3237 161.624 76.7793C162.043 82.79 157.765 86.29 151.543 87.6873C145.578 89.0261 142.038 86.6277 136.155 85.8905C118.319 83.658 85.6168 94.157 83.2324 94.9561C68.5687 99.8744 30.5787 104.859 20.1522 94.0717C17.929 91.7703 25.4011 87.1499 26.6978 86.1487C29.9187 83.6615 34.9082 79.5913 34.8171 75.1368C32.4514 77.0013 26.0635 75.6368 23.6838 74.1005C19.9291 71.6753 17.6043 67.5128 15.04 63.9824C13.0809 61.2849 10.5983 58.2965 10.4278 54.8046C10.2817 51.7987 12.6755 48.8757 13.929 46.107Z" fill="#F4CBC1"/>
<path d="M52.3293 17.4091C51.6307 17.1626 50.8503 17.2386 50.1902 17.6404C50.1926 15.8565 50.154 14.0738 50.0723 12.291C50.2031 12.492 50.3398 12.6882 50.4648 12.8915C51.1447 14.3705 51.7755 15.8728 52.3293 17.4091Z" fill="#F9A09B"/>
<path d="M50.6244 28.1637C50.2342 29.0469 49.8755 29.9394 49.5332 30.8378C49.5683 30.4581 49.5998 30.0784 49.6325 29.6988C49.9398 28.8892 50.261 28.0842 50.5963 27.2852C50.6092 27.5772 50.6209 27.8705 50.6244 28.1637Z" fill="#F9A09B"/>
<path d="M12.2339 39.3076C10.4465 38.0494 2.77114 36.5166 3.40199 33.4675C5.82258 21.7605 9.05393 7.36301 8.87518 3.1141C8.80626 1.47038 14.3542 0.841864 17.8461 0.591859C18.6405 0.534615 20.5587 0.534628 22.9279 0.583694C17.422 7.24854 15.1545 17.1903 15.0528 25.4884C14.9991 29.8085 15.3145 34.0318 17.6253 37.7783C19.29 40.477 21.9606 43.2189 23.7924 45.7294C23.8064 45.8755 23.8333 46.025 23.8964 46.1804C26.7469 53.3195 27.164 60.544 25.6429 68.0441C25.5027 68.7345 25.8147 69.2077 26.2831 69.4402C26.1523 70.3292 26.0401 71.2206 25.9747 72.119C25.7574 73.0477 25.5506 73.9788 25.3485 74.911C24.692 74.6599 24.1195 74.3842 23.6826 74.1026C19.9279 71.6774 17.6031 67.5149 15.0388 63.9844C13.0797 61.287 10.5972 58.2986 10.4266 54.8067C10.2794 51.8008 12.6731 48.879 13.9267 46.1091C15.0143 43.7107 15.2456 41.4279 12.2339 39.3076Z" fill="#F9A09B"/>
<path d="M50.7993 98.5044C50.9874 98.7848 51.2584 98.9939 51.5949 98.974C63.338 98.2801 76.476 97.2205 83.2331 94.9541C85.6163 94.155 118.319 83.6548 136.156 85.8885C142.039 86.6245 148.331 88.0743 152.226 86.614C155.815 85.2682 160.616 83.7611 160.491 83.1852C160.183 81.7599 161.379 73.8486 161.199 72.3684C162.511 67.9127 160.718 62.9535 158.287 58.4113C158.266 58.3424 158.247 58.2712 158.226 58.2022C157.079 54.493 155.402 51.0187 151.903 49.1401C150.024 47.5069 147.722 46.2335 144.969 45.4777C138.445 43.6879 136.415 52.8984 141.418 55.9288C143.445 57.1566 144.595 58.9756 145.051 61.0668C139.475 59.2864 132.474 60.3331 127.667 62.3799C125.841 63.1579 124.484 64.5551 123.612 66.1977C119.182 67.3648 114.793 68.6908 110.367 69.8765C109.064 70.1803 107.763 70.4899 106.464 70.8181C105.857 70.9712 105.253 71.1347 104.648 71.2901C103.573 71.5284 102.496 71.7574 101.411 71.9572C91.8127 73.727 69.2505 70.0039 59.5716 68.5564C53.0668 67.5844 61.47 75.8171 50.6579 92.8887C50.6521 92.9015 48.9266 96.6352 48.9219 96.6481C48.5726 97.4974 50.3589 97.8478 50.7993 98.5044ZM142.583 83.2366C144.122 84.0906 146.133 84.5111 147.855 83.9878C150.117 83.2997 150.399 81.691 150.281 79.5671C150.176 77.6676 150.31 76.0858 151.19 74.3533C152.005 72.7493 153.706 71.1955 153.923 69.3613C154.15 67.4431 157.138 67.7281 156.912 69.6487C156.581 72.4455 155.002 73.0682 154.273 75.6885C153.521 78.386 155.115 79.643 153.297 82.1337C150.644 85.7682 145.315 86.9037 140.805 85.6549C138.951 85.142 140.911 82.309 142.583 83.2366Z" fill="#F9A09B"/>
<path d="M100.445 89.5403C101.642 88.5368 102.786 87.462 103.86 86.2938C103.907 86.2436 103.937 86.1921 103.975 86.1407C105.973 85.1197 108.239 84.3113 109.111 83.8966C111.856 82.5916 119.28 78.0191 121.67 76.1452C127.817 71.325 127.421 67.9745 131.669 61.4861C131.774 61.3248 131.836 61.1636 131.878 61.0024C134.468 60.3716 139.226 62.1286 141.988 62.2781C149.046 67.874 142.216 68.4219 143.251 72.5377C136.09 74.8847 129.213 78.7469 123.59 83.8113C122.426 84.5146 121.254 85.2097 120.065 85.8756C119.687 86.087 119.31 86.2856 118.933 86.4807C112.625 87.3429 106.139 88.7109 100.442 90.1034C100.459 89.9679 100.469 89.8289 100.444 89.6852C100.436 89.6373 100.449 89.5894 100.445 89.5403Z" fill="#90241E"/>
<path d="M76.351 87.4282C75.6723 87.2027 75.0987 87.4469 74.7365 87.8744C74.5099 87.8511 74.2832 87.823 74.0566 87.802C72.6267 87.5707 71.2014 87.3043 69.7773 87.0333C74.2996 84.2318 80.6618 81.3334 84.3698 82.5169C85.1607 82.7692 86.0521 86.4667 91.3886 87.4632C94.2262 87.9936 97.4191 88.26 99.1749 87.6583C91.7251 92.7612 85.3617 90.4236 76.351 87.4282Z" fill="#90241E"/>
<path d="M22.103 0.535615C52.3721 -0.420011 93.056 18.0511 118.813 32.4147C125.283 36.0234 131.884 39.3121 138.713 42.1848C144.35 44.5563 152.23 47.4991 152.4 54.8229C152.42 55.6465 152.338 56.4175 152.174 57.1407C153.254 59.6255 152.193 62.3592 150.132 64.1046C147.528 66.3079 144.193 67.2215 140.827 67.2367C138.367 67.2484 136.103 66.7402 135.446 67.2589C126.547 74.2894 122.591 76.0569 118.539 77.9974C116.504 78.9717 113.935 79.6995 111.805 80.4566C108.126 82.1248 104.23 83.1085 100.23 83.7113C99.687 83.8328 99.1437 83.9554 98.6005 84.0699C92.549 85.348 88.3527 81.3655 82.4064 81.0863C62.2367 83.0326 56.9072 87.0525 54.5555 73.8046C53.0193 65.1502 55.038 56.1944 54.6712 47.4664C52.3008 42.0446 41.3346 12.481 35.3181 8.23789C25.1498 1.06952 18.2595 0.657112 22.103 0.535615Z" fill="#D68A78"/>
<path d="M154.83 54.4843C154.844 54.4399 154.858 54.3955 154.874 54.3511C155.249 53.2682 155.878 53.739 156.863 54.2227C158.378 54.9657 159.813 55.7612 161.514 55.8465C165.168 56.0287 168.831 56.0977 172.487 56.2332C178.266 56.4481 184.045 56.6958 189.818 57.0334C192.64 57.1982 195.463 57.3851 198.281 57.6176C199.516 57.7192 200.75 57.8314 201.983 57.9587C202.532 58.0148 203.104 58.1339 203.656 58.1421C204.565 58.1561 205.345 57.7332 206.208 57.4073C211.994 55.2203 217.346 52.9002 223.683 53.4154C225.387 53.5544 227.226 53.6654 228.796 54.4072C230.87 55.3886 231.026 57.3816 230.494 59.4353C230.268 60.3057 229.925 61.1434 229.475 61.9226C228.92 62.8829 230.781 62.4634 231.613 63.2976C232.211 63.898 234.141 67.1528 233.954 67.9776C231.794 77.4929 226.271 76.6004 225.344 76.1156C221.264 73.9847 210.444 70.3082 209.074 70.3141C203.565 70.3351 195.88 71.6774 190.392 71.1809C181.219 70.3515 174.098 67.0476 164.92 66.2637C162.009 66.0149 158.551 66.6563 156.833 63.884C155.58 61.863 154.836 59.3104 154.642 56.9493C154.575 56.1327 154.59 55.2659 154.83 54.4843Z" fill="#8C8568"/>
<path d="M153.592 55.9091C153.606 55.8648 153.62 55.8203 153.635 55.776C154.009 54.693 154.639 55.1638 155.623 55.6475C157.139 56.3905 158.573 57.186 160.274 57.2713C163.928 57.4536 167.591 57.5225 171.247 57.658C177.027 57.8729 182.805 58.1206 188.578 58.4582C191.401 58.623 194.223 58.8099 197.041 59.0424C198.276 59.1452 199.511 59.2562 200.743 59.3835C201.292 59.4408 201.865 59.5587 202.415 59.5669C203.324 59.5809 204.104 59.158 204.967 58.8321C210.754 56.6451 216.105 54.325 222.442 54.8402C224.146 54.9792 225.985 55.0902 227.555 55.8332C229.629 56.8145 229.786 58.8075 229.253 60.8613C229.027 61.7317 228.684 62.5693 228.234 63.3474C227.679 64.3077 229.54 63.8882 230.372 64.7224C230.971 65.3229 232.9 68.5776 232.713 69.4024C230.553 78.9178 222.738 76.2553 221.692 76.2074C211.586 75.7425 209.202 71.733 207.832 71.7389C202.323 71.7599 194.638 73.1011 189.148 72.6057C179.975 71.7763 168.369 74.2716 159.191 75.0462C155.982 75.3172 157.309 68.0811 155.591 65.31C154.338 63.289 153.594 60.7363 153.4 58.3753C153.335 57.5575 153.351 56.6907 153.592 55.9091Z" fill="#DFE0BD"/>
<path d="M83.4958 84.0175C88.1804 93.3016 106.969 85.7967 116.636 81.1424C120.312 79.3726 136.679 68.0897 142.238 67.5254C144.356 67.3104 130.852 62.5743 149.613 61.982C153.58 61.857 153.06 69.2696 151.782 73.6914C150.242 79.0127 152.925 83.6495 146.785 85.5024C140.095 87.5211 134.752 85.4638 127.996 85.7196C118.911 86.0631 102.321 89.4674 94.1525 92.7817C89.0928 94.8355 82.9245 97.3168 77.4221 97.2397C73.0295 97.1778 51.1414 101.379 42.6425 99.9816C42.3481 99.9337 46.3096 97.9103 49.1542 94.6264C52.9755 90.2162 54.1415 85.4942 54.1415 85.4942C61.9289 90.9534 82.4619 81.9673 83.4958 84.0175Z" fill="#AA6557"/>
<path d="M23.6809 26.0396C22.0325 24.008 20.7813 21.8316 19.6177 19.4775C18.4378 17.092 17.9705 12.8361 17.2883 10.2835C15.5768 3.8873 10.2041 4.66883 10.7181 3.73306C11.5312 2.25406 16.3875 1.54612 18.2789 1.93748C26.6774 3.67583 31.7324 7.74366 34.7745 11.7052C44.1414 23.9028 47.3167 35.1274 43.111 33.59C26.8012 27.6272 48.1683 47.0178 44.5503 46.6918C42.9872 46.5505 38.028 41.2548 36.9053 40.3027C35.5665 39.166 31.4999 34.84 28.1319 35.6659C24.1937 36.6321 21.2801 36.2676 19.2217 33.1484C17.6329 30.7418 16.6154 28.6389 16.4717 25.7195C16.2871 21.9717 17.3397 19.856 17.7088 21.3526C19.4109 28.2674 22.7287 25.57 23.6809 26.0396Z" fill="#90241E"/>
<path d="M36.0293 33.4093C36.6543 28.8613 37.1824 24.3017 37.6625 19.735C37.8728 18.7128 38.0819 17.6894 38.2875 16.666C44.8705 26.7573 46.735 34.9176 43.11 33.5928C26.8002 27.63 48.1673 47.0206 44.5493 46.6946C42.9862 46.5533 38.027 41.2576 36.9043 40.3055C36.826 40.2389 36.7244 40.1466 36.6274 40.059C36.43 37.8417 36.2256 35.6255 36.0293 33.4093Z" fill="#AA3633"/>
<path d="M6.85102 17.8564C7.76925 14.0864 10.1174 10.1997 11.1595 13.9824C11.6677 15.8259 12.1291 22.0889 11.8254 23.6158C11.3487 27.2432 11.8569 29.29 12.892 32.9139C14.1735 37.4034 20.5451 38.3567 22.1141 42.6582C23.9412 47.6665 18.1677 56.7087 13.8137 58.7064C14.3406 59.5733 14.8675 60.4401 15.3932 61.3081C16.0263 62.3046 15.885 63.307 15.3663 64.0547C16.1339 64.9577 17.0871 65.6295 18.2998 65.8432C21.1689 66.3479 22.6783 63.7521 24.0428 61.4121C24.0475 61.4027 24.0533 61.3945 24.0592 61.3852C24.1001 61.3151 24.1421 61.2438 24.183 61.1738C26.2508 57.6363 31.5464 59.3314 30.974 63.481C30.9541 63.6259 30.9144 63.7626 30.8911 63.9063C31.5312 65.3713 32.4507 66.5045 33.7217 67.3094C34.2287 67.6061 34.7789 67.8538 35.3572 68.0699C36.1353 64.6435 36.2883 61.1305 35.8117 57.6667C35.5442 56.259 35.2287 54.8547 34.8339 53.4563C34.3257 52.9692 33.7591 52.5264 33.1282 52.1397C28.9774 49.5988 31.9016 43.5215 36.4764 45.3382C48.9369 50.288 53.1273 66.2638 43.9812 76.3388C42.0325 78.4849 49.9672 73.1284 49.8551 74.646C48.584 91.9115 44.1914 90.0949 43.7557 91.0038C42.9099 92.7655 40.2919 98.6488 35.5523 98.9876C34.5897 99.0565 30.8397 99.0401 29.8595 98.8778C27.5265 98.4934 25.3092 97.5121 23.2625 96.3567C22.2274 95.7725 21.2274 95.1277 20.2577 94.4419C19.8991 94.1884 18.1759 92.5167 17.8219 92.5786C14.427 93.1744 10.8464 89.6837 8.79964 87.3775C6.65358 84.9604 4.86617 82.0258 4.02971 78.8879C3.49816 76.8948 2.23646 75.2254 1.79837 73.1903C1.33224 71.0303 1.11144 68.7802 0.905825 66.5839C0.468904 61.9133 0.42335 57.2099 0.665175 52.5264C1.15233 43.0671 2.7902 33.6861 5.07527 24.5048C5.62668 22.2781 6.22017 20.062 6.85102 17.8564Z" fill="#90241E"/>
<path d="M40.5507 62.6155C39.3732 57.3888 38.025 51.6398 38.1419 46.0977C49.1303 51.6772 52.5941 66.3025 44.33 75.923C42.7973 71.5771 41.5659 67.1156 40.5507 62.6155Z" fill="#AA3633"/>
<path d="M44.5547 76.5649C46.2802 75.7611 49.9286 73.6115 49.8527 74.6443C49.494 79.5205 48.8842 82.857 48.1868 85.1795C46.8176 82.3792 45.6131 79.5007 44.5547 76.5649Z" fill="#AA3633"/>
<path opacity="0.8" d="M6.3828 44.7755C6.86995 40.2276 11.7392 34.3758 16.0523 36.8245C16.7392 37.9612 18.675 38.2848 19.376 39.4694C18.5979 39.3993 17.0781 38.8817 13.5675 38.8829C11.1352 39.9343 9.58262 41.4005 9.23565 45.3445C8.8221 50.063 9.00666 55.569 12.1083 59.4581C12.5137 59.9662 13.328 58.2524 13.8105 58.7069C15.682 61.423 15.9227 63.0352 15.3444 63.7035C7.64452 60.9406 5.63162 51.799 6.3828 44.7755Z" fill="#B9BC8F"/>
<path opacity="0.42" d="M27.6471 82.6906C28.5992 94.72 26.5092 96.1289 23.1575 94.3345C20.2241 92.7644 17.3198 91.2643 11.6352 85.4032C4.40729 74.6378 3.21218 65.4531 3.10938 52.3617C3.35704 48.9504 3.78813 45.6256 4.10239 42.4935C5.38862 29.6884 7.89914 19.2291 10.5697 12.7441C10.7905 12.9895 10.9926 13.3785 11.1585 13.9801C11.6667 15.8236 12.1282 22.0866 11.8244 23.6135C11.3478 27.2409 11.856 29.2877 12.891 32.9116C12.905 32.9618 12.9284 33.005 12.9448 33.0553C10.4705 40.108 8.71573 47.4831 11.2228 53.8547C11.4471 54.426 12.0803 54.7625 12.6842 54.7344C12.6959 54.7812 12.7041 54.8291 12.7158 54.877C12.7357 54.9552 12.7707 55.0241 12.7999 55.0966C12.7976 55.683 12.8116 56.273 12.8595 56.8723C12.9997 58.6515 15.6002 58.3641 15.8338 56.7707C15.9238 56.155 16.0511 55.551 16.1948 54.9529C18.9262 52.6059 21.2288 49.2507 22.4087 45.6571C21.9204 50.6654 17.3934 57.0627 13.8139 58.7041C14.3408 59.5709 14.8677 60.4378 15.3934 61.3058C16.0266 62.3023 15.8852 63.3047 15.3665 64.0523C16.1341 64.9554 17.0873 65.6271 18.3 65.8409C21.1692 66.3456 22.6786 63.7498 24.0431 61.4098C24.0477 61.4004 24.0536 61.3923 24.0594 61.3829C24.1003 61.3128 24.1424 61.2415 24.1832 61.1714C24.9613 59.8408 26.1961 59.2509 27.4041 59.2544C27.3597 60.2707 27.3422 61.2929 27.3538 62.3198C27.3865 65.5454 27.0793 75.521 27.6471 82.6906Z" fill="#51151B"/>
<path d="M151.015 47.8474C152.01 49.0811 160.355 51.4398 162.982 51.9818C166.256 52.6571 172.233 53.7564 175.883 54.3405C177.186 54.5485 191.07 56.0929 193.699 56.823C196.09 57.4878 194.748 57.1174 169.896 57.1151C167.422 57.1151 156.454 57.1467 156.454 57.1467C156.204 57.3605 160.459 64.0475 155.904 70.474C152.483 75.3024 151.86 75.8584 150.869 76.0162C155.167 62.503 147.832 61.6082 149.014 61.7741C151.521 62.1269 152.458 58.5193 151.406 55.5017C150.462 52.7949 149.153 50.0507 147.188 47.9479C146.399 47.1033 144.724 45.053 144.194 44.6523C143.486 44.1184 149.83 46.3777 151.015 47.8474Z" fill="#90241E"/>
<path opacity="0.79" d="M151.403 55.5052C150.886 54.0192 150.25 52.525 149.464 51.1289C151.898 52.685 154.009 54.532 155.814 56.7856C156.054 57.254 156.272 57.7377 156.455 58.2494C156.584 58.615 156.825 58.8522 157.11 58.9854C157.984 61.448 159.059 66.0229 155.902 70.4774C152.481 75.3058 151.856 75.8619 150.867 76.0196C155.165 62.5065 147.829 61.6116 149.012 61.7775C151.518 62.1291 152.456 58.5216 151.403 55.5052Z" fill="#51151B"/>
<path opacity="0.37" d="M73.9714 11.739C80.5054 14.2799 85.2846 16.4938 88.6188 17.877C96.7369 21.245 102.899 25.3946 110.645 29.5256C118.588 33.7616 127.394 39.4557 135.852 42.5749C143.062 45.235 142.838 47.8939 145.44 50.4126C148.493 53.3695 140.253 51.783 136.816 51.3648C122.988 49.6802 135.425 53.7527 129.761 55.5471C123.189 57.6301 104.951 64.1162 98.1061 63.9982C90.5756 63.8685 80.1129 60.9269 87.0464 61.2797C97.9507 61.8358 106.897 56.2971 115.36 52.9664C131.137 46.756 122.86 40.909 120.778 39.8085C106.012 32.0069 99.1388 31.3177 97.3876 28.2791C91.2801 17.6842 74.4761 13.5113 76.4306 13.3991C76.4458 13.4014 73.135 11.4142 73.9714 11.739Z" fill="#F1F2CC"/>
<path d="M21.2598 0.712005C28.2284 1.29496 33.3581 3.68636 38.1923 9.28693C45.9389 18.2602 54.127 38.0655 55.0967 46.9384C55.7883 52.4665 55.9472 59.9526 55.5348 69.3886C55.21 78.856 56.404 79.1878 57.4262 81.7895C57.9017 82.9998 52.6154 73.808 52.4915 72.3699C54.4834 65.2016 52.6843 48.0202 52.627 47.4501C51.1925 33.2617 38.6374 12.3489 35.871 9.53696C29.6513 3.21324 21.4012 0.874412 21.039 0.820673C19.2621 0.56249 21.2598 0.712005 21.2598 0.712005Z" fill="#F1F2CC"/>
<path d="M14.6983 70.3924C15.536 68.8889 17.217 66.3258 18.911 66.2043C22.4029 65.9542 22.5781 63.7264 23.362 62.4168C23.7697 61.7357 20.1213 76.6893 27.2219 61.4717C28.6658 58.377 30.077 59.9495 30.8656 61.5873C31.6074 63.1294 31.1962 65.9356 33.1028 66.5676C35.5117 67.3655 36.2033 62.175 35.7827 60.2334C34.847 55.912 34.8236 57.8361 32.1284 51.218C31.9824 50.8582 40.229 57.5441 37.0596 65.5232C36.2313 67.6073 34.9591 69.3153 32.6308 68.7335C28.7417 67.7615 30.3516 65.036 28.4251 62.5161C27.5607 66.3246 25.3375 70.1331 21.7183 70.3924C19.8468 70.5268 20.6762 67.5968 20.1412 67.6225C18.1295 66.3748 15.3093 67.8433 14.8958 74.1016C15.1598 75.8668 14.8724 80.4113 16.0605 83.0002C17.9016 87.0119 22.8328 91.2071 22.6377 95.4829C22.5839 96.6511 18.2521 85.6007 18.2591 88.0236C18.272 92.7982 16.9682 90.9536 16.1797 87.0026C15.5173 83.6719 12.9051 73.6133 14.6983 70.3924Z" fill="#F1F2CC"/>
<path d="M10.9183 12.9499C10.9172 12.9394 10.9347 12.9335 10.9382 12.944C13.3436 19.9675 10.2793 30.5086 13.499 39.6385C15.7478 46.0159 19.9477 49.9564 15.5819 56.4764C15.0224 57.3117 13.6602 59.1342 14.0854 58.3386C18.2315 50.5826 11.8424 41.1443 10.7618 33.8171C9.62041 26.0716 11.4604 20.9056 10.9183 12.9499Z" fill="#F1F2CC"/>
<path d="M157.34 71.8659C159.59 73.1662 175.448 70.9897 184.502 71.8659C187.907 72.1954 180.406 74.2363 174.718 76.1008C164.23 80.8112 160.597 83.344 159.546 83.761C159.236 83.8837 158.896 82.4035 157.455 80.2761C156.194 78.4139 156.199 71.2059 157.34 71.8659Z" fill="#90241E"/>
<path d="M171.065 67.1916C173.187 67.4217 180.311 66.6495 182.227 67.1402C182.536 67.2196 182.146 68.6542 179.91 68.9358C176.115 69.4136 174.387 69.8119 171.625 70.0526C169.579 70.2313 158.432 72.423 156.382 72.1251C155.388 71.9802 160.52 70.1869 159.892 69.2395C157.83 66.1273 158.582 66.0759 158.774 66.125C163.024 67.2103 167.458 66.8014 171.065 67.1916Z" fill="#F1F2CC"/>
<path d="M38.7102 33.9887C41.0922 33.3999 42.3866 36.4117 45.2967 33.7679C46.3948 32.7702 50.4603 45.885 49.9206 48.1455C49.5351 49.7612 43.1249 41.8043 41.8983 40.2143C41.8656 40.1723 41.8364 40.1255 41.8049 40.0823C40.5443 38.5379 36.3982 34.56 38.7102 33.9887Z" fill="#90241E"/>
<path opacity="0.64" d="M38.9765 10.9027C37.5185 9.22979 42.7277 4.41781 44.7605 5.30685C54.9417 9.75903 72.1416 15.0091 72.5459 15.1844C84.1044 20.2067 97.9235 28.9592 92.7541 33.6275C87.7306 38.1661 53.736 45.7539 53.5923 44.6218C52.4405 35.513 43.5081 16.1026 38.9765 10.9027Z" fill="#FFE5D2"/>
<path opacity="0.64" d="M45.7842 21.9486C43.5774 18.5455 59.2891 9.53014 91.5535 28.5328C96.6143 31.513 95.2977 38.7947 106.416 42.345C110.87 43.7668 117.494 45.2096 113.125 48.3428C100.634 57.3009 90.0745 54.927 82.294 57.9458C73.4797 61.3653 54.4222 63.0253 55.6149 61.1935C58.7879 56.3254 49.2025 27.2186 45.7842 21.9486Z" fill="#FFE5D2"/>
<path opacity="0.65" d="M217.281 63.8439C218.626 61.616 221.337 61.1511 221.136 62.9724C220.985 64.3521 221.315 65.0285 222.259 65.525C225.225 67.0846 222.85 68.5227 221.226 68.6185C216.983 68.8674 216.383 65.3322 217.281 63.8439Z" fill="#8C8568"/>
<path d="M224 59.1624C220.158 57.5631 213.441 59.326 213.701 58.8972C214.406 57.7325 216.097 57.7454 217.254 57.3774C218.808 56.8832 220.496 56.729 222.097 57.0806C223.002 57.2792 224.994 57.7383 225.238 58.8271C225.327 59.2162 224.294 58.8762 224 59.1624Z" fill="#FFFFF8"/>
<path d="M229.844 74.9666C229.844 74.9666 227.27 76.5577 225.876 76.4421C222.555 76.1652 216.785 75.9292 214.84 75.0484C208.683 72.2598 207.504 71.1955 207.521 71.4467C199.504 72.7247 189.278 72.9911 181.577 71.1347C180.922 70.977 176.783 71.9689 168.836 73.0729C166.256 73.4315 160.141 74.1956 156.605 74.3474C156.23 74.3638 156.41 75.9047 156.41 75.9047C159.368 75.1909 162.339 74.9269 167.208 74.4666C172.735 73.9444 178.522 72.5553 184.053 72.8404C192.054 73.2528 197.646 73.6535 206.474 72.7247C206.953 73.2411 211.701 75.6535 213.444 76.4421C215.311 77.2867 221.933 78.2833 225.991 77.1395C227.624 76.6793 230.291 75.5122 229.844 74.9666Z" fill="#B9BC8F"/>
<path opacity="0.42" d="M20.7778 3.01175C20.7778 3.01175 18.5254 10.068 18.1247 11.4757C17.9331 12.151 17.3221 7.27119 14.0428 5.24895C11.5194 3.69285 11.8839 3.96621 13.0358 3.4405C18.2555 1.06078 19.3116 2.50941 20.7778 3.01175Z" fill="#51151B"/>
<path d="M159.119 59.9223C159.279 59.8872 175.547 59.4421 182.586 60.247C186.641 60.7108 196.217 61.5274 199.522 62.1688C200.135 62.2879 210.862 58.8066 210.889 59.851C207.489 61.0344 203.188 63.6338 199.62 63.5415C195.587 63.4375 189.124 62.0613 185.099 62.0742C175.949 62.1022 164.529 63.2962 164.002 63.3347C158.015 63.7623 159.119 59.9223 159.119 59.9223Z" fill="#FFFFF8"/>
</svg>
