<svg width="65" height="101" viewBox="0 0 65 101" fill="none" xmlns="http://www.w3.org/2000/svg">
<path d="M61.9667 27.726C59.8484 24.6499 56.7515 22.2297 53.2174 20.9962C49.1472 19.5752 44.9781 20.0749 40.8767 21.1002C37.0304 22.0579 33.2829 23.2186 29.348 23.2446C28.5309 23.2082 27.7137 23.1666 26.9017 23.1041C25.5745 22.948 24.2473 22.719 22.9148 22.5212C21.2181 22.11 19.5785 21.5375 17.8713 21.0846C15.8415 20.5485 13.796 20.5017 11.7609 21.0482C7.67507 22.1568 4.4845 25.2381 2.69404 29.0064C0.773452 33.0506 0.450753 37.6881 1.05451 42.0757C2.39736 51.8921 7.99777 60.3447 10.7407 69.7395C12.1877 74.6945 12.2814 79.8264 13.1193 84.8855C13.8012 88.9869 15.1128 93.2393 18.0483 96.3102C20.7028 99.0895 24.8042 100.755 28.6141 99.6881C30.6805 99.1104 32.3876 97.7467 34.3915 97.0284C36.666 96.2113 38.9614 96.8463 41.1942 97.4656C43.1929 98.0173 45.2748 98.5586 47.3411 98.0746C49.2253 97.6322 50.8388 96.4611 52.0619 94.9881C54.9402 91.5217 55.2733 86.8217 55.7938 82.5329C56.4236 77.3333 57.0013 72.1181 57.704 66.9236C58.0423 64.4201 58.4483 61.927 59.0468 59.4703C59.6402 57.0188 60.4677 54.6402 61.3109 52.2668C62.8359 47.9884 64.4963 43.6372 64.8398 39.0673C65.1417 35.0336 64.2673 31.0779 61.9615 27.7312L61.9667 27.726Z" fill="#347F41"/>
<g style="mix-blend-mode:multiply" opacity="0.66">
<path d="M22.1857 29.0578C21.1291 28.0949 20.1038 27.2465 18.7193 26.8041C17.4233 26.3929 16.0492 26.2576 14.7011 26.4398C12.0467 26.7937 9.58479 28.3031 8.04936 30.4995C6.26931 33.0395 5.8321 36.3342 5.87374 39.3686C5.92059 42.7569 6.6909 46.036 8.00773 49.1485C9.44426 52.5472 11.5002 55.743 13.5353 58.8191C13.5977 58.9127 13.7643 58.793 13.7122 58.7045C10.7871 53.7131 7.63818 48.6176 6.72213 42.7986C5.85292 37.2502 6.90951 29.7917 12.9836 27.6993C14.4513 27.1945 16.0232 27.132 17.543 27.4287C19.0316 27.7201 20.7284 28.3603 21.8734 29.3753C22.04 29.521 22.3471 29.2139 22.1857 29.063V29.0578Z" fill="#347F41"/>
<path d="M25.745 97.5693C24.73 96.9134 23.7151 96.3461 22.8927 95.4353C22.0808 94.5348 21.451 93.4783 20.9565 92.3748C19.9052 90.0066 19.4367 87.4875 19.2494 84.9163C19.0308 81.8715 19.1088 78.7954 18.7237 75.761C18.3541 72.8255 17.5057 69.9784 16.3398 67.2667C16.3086 67.1938 16.1889 67.2719 16.2045 67.3343C16.9592 70.4208 17.9794 73.4084 18.2136 76.599C18.453 79.8988 18.1563 83.2091 18.4478 86.5038C18.6716 88.9813 19.291 91.438 20.6026 93.5719C21.706 95.3624 23.4549 97.3402 25.5836 97.8503C25.7242 97.8815 25.8751 97.6525 25.7346 97.5641L25.745 97.5693Z" fill="#347F41"/>
<path d="M44.3939 33.597C41.8956 30.979 37.5391 29.8391 34.0102 30.2815C32.4124 30.4845 30.8405 31.031 29.4716 31.8846C28.3057 32.6081 26.7495 33.8 26.432 35.2209C26.4112 35.325 26.5361 35.3094 26.5881 35.2678C27.1295 34.7941 27.5406 34.1852 28.0663 33.6907C28.6284 33.1546 29.2478 32.6862 29.9245 32.2958C31.2881 31.5099 32.8287 31.0519 34.3954 30.9373C36.1078 30.8072 37.8514 31.1091 39.4597 31.6816C41.0888 32.2646 42.5514 33.191 44.092 33.9666C44.2742 34.0603 44.55 33.7584 44.3991 33.597H44.3939Z" fill="#347F41"/>
<path d="M55.0912 24.092C52.3483 22.8689 48.986 23.5871 46.3471 24.8155C44.031 25.8877 41.7616 27.8603 41.4494 30.5356C41.4181 30.7854 41.746 30.6969 41.8085 30.5356C42.7141 28.1414 44.463 26.4081 46.8103 25.4036C49.189 24.3835 52.3483 23.6496 54.8882 24.4043C55.0496 24.4511 55.2838 24.1805 55.0912 24.0972V24.092Z" fill="#347F41"/>
<path d="M45.4825 38.7595C45.4616 38.6918 45.3523 38.7699 45.3732 38.8324C47.2053 44.9377 45.8832 51.6571 45.2066 57.8404C44.5092 64.1799 44.2489 70.5246 44.2281 76.9058C44.2177 80.5544 44.2073 84.255 44.5664 87.8828C44.5924 88.1534 44.9724 87.9296 44.9672 87.7266C44.9047 84.432 44.7122 81.1425 44.7174 77.8426C44.7226 74.4543 44.8423 71.0764 45.1285 67.6984C45.675 61.3121 46.5547 54.9049 46.7316 48.4926C46.8253 45.1458 46.5651 41.9345 45.4877 38.7491L45.4825 38.7595Z" fill="#347F41"/>
<path d="M27.4478 55.0296C27.4217 54.9515 27.2864 55.0348 27.302 55.1024C28.9311 61.7646 29.7119 68.6038 30.503 75.4013C30.5238 75.5627 30.7372 75.4273 30.7372 75.3128C30.8101 68.3956 29.4308 61.6241 27.4478 55.0244V55.0296Z" fill="#347F41"/>
<path d="M41.2968 93.8529C40.3755 94.7482 39.2773 95.4352 37.9448 95.4248C36.7894 95.4144 35.4101 94.972 34.6085 94.108C34.5565 94.0507 34.4576 94.1548 34.5044 94.2121C35.4413 95.4248 36.5135 96.2315 38.1166 96.1795C39.5427 96.1326 40.9741 95.3832 41.6975 94.134C41.8797 93.8217 41.5466 93.6135 41.2968 93.8529Z" fill="#347F41"/>
<path d="M48.3933 95.1176C47.5813 95.508 46.8682 96.1742 45.9834 96.398C44.9997 96.6426 44.1357 96.1065 43.3133 95.6277C43.1988 95.56 43.0219 95.763 43.1208 95.8619C43.8078 96.5541 44.6354 97.2256 45.6815 97.0798C46.7069 96.9393 47.8676 96.2054 48.5546 95.4663C48.6847 95.3258 48.6483 94.9979 48.3933 95.1176Z" fill="#347F41"/>
</g>
<g style="mix-blend-mode:multiply" opacity="0.66">
<path d="M61.9661 27.726C59.8477 24.6499 56.7508 22.2297 53.2167 20.9962C49.1466 19.5752 44.9775 20.0749 40.8761 21.1002C37.0297 22.0579 33.2822 23.2186 29.3474 23.2446C28.5302 23.2082 27.713 23.1666 26.9011 23.1041C25.5738 22.948 24.2466 22.719 22.9142 22.5212C21.2174 22.11 19.5779 21.5375 17.8707 21.0846C15.8408 20.5485 13.7953 20.5017 11.7602 21.0482C8.34583 21.9747 5.56124 24.2804 3.6875 27.2107C4.18196 26.7111 4.71285 26.2426 5.28539 25.8314C6.61262 24.8738 8.28337 24.2023 9.93851 24.1607C10.485 24.1451 11.1148 24.2179 11.5416 24.5979C11.9476 24.9622 12.01 25.5192 11.9059 26.024C11.5364 27.8926 9.87085 29.0897 8.59046 30.3336C6.95614 31.9159 5.88394 34.1019 5.31141 36.2828C4.03102 41.1337 5.60809 46.1667 7.54429 50.6117C8.50198 52.8081 9.58979 54.9473 10.6099 57.1125C11.6041 59.2205 12.5617 61.3493 13.4101 63.5197C14.2689 65.7213 15.0132 67.9698 15.5597 70.2704C16.1114 72.5813 16.4081 74.9495 16.7256 77.3021C17.0379 79.6182 17.3138 81.9552 17.2617 84.2922C17.2253 85.8901 17.0743 87.6909 16.2936 89.1223C15.9865 89.6844 15.5181 90.2049 14.8623 90.3454C14.7478 90.3714 14.6281 90.3818 14.5084 90.3871C15.3047 92.5731 16.4289 94.6186 18.0476 96.3102C20.7021 99.0895 24.8035 100.755 28.6135 99.6881C30.6798 99.1104 32.387 97.7467 34.3908 97.0284C36.6654 96.2113 38.9607 96.8463 41.1936 97.4656C43.1922 98.0173 45.2742 98.5586 47.3405 98.0746C49.2246 97.6322 50.8381 96.4611 52.0613 94.9881C54.9395 91.5217 55.2727 86.8217 55.7931 82.5329C56.4229 77.3333 57.0007 72.1181 57.7033 66.9236C58.0416 64.4201 58.4476 61.927 59.0462 59.4703C59.6395 57.0188 60.4671 54.6402 61.3103 52.2668C62.8353 47.9884 64.4956 43.6372 64.8392 39.0673C65.141 35.0336 64.2666 31.0779 61.9609 27.7312L61.9661 27.726ZM43.567 45.3496C43.3796 48.4933 42.6978 51.5694 42.1461 54.661C41.8286 56.4567 41.5631 58.2524 41.4434 60.0689C41.3133 62.1196 41.3185 64.1703 41.3393 66.221C41.3809 70.2704 41.5111 74.3561 40.8396 78.3691C40.5221 80.2793 40.0485 82.2571 39.1637 83.9955C38.6328 85.0417 37.8052 86.2076 36.5665 86.4314C35.5515 86.6187 34.5834 86.0983 33.8339 85.4529C32.8346 84.5889 32.0851 83.449 31.497 82.2779C31.1586 81.6065 30.8568 80.8986 30.6486 80.1752C30.3935 79.2799 30.2738 78.3535 30.2062 77.4322C30.0916 75.9592 30.1541 74.4498 29.9771 72.9717C29.9771 73.081 29.9771 73.1903 29.9771 73.2944C29.9667 75.7354 29.8782 78.2285 29.2797 80.6072C29.0038 81.695 28.6083 82.8036 27.916 83.704C27.3019 84.5004 26.4847 84.9636 25.5062 85.1822C24.663 85.3696 23.7834 85.3019 23.0079 84.9064C22.2375 84.5108 21.639 83.8446 21.1758 83.1211C20.0151 81.3202 19.4842 79.1238 19.1042 77.0418C18.7659 75.2201 18.5942 73.3828 18.412 71.5403C18.0424 67.7668 17.0431 64.0193 15.7679 60.4592C14.4719 56.8471 12.8376 53.3702 11.1669 49.9246C10.8077 49.1908 10.4538 48.4673 10.1415 47.723C9.9281 47.3274 9.71991 46.9319 9.52212 46.5311C8.55402 44.548 7.83576 42.4349 7.63797 40.228C7.44539 38.0368 7.72645 35.7363 8.68414 33.7428C9.61061 31.8118 11.1825 30.1827 13.2124 29.428C14.7478 28.8607 16.3977 29.022 17.9748 29.3291C19.7132 29.6674 21.5193 30.2451 22.9714 31.2809C23.5648 31.7025 24.1217 32.2282 24.4444 32.8944C24.7463 33.5138 24.7619 34.1956 24.6005 34.8566C24.408 35.653 24.0072 36.3869 23.6012 37.0895C23.138 37.8911 22.6279 38.6718 22.1907 39.4941C21.7691 40.2801 21.3944 41.1233 21.2642 42.0133C21.1289 42.9241 21.3111 43.809 21.7587 44.6053C21.9565 44.0796 22.1751 43.5643 22.4093 43.049C23.6533 40.3477 25.3188 37.7713 27.4112 35.6478C29.3057 33.7272 31.7884 32.0148 34.5886 32.0148C37.5866 32.0148 40.3296 34.0915 41.8546 36.5638C43.4681 39.1766 43.7543 42.3464 43.5722 45.3444L43.567 45.3496ZM58.1978 44.5845C57.9063 45.9429 57.4587 47.2754 56.8341 48.5193C56.246 49.6904 55.4913 50.7834 54.5544 51.6995C54.1432 52.1003 53.7008 52.475 53.2115 52.7769C52.8784 52.9851 52.5089 53.1568 52.1237 53.2401C51.4835 53.3702 50.8694 53.1985 50.3801 52.7717C49.8024 52.272 49.438 51.5538 49.157 50.8615C48.777 49.935 48.522 48.9617 48.3086 47.9884C48.064 46.8746 47.8766 45.7452 47.7048 44.6157C47.5331 43.4863 47.3821 42.3568 47.2208 41.2326C47.1375 40.6444 47.0438 40.0511 46.9449 39.4629C46.794 39.083 46.617 38.7134 46.4036 38.3595C46.159 37.9535 45.8831 37.5631 45.6073 37.1832C45.0608 36.4233 44.4778 35.6686 44.0927 34.8098C43.5774 33.6543 43.5305 32.2022 44.1655 31.0831C44.7016 30.1306 45.6645 29.5269 46.6847 29.1938C47.8297 28.819 49.0789 28.7566 50.2708 28.8971C51.4315 29.0376 52.6026 29.3759 53.5967 30.0057C54.1328 30.344 54.6377 30.7084 55.1009 31.1404C55.5693 31.5828 55.9857 32.072 56.3501 32.5977C57.11 33.6855 57.6513 34.9139 58.0104 36.1891C58.3956 37.5371 58.5829 38.9372 58.6142 40.3321C58.6454 41.7582 58.5049 43.1948 58.2082 44.5897L58.1978 44.5845Z" fill="#347F41"/>
</g>
<g style="mix-blend-mode:multiply" opacity="0.66">
<path d="M64.4483 33.4561C64.49 34.5439 64.4275 35.6421 64.2453 36.7403C63.6936 40.113 62.2467 43.2724 60.7425 46.312C59.8889 48.0348 58.9728 49.7212 58.1557 51.4596C57.2917 53.2917 56.5058 55.155 55.7979 57.0548C54.4655 60.6305 53.4349 64.3103 52.6646 68.0422C51.9984 71.2952 51.4362 74.6211 51.1916 77.9366C51.0355 80.0237 50.9105 82.1265 50.4629 84.1772C50.2027 85.3743 49.5781 88.0288 47.7824 87.3782C46.9809 87.0867 46.5385 86.1967 46.247 85.4576C45.8358 84.4114 45.6172 83.2924 45.4507 82.1837C44.9822 79.0661 44.7428 75.9379 44.8261 72.7838C44.9302 68.7084 45.3674 64.6382 45.2165 60.5576C44.3108 63.9824 44.1391 67.5582 44.0922 71.087C44.0454 74.4025 44.1234 77.7284 43.8476 81.0387C43.5978 84.0939 43.0669 87.2637 41.6928 90.0326C40.6206 92.1979 38.3773 94.8367 35.6708 93.7905C34.4893 93.3325 33.6981 92.4997 33.2557 91.3182C32.855 90.2408 32.73 89.0958 32.4906 87.9767C32.2824 89.6631 32.4126 91.3859 32.043 93.0567C31.7203 94.5244 30.9136 95.784 29.3781 96.1483C27.6085 96.5647 25.6983 95.9662 24.241 94.9564C22.6847 93.879 21.4876 92.328 20.5611 90.6937C19.8377 89.4237 19.2599 88.0652 18.8383 86.6651C19.0049 88.2578 19.1142 89.8609 19.3848 91.4379C19.7232 93.421 20.3634 95.3104 21.472 96.9967C21.5084 97.0488 21.4616 97.1164 21.3991 97.1216C20.4258 97.1685 19.4629 97.0592 18.5312 96.8093C21.1805 99.2816 25.0165 100.687 28.5922 99.6876C30.6585 99.1099 32.3657 97.7462 34.3696 97.0279C36.6441 96.2108 38.9394 96.8458 41.1723 97.4652C43.171 98.0169 45.2529 98.5582 47.3192 98.0741C49.2034 97.6317 50.8169 96.4606 52.04 94.9877C54.9183 91.5212 55.2514 86.8213 55.7719 82.5325C56.4017 77.3328 56.9794 72.1176 57.682 66.9232C58.0204 64.4196 58.4263 61.9265 59.0249 59.4698C59.6182 57.0184 60.4458 54.6397 61.289 52.2663C62.814 47.988 64.4744 43.6367 64.8179 39.0669C64.9584 37.1619 64.8387 35.2725 64.4275 33.4561H64.4483Z" fill="#347F41"/>
</g>
<g style="mix-blend-mode:multiply" opacity="0.66">
<path d="M17.8661 21.084C17.6892 21.0372 17.507 20.9955 17.33 20.9539C17.0073 21.0632 16.7107 21.2297 16.4869 21.4848C16.1746 21.8335 16.0288 22.2811 16.1329 22.7444C16.2318 23.192 16.5025 23.5927 16.7992 23.9311C17.4237 24.6493 18.2253 25.2219 19.0424 25.7007C19.0997 25.7371 19.0893 25.8308 19.0216 25.8516C18.0587 26.0963 17.1219 26.4242 16.2683 26.9342C17.0802 27.538 18.0691 27.8295 19.006 28.1782C19.4068 28.3291 19.8232 28.4853 20.1927 28.6987C20.6351 28.9537 21.0515 29.266 21.4627 29.5627C22.3007 30.1612 23.1386 30.7702 23.9714 31.3844C24.5804 31.832 25.1998 32.3629 25.9232 32.6023C26.6883 32.8521 27.4691 32.6596 28.1978 32.3785C28.2654 32.3525 28.3279 32.441 28.2914 32.4982C27.8542 33.1488 27.365 33.763 26.9486 34.4292C27.9844 33.8567 28.9941 33.2425 30.0507 32.7064C31.0396 32.2067 32.0701 31.78 33.1528 31.5509C34.3134 31.3011 35.5105 31.2855 36.6868 31.4573C39.029 31.7956 41.1474 32.9042 43.3074 33.815C43.1096 33.2633 42.8181 32.7637 42.4642 32.2952C42.2196 31.9725 41.9281 31.6498 41.8136 31.2491C41.7043 30.8587 41.8084 30.4579 41.9698 30.0936C42.23 29.5106 42.6152 28.9745 43.0211 28.4853C43.8227 27.5276 44.822 26.7469 45.889 26.1067C47.9709 24.8627 50.3547 24.0976 52.7542 23.7645C51.8121 23.3221 50.7555 23.421 49.7458 23.5615C48.7673 23.6968 47.7263 23.8894 46.7738 23.5407C46.7322 23.5251 46.7062 23.4886 46.7166 23.4418C46.8363 22.8589 46.8935 22.2707 46.8675 21.6774C46.8467 21.1621 46.753 20.6416 46.5864 20.1523C44.6815 20.2669 42.7765 20.626 40.8819 21.0944C37.0356 22.0521 33.2881 23.2128 29.3532 23.2388C28.5361 23.2024 27.7189 23.1607 26.907 23.0983C25.5797 22.9421 24.2525 22.7131 22.92 22.5153C21.2233 22.1042 19.5837 21.5316 17.8766 21.0788L17.8661 21.084Z" fill="#347F41"/>
</g>
<path d="M44.9731 24.5195C44.895 24.0614 44.64 23.7179 44.3121 23.4056C44.0727 23.1766 42.8547 22.3647 43.3388 21.917C43.6303 21.6464 43.599 21.0895 43.115 21.1311C41.8346 21.2352 40.5542 21.3497 39.2738 21.4538C38.6232 21.5059 37.9362 21.6204 37.5302 20.9906C37.2543 20.5638 37.2439 19.9392 37.2595 19.4499C37.3324 17.0922 38.2485 14.8437 38.3526 12.4807C38.4462 10.3727 38.1392 8.26995 37.4469 6.2765C36.7911 4.39755 35.771 2.28959 34.121 1.08207C30.4672 -1.59321 26.0483 1.31108 23.1857 3.72092C22.0146 4.70984 20.4427 6.37019 21.6815 7.93684C22.1707 8.55622 22.9358 8.86851 23.7114 8.89974C24.1538 8.92056 24.591 8.85289 25.0178 8.7488C25.2103 8.70195 25.6111 8.48856 25.7985 8.50417C26.2617 8.55101 26.3658 9.12875 26.5168 9.47748C28.2656 13.4279 30.1601 19.4916 26.1524 22.7186C23.6281 22.3959 20.8383 22.6353 18.392 23.2235C18.1474 23.2807 17.7414 23.6086 17.9288 23.9053C18.4857 24.8005 19.4122 25.3106 20.4375 25.269C20.1669 25.7322 19.8962 26.1902 19.6256 26.6534C19.5683 26.7523 19.5475 26.8772 19.662 26.9449C21.4941 27.9807 23.17 29.0581 25.1843 29.7399C26.4751 30.1771 27.8752 30.5363 29.2129 30.2864C29.1972 30.3697 29.1868 30.453 29.1868 30.5467C29.192 30.9683 29.4575 31.395 29.9051 31.4575C30.4464 31.5304 31.0658 31.0411 31.4822 30.7705C32.0287 30.4113 32.5283 29.9897 33.0124 29.5525C33.8556 30.4009 35.2869 30.3489 36.4059 30.1563C37.2387 30.0106 38.1131 29.386 38.16 28.5948C40.1482 28.5324 42.454 28.116 43.953 26.8616C44.6296 26.2943 45.1293 25.4303 44.9731 24.5195Z" fill="#7BBD62"/>
<g style="mix-blend-mode:screen">
<path d="M36.562 7.85328C36.3122 7.40046 35.9114 7.09858 35.3909 7.12461C35.0786 7.14022 34.7663 7.25993 34.4853 7.40567C34.0637 7.62427 33.6785 7.91574 33.3246 8.22803C33.283 8.26447 33.2309 8.24885 33.2049 8.21762C33.1945 8.22803 33.1841 8.23324 33.1789 8.24365C33.0071 8.41541 32.8614 8.60799 32.726 8.81097C32.6115 8.97753 32.4918 9.15449 32.4242 9.35228C32.3253 9.62293 32.3981 9.84674 32.5491 10.081C32.7833 10.4453 33.0487 10.7888 33.2517 11.174C33.7254 12.064 33.9752 13.0321 34.1001 14.0262C34.1365 14.3021 34.1261 14.5779 34.1105 14.859C34.0897 15.2077 34.0637 15.5512 34.0481 15.9C34.0325 16.2539 34.0272 16.6078 34.0585 16.9618C34.0793 17.222 34.1157 17.5187 34.2667 17.7425C34.3083 17.8049 34.3656 17.857 34.428 17.8986C34.4488 17.9142 34.4697 17.9246 34.4905 17.9351C34.5009 17.9351 34.5061 17.9455 34.5165 17.9507C34.5321 17.9611 34.5373 17.9611 34.5321 17.9611C34.6258 17.9975 34.6622 18.0027 34.7559 17.9975C34.7611 17.9975 34.7663 17.9975 34.7663 17.9975C34.7663 17.9975 34.7663 17.9975 34.7715 17.9975C34.7819 17.9975 34.7872 17.9975 34.7976 17.9975C34.8184 17.9975 34.8392 17.9871 34.8548 17.9819C34.9069 17.9663 34.9121 17.9611 34.9641 17.9351C35.063 17.883 35.1151 17.8362 35.1931 17.7633C35.3805 17.5811 35.5158 17.3729 35.646 17.1491C36.0103 16.5089 36.2497 15.7959 36.4423 15.088C36.6817 14.224 36.8535 13.3392 36.9576 12.4544C37.0617 11.5904 37.1085 10.7107 37.0408 9.84674C36.994 9.18052 36.8899 8.46746 36.562 7.87931V7.85328Z" fill="#229360"/>
</g>
<g style="mix-blend-mode:screen">
<path d="M34.5162 5.76113C34.6098 5.78715 34.7035 5.78195 34.7972 5.78195C34.8857 5.78195 34.969 5.77154 35.0523 5.74031C35.1772 5.69867 35.2709 5.61539 35.3281 5.50609C35.4322 5.31351 35.401 5.03765 35.2396 4.89192C35.1668 4.82426 35.0575 4.79303 34.9482 4.80864C34.766 4.83466 34.5994 4.95438 34.4693 5.07929C34.4329 5.11573 34.3808 5.10532 34.3548 5.07929C34.334 5.11052 34.3184 5.14696 34.3028 5.18339C34.2507 5.3031 34.2247 5.43843 34.2611 5.55293C34.2924 5.66223 34.3912 5.74031 34.5162 5.77154V5.76113Z" fill="#229360"/>
</g>
<path d="M23.1854 3.73101C22.0143 4.71993 20.4425 6.38028 21.6812 7.94693C22.1705 8.56631 22.9356 8.8786 23.7111 8.90983C24.1535 8.93065 24.5907 8.86298 25.0175 8.75889C25.2101 8.71204 25.6109 8.49865 25.7982 8.51426C26.2615 8.5611 26.3656 9.13884 26.5165 9.48756C28.2653 13.438 30.1599 19.5017 26.1522 22.7287C25.6941 22.6714 25.2309 22.6298 24.7625 22.609C25.4703 22.8588 26.2042 23.0618 26.9485 22.9993C27.9218 22.9213 28.739 22.3123 29.3167 21.5576C29.9361 20.7508 30.3212 19.7983 30.5503 18.8146C31.128 16.3267 30.6439 13.792 30.3369 11.3041C30.2796 10.8564 30.2015 10.3984 30.2744 9.94559C30.3264 9.64891 30.4409 9.36785 30.6075 9.11802C30.9562 8.59754 31.4819 8.2332 32.0076 7.9105C32.9809 7.30674 34.3186 6.729 34.6048 5.50586C34.204 5.58914 33.8033 5.69844 33.4129 5.82336C31.8827 6.30741 30.4045 6.98924 28.7962 7.17141C28.7129 7.18182 28.6921 7.0569 28.7546 7.02047C28.9367 6.91117 29.1189 6.80707 29.3011 6.69777C30.113 6.22934 30.9406 5.78692 31.7317 5.28726C32.4865 4.81362 33.262 4.29314 33.8345 3.59569C34.2821 3.04918 34.6256 2.33091 34.4539 1.61264C34.4226 1.47732 34.3706 1.3524 34.3081 1.2379C34.2457 1.18585 34.1832 1.1338 34.1156 1.08695C30.4618 -1.58833 26.0429 1.31597 23.1802 3.72581L23.1854 3.73101Z" fill="#48842D"/>
<g style="mix-blend-mode:multiply">
<path d="M44.9741 24.5191C44.896 24.0611 44.641 23.7176 44.3131 23.4053C44.0736 23.1763 42.8557 22.3643 43.3398 21.9167C43.6312 21.646 43.6 21.0891 43.1159 21.1308C41.8356 21.2349 40.5552 21.3494 39.2748 21.4535C38.6242 21.5055 37.9371 21.62 37.5312 20.9902C37.2553 20.5634 37.2449 19.9389 37.2605 19.4496C37.2917 18.3306 37.5155 17.2375 37.755 16.1445C37.4635 16.6338 37.12 17.097 36.8025 17.5655C36.4121 18.1432 36.027 18.747 35.8136 19.4184C35.7147 19.7411 35.6522 20.069 35.6626 20.4073C35.6678 20.704 35.7095 21.0371 35.8448 21.3025C35.9957 21.5992 36.2716 21.8126 36.5578 21.974C36.9222 22.1821 37.323 22.3279 37.7237 22.4528C38.619 22.7339 39.5454 22.9056 40.4563 23.1346C40.8206 23.2283 41.1902 23.3272 41.5337 23.4781C41.7523 23.5718 42.0073 23.7072 42.1218 23.9258C42.2519 24.1756 42.1218 24.441 41.9501 24.6336C41.6326 25.0136 41.1121 25.1957 40.6436 25.3155C40.0867 25.4612 39.5038 25.5184 38.9261 25.5445C38.4264 25.5653 37.9267 25.5236 37.4271 25.5341C37.198 25.5341 36.9586 25.5445 36.7348 25.6121C36.5474 25.6694 36.3861 25.7839 36.2508 25.9244C36.0478 26.1326 35.876 26.3824 35.7199 26.6323C35.5273 26.9446 35.3659 27.2725 35.1057 27.5379C34.9704 27.6837 34.7882 27.8242 34.5852 27.8346C34.4083 27.8346 34.2573 27.7305 34.148 27.6004C33.9867 27.4078 33.8826 27.1684 33.7941 26.9342C33.6796 26.6271 33.5911 26.3096 33.513 25.9869C32.7948 26.6375 32.4773 27.642 31.6809 28.2145C31.6185 28.2562 31.5456 28.1833 31.5612 28.1209C31.7069 27.4703 31.8943 26.8197 31.936 26.1534C31.6913 26.4657 31.4883 26.8197 31.2906 27.1632C31.0459 27.5952 30.8013 28.0272 30.489 28.4175C30.2444 28.7246 29.9477 29.0109 29.5834 29.167C29.1982 29.3284 28.761 29.2503 28.3654 29.1566C27.949 29.0629 27.5431 28.9276 27.1319 28.8079C26.7571 28.6986 26.3824 28.5945 26.0076 28.4904C25.1072 28.2354 24.2068 27.9751 23.3376 27.642C22.6245 27.3714 21.8386 27.0591 21.2869 26.5126C21.2608 26.4865 21.2556 26.4449 21.2764 26.4137C21.8073 25.6642 22.562 25.076 23.3584 24.6076C23.0045 24.5972 22.6557 24.566 22.3018 24.5399C21.672 24.4879 21.0422 24.4202 20.4176 24.3317C19.8243 24.2433 19.2257 24.1444 18.6532 23.9674C18.445 23.9049 18.2316 23.8269 18.039 23.7228C17.9922 23.6968 17.9453 23.6655 17.9037 23.6343C17.8725 23.7228 17.8725 23.8165 17.9297 23.9102C18.4867 24.8054 19.4131 25.3155 20.4385 25.2738C20.1678 25.737 19.8972 26.1951 19.6265 26.6583C19.5693 26.7572 19.5484 26.8821 19.6629 26.9498C21.495 27.9855 23.171 29.0629 25.1853 29.7448C26.4761 30.182 27.8762 30.5411 29.2138 30.2913C29.1982 30.3746 29.1878 30.4578 29.1878 30.5515C29.193 30.9731 29.4584 31.3999 29.9061 31.4624C30.4474 31.5352 31.0667 31.046 31.4831 30.7753C32.0296 30.4162 32.5293 29.9946 33.0134 29.5574C33.8565 30.4058 35.2879 30.3537 36.4069 30.1612C37.2397 30.0154 38.1141 29.3908 38.1609 28.5997C40.1492 28.5373 42.4549 28.1209 43.9539 26.8665C44.6306 26.2992 45.1302 25.4352 44.9741 24.5243V24.5191Z" fill="#6BA381"/>
</g>
<g style="mix-blend-mode:screen" opacity="0.52">
<path d="M21.212 57.3623C20.3324 54.1718 18.8022 51.179 18.1932 47.9104C17.8705 46.1771 17.8029 44.3659 18.3233 42.6587C18.7605 41.2273 19.5309 39.9313 20.0982 38.5573C21.1287 36.0537 21.3682 32.5821 18.5107 31.1976C16.0124 29.9901 12.8843 30.9062 11.1667 32.9881C10.5889 33.5034 10.0893 34.1123 9.6781 34.7994C8.20513 37.2508 8.13747 40.1343 8.87135 42.8408C9.71974 45.9429 11.4894 48.6338 13.1862 51.3299C14.9922 54.1978 16.3455 57.1333 17.3761 60.3603C17.8653 61.8853 18.2713 63.4572 18.8594 64.9458C19.1978 65.8098 20.0149 66.5801 20.8841 65.7838C21.7689 64.977 21.847 63.1918 21.8782 62.0935C21.9251 60.4852 21.6388 58.903 21.212 57.3623Z" fill="#48842D"/>
</g>
<g style="mix-blend-mode:screen" opacity="0.52">
<path d="M34.538 36.761C31.8106 34.4344 27.1471 35.6003 26.1321 39.1448C26.1113 39.2176 26.1061 39.2801 26.1061 39.3322C25.4243 40.6021 25.0599 42.1011 25.0079 43.3243C24.883 46.4836 26.7359 50.33 29.9317 51.3449C33.0494 52.339 35.6101 49.3931 36.4742 46.7126C37.4839 43.5845 37.2184 39.0459 34.538 36.7558V36.761Z" fill="#48842D"/>
</g>
<g style="mix-blend-mode:screen" opacity="0.52">
<path d="M39.83 37.9951C39.575 37.4798 39.1326 37.0374 38.508 37.1675C38.3154 37.2091 38.128 37.3028 37.9771 37.4382C37.9407 37.459 37.9042 37.4798 37.873 37.5058C37.4358 37.865 37.212 38.7081 37.1235 39.2442C36.9361 40.3789 37.7845 41.8467 39.1066 41.3314C40.4806 40.7953 40.3713 39.0933 39.8248 38.0003L39.83 37.9951Z" fill="#48842D"/>
</g>
</svg>
