<svg width="167" height="101" viewBox="0 0 167 101" fill="none" xmlns="http://www.w3.org/2000/svg">
<path d="M0.124889 63.6761C-0.0600428 65.4881 0.662545 67.2638 1.48153 68.8905C3.24738 72.3983 5.53626 75.6422 8.24926 78.4817C9.05251 79.3226 9.91674 80.1446 10.98 80.616C13.2034 81.6016 16.0943 80.6798 17.3368 78.5893C13.9737 73.8162 10.6107 69.0431 7.24731 64.2692C6.23103 62.8265 5.113 58.8286 3.26677 58.8271C1.51329 58.8257 0.258108 62.3695 0.124889 63.6761Z" fill="#C4C683"/>
<path d="M72.6446 16.1915C45.022 24.5635 15.8218 33.6209 7.22749 42.4215C-8.05162 59.6713 14.1043 85.7504 33.5668 86.1669C53.374 87.8316 65.0671 81.0394 75.5422 86.9308C83.3327 79.6165 82.3721 87.0348 86.4673 91.5086C89.2098 92.3445 89.5729 88.6486 91.2185 87.5008C105.444 87.4646 108.198 96.0018 112.414 91.4507C120.837 100.802 122.409 88.2225 124.258 89.5637C130.823 93.2208 130.508 86.4171 134.877 90.0651C137.439 91.96 132.102 100.556 137.858 98.6577C138.151 99.2479 138.444 99.8384 138.737 100.429C141.353 97.7645 153.363 102.546 149.673 95.1893C152.763 94.5802 155.853 93.9715 158.942 93.3627C155.016 87.181 162.645 83.8778 157.894 82.0611C165.664 76.9175 160.319 75.6112 161.567 72.4876C164.981 71.6391 167.174 68.6141 165.377 65.5383C164.32 65.4402 163.264 65.3419 162.207 65.2435C162.494 62.7008 163.411 60.2315 164.855 58.1194C161.625 56.9154 159.344 53.5273 159.445 50.0813C158.237 49.7494 157.028 49.4175 155.82 49.0855C157.39 47.3034 159.899 46.4001 162.244 46.7719C162.216 45.4088 162.187 44.0457 162.159 42.6823C166.72 42.8212 162.456 36.9455 162.624 34.1957C161.953 31.4563 163.735 29.1761 162.746 26.491C159.083 24.3713 155.661 23.7962 156.421 19.1145C159.54 18.0912 163.096 18.4964 165.904 20.1948C164.475 16.8891 163.045 13.5836 161.616 10.2782C160.132 9.22228 157.904 9.38923 156.595 10.6545C152.986 3.32217 149.374 8.79031 144.816 5.0186C133.389 -3.42167 121.062 1.69151 108.981 5.26086C96.5523 9.00784 84.9232 12.4971 72.6446 16.1915Z" fill="#B9DB2A"/>
<path d="M148.309 69.8596C148.383 69.8157 148.428 69.7542 148.451 69.687C148.519 69.6496 148.586 69.6142 148.654 69.5765C150.619 68.4824 152.654 67.5178 154.482 66.1972C154.603 66.1098 154.501 65.9327 154.365 65.9968C152.706 66.7803 151.102 67.6673 149.414 68.3899C147.598 69.1673 145.669 69.7123 143.791 70.3255C140.261 71.4778 136.644 72.3426 133.001 73.0526C131.384 73.3676 129.764 73.6473 128.142 73.8997C126.227 74.0888 124.306 74.2198 122.39 74.3241C121.635 74.3651 120.878 74.3952 120.121 74.4202C123.116 73.6203 125.92 72.3558 128.59 70.7904C131.412 69.1353 133.83 67.0187 136.496 65.1477C136.616 65.0631 136.507 64.8669 136.379 64.9473C133.786 66.5712 130.957 67.9408 128.181 69.2238C127.967 69.3227 127.75 69.4141 127.534 69.5082C128.481 67.845 128.924 65.96 129.22 64.0679C129.246 63.9046 129.015 63.8318 128.967 63.9979C128.363 66.0645 127.057 67.6477 125.581 69.1679C125.027 69.7381 124.468 70.2918 123.897 70.8399C122.273 71.3264 120.613 71.6906 118.922 71.9323C115.613 72.4053 112.294 72.8092 108.992 73.3378L107.269 73.6138C107.566 73.4452 107.864 73.2774 108.156 73.1023C109.933 72.0388 111.529 70.7283 113.235 69.5588C113.308 69.5088 113.243 69.393 113.165 69.4385C109.975 71.2904 106.306 72.6172 102.823 73.8679C102.196 73.8159 101.571 73.7563 100.945 73.6996C101.219 73.4241 101.48 73.1346 101.721 72.8291C103.309 70.8196 103.957 68.5217 103.996 66.0032C103.999 65.8293 103.754 65.8405 103.734 66.0032C103.3 69.4099 100.828 71.9922 97.8417 73.4019C97.2622 73.3432 96.6818 73.2873 96.1037 73.2254C90.0982 72.5846 84.1266 71.685 78.1475 70.8435C81.8827 70.0259 85.5755 69.0068 89.318 68.2868C89.4006 68.2708 89.3719 68.1572 89.2994 68.1502C86.9102 67.9127 84.6727 67.9582 82.2872 68.2576C80.1475 68.526 78.0334 68.9532 75.9028 69.2828C74.1917 69.5476 72.4607 69.7598 70.7275 69.8531C70.0749 69.7727 69.422 69.6937 68.7688 69.6184C66.2554 69.3278 63.7363 69.0805 61.2136 68.8764C61.4688 68.7129 61.7209 68.5445 61.9651 68.3646C63.6245 67.1446 65.2526 65.9282 66.969 64.7874C67.1168 64.689 66.9839 64.4546 66.8284 64.5471C64.9488 65.666 63.0312 66.4675 61.0112 67.2902C60.2215 67.6117 59.4556 67.9877 58.6813 68.3444C58.4542 68.4489 58.2283 68.5434 58.0082 68.6401C51.9633 68.2415 45.9016 68.1007 39.8458 68.2438C33.0207 68.4051 25.113 68.366 18.6238 71.1951C19.6244 70.187 20.6848 69.2342 21.7345 68.2955C23.2918 66.9029 24.891 65.5595 26.527 64.2624C26.9469 64.2132 27.3696 64.1832 27.7985 64.1806C29.9291 64.1671 32.1264 65.0718 33.8967 66.1997C33.9996 66.2652 34.0842 66.1089 33.9903 66.0395C32.1829 64.6994 30.2594 63.9434 28.1138 63.3285C28.0219 63.302 27.9252 63.2748 27.8272 63.2475C29.195 62.1967 30.5871 61.1773 32.0033 60.1919C32.9912 60.2122 33.9794 60.2906 34.9507 60.4617C37.6361 60.9347 39.9371 61.6717 42.2684 63.125C42.3994 63.2065 42.5638 63.0047 42.4371 62.9063C40.3902 61.3187 37.8278 59.8319 35.3118 59.1512C34.8756 59.0332 34.4369 58.9286 33.996 58.8364C34.7095 58.3628 35.4274 57.8952 36.1522 57.4382C36.8433 57.0023 37.5406 56.577 38.241 56.1566C40.4916 56.1732 42.7549 56.5723 45.0806 56.9714C47.5143 57.3887 49.9594 57.7285 52.3813 58.2153C54.7269 58.6869 57.2134 59.8398 59.1982 61.1714C59.3766 61.2911 59.5672 61.0275 59.423 60.8799C56.5051 57.8935 52.5996 56.0771 48.6604 54.7797C46.9457 54.2151 45.1029 53.703 43.2257 53.3331C45.5441 52.0982 47.9044 50.9439 50.3023 49.874C50.9867 49.9549 51.6693 50.0471 52.3492 50.1618C56.133 50.7992 59.7889 51.8444 63.3693 53.2162C66.8411 54.5464 70.2598 56.2083 73.4672 58.0885C75.1316 59.0643 76.6864 60.2273 78.1759 61.4519C79.677 62.686 81.2006 63.9265 82.6612 65.1997C82.7366 65.2655 82.8667 65.1812 82.8068 65.0873C82.3077 64.3026 81.8861 63.4443 81.2863 62.7332C80.6186 61.9412 79.914 61.1784 79.1897 60.4378C77.8361 59.0534 76.3783 57.7909 74.9163 56.5239C71.8284 53.848 68.4555 51.6724 64.7197 50.0128C62.1335 48.8639 59.43 47.9417 56.6729 47.265C59.3969 46.2442 62.1593 45.3249 64.9566 44.5177C67.4161 44.971 69.8144 45.6899 72.1558 46.6331C73.4006 47.1345 74.5911 47.7234 75.7364 48.3833C76.7294 49.1809 77.708 49.9971 78.6886 50.8042C81.7726 53.3435 84.9361 55.7805 88.1381 58.1689C91.6243 60.7692 95.2344 63.238 98.661 65.9102C98.722 65.9577 98.8094 65.8768 98.7484 65.8228C95.4814 62.9218 92.3814 59.8001 89.1743 56.8261C85.9023 53.7915 82.5603 50.8478 79.145 47.9763C76.9224 46.1076 74.6701 44.2136 72.2013 42.6706C74.2642 42.2055 76.3345 41.7755 78.41 41.3654C79.179 41.4067 79.9474 41.4402 80.7076 41.4899C83.0303 41.6422 85.3739 41.6959 87.6867 41.9652C88.649 42.077 89.5765 42.2566 90.4795 42.5051C90.7907 42.6268 91.0965 42.7619 91.3932 42.9143C92.7892 43.6304 94.0343 44.6158 95.1385 45.7245C97.435 48.0303 99.1615 50.8385 101.273 53.3048C103.211 55.57 105.555 57.439 108.186 58.8426C110.599 60.1298 113.615 61.4783 116.399 61.1913C116.539 61.177 116.645 60.9612 116.481 60.8889C115.118 60.2906 113.671 59.9722 112.275 59.4536C110.758 58.8901 109.302 58.1549 107.944 57.2746C105.04 55.393 102.81 52.8655 100.801 50.0786C99.8788 48.7981 98.9673 47.501 97.9687 46.2824C98.5398 46.6188 99.116 46.9471 99.7062 47.2534C107.52 51.3107 116.172 52.9664 124.765 54.4602C124.822 54.4703 124.848 54.3871 124.789 54.3708C116.18 51.961 107.253 49.6193 99.5541 44.9083C97.7349 43.7951 96.016 42.5096 94.1138 41.5352C92.9933 40.9612 91.8359 40.5397 90.642 40.2373C92.8564 40.2047 95.0711 40.1799 97.2858 40.1639C97.7372 40.5206 98.6545 40.4104 99.5721 40.1799C99.5997 40.1917 99.6278 40.2027 99.659 40.2111C101.507 40.7125 103.702 40.4433 105.612 40.6198C107.744 40.8168 109.882 41.0891 111.986 41.4846C116.201 42.2771 120.381 43.543 124.302 45.2858C128.124 46.985 131.849 48.8568 135.821 50.1955C137.871 50.8866 139.96 51.4588 142.061 51.9726C144.085 52.4672 146.18 53.0608 148.268 53.1173C148.334 53.119 148.367 53.0175 148.303 52.9877C146.346 52.0656 144.15 51.6451 142.078 51.0384C140 50.4299 137.934 49.7658 135.918 48.9735C131.79 47.351 128.103 44.8552 124.051 43.0781C121.313 41.8778 118.497 40.9171 115.609 40.1996C116.498 40.2083 117.387 40.2162 118.276 40.2266C122.711 40.2791 127.166 40.3545 131.596 40.1153C135.62 39.898 140.182 39.7198 143.94 38.1288C143.948 38.1519 143.965 38.1721 143.998 38.1752C144.109 38.1856 144.22 38.1957 144.331 38.2061C144.46 38.2182 144.46 37.9931 144.331 38.0051C144.247 38.013 144.163 38.0209 144.079 38.0285C144.081 37.9855 144.053 37.938 144.006 37.9425C142.026 38.1302 140.077 38.5051 138.088 38.6299C136.084 38.7558 134.066 38.7249 132.061 38.6305C127.954 38.4374 123.852 38.0262 119.748 37.7558C119.02 37.7078 118.291 37.6673 117.562 37.6254C120.074 37.3821 122.575 36.9616 124.961 36.1179C127.193 35.329 129.632 34.3593 131.24 32.5688C131.308 32.4929 131.224 32.3984 131.137 32.4353C128.893 33.3877 126.823 34.422 124.406 34.8962C122.046 35.359 119.646 35.5437 117.248 35.6808C114.518 35.8368 111.786 35.8863 109.071 36.0898C107.101 35.8995 105.132 35.7137 103.159 35.5459C100.707 35.3374 98.2546 35.1232 95.8018 34.9141C96.0399 34.6865 96.2765 34.4577 96.5135 34.2292C96.5312 34.2244 96.5486 34.2163 96.5646 34.2003L96.8968 33.8681C96.9016 33.8633 96.903 33.8579 96.9066 33.8532C97.0514 33.7143 97.1958 33.5749 97.3417 33.4378C98.9578 31.9176 100.582 30.3603 102.233 28.8878C102.454 28.6914 102.138 28.3985 101.916 28.5708C100.395 29.7546 98.8102 30.903 97.2487 32.0513C95.523 33.0702 93.6456 33.9822 91.7018 34.4709C91.5883 34.4996 91.4717 34.5212 91.3564 34.5471C90.7212 34.4957 90.0861 34.4422 89.4509 34.3931C86.9001 34.1952 84.3481 34.0049 81.7948 33.8307C83.0707 33.5724 84.3343 33.254 85.5802 32.8411C87.0766 32.345 88.529 31.754 89.97 31.1171C91.6237 30.3861 92.9978 29.3735 94.4744 28.3611C94.4879 28.3519 94.48 28.3263 94.4626 28.3328C92.8446 28.9519 91.0585 29.288 89.368 29.6888C87.7559 30.0708 86.0948 30.3144 84.4473 30.4822C81.0233 30.8313 77.6088 31.27 74.1788 31.5803C70.6938 31.8956 67.2129 32.2087 63.754 32.7506C63.663 32.7649 63.5719 32.7812 63.4808 32.7959C63.4755 32.7953 63.4704 32.7947 63.4651 32.7944C65.555 32.4032 67.6314 31.9558 69.6932 31.3979C73.0023 30.5022 75.8986 29.1405 78.9365 27.5913C79.018 27.5497 78.9463 27.4368 78.8662 27.4713C75.5888 28.8743 71.7036 29.3954 68.1769 29.7965C64.6517 30.1975 61.0941 30.3782 57.5585 30.679C54.2213 30.9628 50.8051 31.3881 47.5505 32.2034C47.3639 32.2048 47.1776 32.2093 46.991 32.2113C48.2579 31.82 49.5294 31.444 50.8088 31.0958C53.5611 30.3468 56.1755 29.6655 58.6965 28.2895C58.8128 28.226 58.7105 28.0655 58.595 28.1161C55.7258 29.3665 52.39 29.6329 49.3231 30.1309C46.1411 30.6478 42.9511 31.2079 39.8132 31.9513C38.9397 32.1581 38.069 32.3774 37.2 32.6033C26.2861 33.5019 15.4673 36.3079 6.95763 43.5674C6.27467 44.1501 5.62938 44.7616 5.01106 45.3951C-3.60234 59.3212 8.54024 77.3136 23.264 83.7486C25.6153 84.5071 28.0773 84.9621 30.5205 85.16C38.6951 85.8216 46.6939 83.5102 54.6937 82.2528C70.5634 79.7587 86.7812 81.6064 102.756 80.77C109.409 80.4218 116.416 79.7543 122.854 77.6739C129.255 76.6942 135.556 75.2192 141.628 72.8823C143.947 72.0866 146.198 71.1111 148.309 69.8596Z" fill="#F2F9CD"/>
<path d="M165.378 65.5387C164.322 65.4406 163.265 65.3422 162.209 65.2439C162.495 62.7012 163.413 60.2319 164.856 58.1198C161.765 56.9674 159.549 53.8143 159.452 50.5246C159.163 50.4959 158.872 50.4723 158.579 50.4597C156.937 50.3886 155.124 50.5167 153.836 49.4954C153.172 48.9687 152.671 48.1509 151.843 47.9704C150.352 47.6455 149.305 49.5693 147.806 49.8588C146.315 50.1469 145.01 48.7498 143.5 48.5845C142.471 48.4718 141.48 48.9426 140.512 49.3113C137.085 50.6165 133.212 50.7143 129.723 49.5834C129.874 51.3315 128.008 52.5906 126.288 52.9338C124.567 53.277 122.697 53.1474 121.171 54.0133C119.645 54.8792 118.937 57.4123 120.453 58.2951C118.256 57.6229 115.972 56.943 113.696 57.2617C111.42 57.5804 109.153 59.1998 108.87 61.4803C107.025 60.3319 105.052 59.1453 102.88 59.1439C100.707 59.1425 98.3833 60.8654 98.5938 63.028C98.0523 65.4358 93.8924 65.6469 93.11 63.3063C87.2804 63.9988 81.5719 65.7014 76.3151 68.3152C79.7195 67.7047 83.1242 67.0946 86.5286 66.4844C87.3714 66.3332 88.2444 66.1828 89.076 66.3875C90.4889 66.7351 91.4655 68.0131 92.7581 68.6814C96.0877 70.4028 99.8555 67.7064 103.002 65.6688C106.148 63.6315 111.343 62.7175 112.818 66.1637C115.962 64.8782 119.106 63.593 122.251 62.3074C122.887 62.0472 123.523 61.7872 124.159 61.5272C127.951 59.9772 131.742 58.4272 135.534 56.8772C136.141 56.6288 136.751 56.3795 137.39 56.2258C138.276 56.0119 139.196 55.9866 140.107 55.9624C143.87 55.8626 147.633 55.7629 151.395 55.6631C152.42 55.6358 153.54 55.6392 154.338 56.2825C155.515 57.2311 156.401 59.5118 157.678 58.7029C157.868 61.781 158.059 64.8591 158.249 67.9372C157.405 72.8564 151.758 75.1504 146.897 76.2827C140.344 77.8091 133.674 78.8386 126.965 79.3597C109.952 80.6812 92.8604 78.731 75.7974 78.9432C69.1129 79.0264 62.4126 79.4406 55.7323 79.4527C50.7301 79.4617 47.2535 79.3063 43.6856 78.8763C37.8473 78.1728 28.8825 76.1315 18.3164 69.5855C19.9018 66.6604 21.9782 63.4982 24.7146 60.3713C35.1466 48.4491 48.6279 44.5093 55.2837 43.093C46.7569 43.9972 35.1492 46.4005 22.9684 52.8559C18.924 54.9992 15.3659 57.2982 12.2684 59.5734C13.8319 57.0009 15.9733 53.9692 18.8675 50.8773C22.4723 47.0261 26.1024 44.3024 29.034 42.4286C25.4866 42.8702 19.7447 44.1189 14.0818 48.0772C12.0554 49.4937 10.4115 50.9968 9.09761 52.3967C8.48914 51.6941 7.60101 50.4726 7.10383 48.7416C6.20053 45.5961 7.21091 42.9354 7.5819 42.0723C7.4262 42.2075 7.30843 42.3308 7.22749 42.4222C-8.05162 59.672 14.1043 85.7511 33.5668 86.1676C53.374 87.8323 65.0671 81.0401 75.5422 86.9315C83.3327 79.6171 82.3721 87.0355 86.4673 91.5093C89.2098 92.3451 89.5729 88.6493 91.2185 87.5015C105.444 87.4652 108.198 96.0024 112.414 91.4514C120.837 100.802 122.409 88.2232 124.258 89.5644C130.823 93.2214 130.508 86.4177 134.877 90.0658C137.439 91.9606 132.102 100.557 137.858 98.6584C138.151 99.2486 138.444 99.8391 138.737 100.429C141.353 97.7652 153.363 102.547 149.673 95.1899C152.763 94.5809 155.853 93.9721 158.942 93.3634C155.016 87.1816 162.645 83.8784 157.894 82.0617C165.664 76.9182 160.319 75.6119 161.567 72.4882C162.838 70.1715 164.108 67.8551 165.378 65.5387Z" fill="#D5D8C7"/>
<path d="M152.802 29.5268C154.266 29.4458 156.053 29.5344 156.747 30.8261C157.084 31.4534 157.052 32.2032 157.122 32.9118C157.394 35.6526 159.25 37.9249 160.716 40.2565C161.297 41.1803 161.824 42.207 162.174 43.2623C162.17 43.0692 162.166 42.8762 162.162 42.6828C166.723 42.8216 162.459 36.946 162.627 34.1962C161.956 31.4568 163.738 29.1766 162.749 26.4914C159.086 24.3717 155.664 23.7967 156.424 19.1149C159.543 18.0916 163.099 18.4969 165.907 20.1953C164.478 16.8896 163.048 13.5841 161.619 10.2787C160.136 9.22275 157.907 9.3897 156.598 10.655C153.978 5.33215 151.357 6.75428 148.373 6.49121C150.299 8.50691 152.083 10.6586 153.703 12.9273C151.733 12.7345 150.276 14.8713 150.054 16.8387C149.832 18.8061 150.354 20.8128 150.037 22.7672C149.72 24.7214 148.002 26.7376 146.081 26.2595C144.463 25.8568 143.725 24.0061 142.437 22.9471C140.483 21.3397 137.105 22.0477 135.961 24.3043C134.784 23.548 133.244 23.3883 131.937 23.8869C132.282 21.8302 129.789 20.4196 127.704 20.3726C125.619 20.3257 123.41 20.9347 121.52 20.052C121.462 19.1118 121.405 18.1717 121.347 17.2316C119.05 17.2069 116.753 17.1821 114.457 17.1577C114.341 18.8426 114.225 20.5275 114.109 22.2124C111.682 21.9609 109.255 21.7096 106.828 21.4581C107.125 20.4879 106.179 19.5028 105.178 19.3409C104.177 19.179 103.181 19.5753 102.226 19.9199C95.6346 22.3001 88.2666 22.4715 81.5714 20.4005C80.7515 20.1469 79.9286 19.8583 79.0714 19.8173C78.2232 19.7765 77.3848 19.9806 76.554 20.1565C65.5106 22.4937 54.8248 23.0092 44.2637 27.1319C47.3066 28.4978 50.9774 27.2865 53.9959 26.3351C55.42 25.8863 56.8461 25.4389 58.2994 25.0968C62.5604 24.0938 67.0365 24.0153 71.3301 24.8683C70.6969 24.7008 70.0423 25.4712 70.3096 26.069C72.8674 26.393 75.5245 25.8832 77.7805 24.6348C78.943 23.9917 80.3151 23.1368 81.4831 23.7694C82.7973 24.481 82.98 26.73 84.4589 26.9456C85.7104 27.128 86.5024 25.6536 87.6126 25.0476C88.3419 24.6497 89.2129 24.6407 90.0437 24.6413C95.8732 24.6463 101.703 24.6514 107.532 24.6564C107.386 25.7303 107.247 26.8627 107.657 27.866C108.066 28.8694 109.235 29.6499 110.239 29.2421C110.876 28.9832 111.303 28.3222 111.965 28.1364C113.174 27.7969 114.45 29.201 115.595 28.6859C116.552 28.2559 116.561 26.8781 117.249 26.0867C118.231 24.9566 120.042 25.44 121.465 25.9054C122.888 26.3706 124.872 26.4894 125.459 25.1117C125.24 27.9706 128.39 30.5335 131.144 29.7378C132.19 29.4357 133.141 28.7491 134.23 28.7213C136.812 28.655 139.278 32.2035 141.335 30.64C141.719 32.5697 142.104 34.4991 142.489 36.4288C145.422 36.0177 148.322 35.3687 151.151 34.4899C151.997 32.9539 152.559 31.2631 152.802 29.5268Z" fill="#D5D8C7"/>
<path d="M122.725 4.26787C124.777 3.68244 126.865 3.13663 128.998 3.08604C136.461 2.90926 142.602 8.60674 147.845 13.9206C143.577 12.5575 139.41 10.8821 135.386 8.91225C137.332 11.5786 138.786 14.6038 139.652 17.7895C136.066 13.4962 131.553 8.79252 125.981 9.2852C126.343 10.7329 126.705 12.1803 127.067 13.628C125.391 10.9268 121.893 9.50021 118.807 10.2588C117.465 10.5887 116.243 11.2756 114.978 11.8321C111.698 13.275 108.04 13.8495 104.476 13.4819C107.05 14.5535 109.319 16.3475 110.956 18.6052C102.816 14.0243 92.644 13.2284 83.8906 16.4877C89.8273 14.2772 95.5026 13.1182 101.578 11.4097C108.743 9.39453 115.556 6.31336 122.725 4.26787Z" fill="#D4ED3E"/>
</svg>
