<svg width="107" height="101" viewBox="0 0 107 101" fill="none" xmlns="http://www.w3.org/2000/svg">
<path d="M74.4113 36.0639C79.8027 31.711 83.7394 26.2773 87.8464 20.7535C92.7381 14.1745 98.164 8.56163 104.047 2.892C104.949 2.02386 104.021 0.394422 102.821 0.988765C96.687 4.02392 92.4309 9.75255 88.433 15.1339C83.5102 21.7607 79.2006 28.993 73.522 35.021C72.9255 35.6532 73.709 36.6315 74.4113 36.0639Z" fill="#9EBA3F"/>
<path d="M72.1721 32.9121C80.0856 25.829 83.655 15.1753 90.6925 7.34646C91.0743 6.92241 90.5323 6.23235 90.0982 6.65195C86.7336 9.90748 84.226 13.7618 81.6449 17.6417C78.3315 22.6246 76.1578 28.3644 72.112 32.842C72.0753 32.8843 72.1276 32.9522 72.1721 32.9121Z" fill="#9EBA3F"/>
<path d="M74.5927 32.7359C80.0576 28.0768 85.5636 23.469 88.1625 16.5561C88.5443 15.54 87.1597 14.9601 86.542 15.7437C82.2758 21.1528 78.1955 26.7446 74.0529 32.2528C73.8003 32.5889 74.2844 32.9996 74.5927 32.7359Z" fill="#6D9137"/>
<path d="M76.7738 36.7244C81.7767 34.6164 85.6344 31.1015 89.7537 27.6412C94.5463 23.6154 99.6717 20.666 105.275 17.9447C106.314 17.4394 105.794 15.8767 104.67 16.0448C99.2265 16.8562 94.5874 20.046 90.2178 23.2203C85.0557 26.9711 80.2475 31.1583 76.3152 36.1879C76.0804 36.4895 76.4599 36.8568 76.7738 36.7244Z" fill="#6D9137"/>
<path d="M76.3746 35.2494C81.2908 31.296 86.4985 27.7211 91.4124 23.751C93.93 21.7175 96.5401 19.8143 98.9954 17.704C101.264 15.7552 102.629 13.0595 105.033 11.2397C105.384 10.9748 105.093 10.3159 104.655 10.4428C99.1545 12.0322 94.8127 16.64 90.256 19.9167C84.4372 24.1005 79.6624 28.7005 75.8326 34.7664C75.6133 35.1181 76.0507 35.5098 76.3746 35.2494Z" fill="#A8C13F"/>
<path d="M79.1436 37.3869C84.9557 34.5076 91.0895 32.2103 97.4192 30.7735C98.2907 30.5753 98.0491 29.3354 97.1765 29.4245C90.4362 30.109 84.4271 32.9727 78.7563 36.5588C78.2733 36.8649 78.6016 37.6551 79.1436 37.3869Z" fill="#A8C13F"/>
<path d="M75.1977 36.021C80.627 32.2402 84.9176 26.4793 89.4164 21.6678C94.7109 16.0048 100.139 10.5756 106.399 5.96887C107.021 5.51142 106.336 4.45185 105.663 4.82693C92.6942 12.0559 85.1246 25.3574 74.59 35.3098C74.1437 35.7294 74.708 36.3616 75.1977 36.021Z" fill="#5D742E"/>
<path d="M79.4214 35.9733C85.416 32.8502 90.5692 28.3181 97.0269 26.0932C97.4799 25.9373 97.2328 25.1738 96.772 25.294C90.0238 27.067 85.0164 31.8485 79.0819 35.2487C78.64 35.5025 78.9606 36.2137 79.4214 35.9733Z" fill="#5D742E"/>
<path d="M71.7949 33.2006C75.7906 27.9684 79.1207 22.0717 81.4692 15.9235C81.7007 15.3169 80.8114 15.0476 80.5409 15.6007C77.6638 21.4874 74.632 27.2227 71.284 32.8556C71.0804 33.1962 71.5534 33.5178 71.7949 33.2006Z" fill="#5D742E"/>
<path d="M1.81082 100.486C2.374 100.909 4.5644 102.799 24.062 91.2824C27.5569 89.2189 30.8569 86.8404 34.1614 84.4753C36.7681 82.6099 39.3146 80.6566 41.8601 78.7033C53.1515 70.0408 64.4686 61.356 74.7383 51.4225C77.0444 49.192 79.3461 46.828 80.645 43.8351C81.9439 40.8423 82.0518 37.0603 80.1252 34.3902C79.2782 33.2171 76.7862 30.281 75.4617 29.7679C69.614 27.5018 69.1143 27.1902 62.7045 30.9455C58.6086 33.3451 52.939 39.3687 49.0312 43.8251C38.3319 56.0281 27.0182 69.5555 15.3272 80.7312C10.6025 85.2477 5.34684 89.3592 1.93102 95.0177C0.909285 96.7116 0.221445 99.2927 1.81082 100.486Z" fill="#F06522"/>
<mask id="mask0_6196_8646" style="mask-type:luminance" maskUnits="userSpaceOnUse" x="0" y="28" width="82" height="73">
<path d="M1.81082 100.486C2.374 100.909 4.5644 102.799 24.062 91.2824C27.5569 89.2189 30.8569 86.8404 34.1614 84.4753C36.7681 82.6099 39.3146 80.6566 41.8601 78.7033C53.1515 70.0408 64.4686 61.356 74.7383 51.4225C77.0444 49.192 79.3461 46.828 80.645 43.8351C81.9439 40.8423 82.0518 37.0603 80.1252 34.3902C79.2782 33.2171 76.7862 30.281 75.4617 29.7679C69.614 27.5018 69.1143 27.1902 62.7045 30.9455C58.6086 33.3451 52.939 39.3687 49.0312 43.8251C38.3319 56.0281 27.0182 69.5555 15.3272 80.7312C10.6025 85.2477 5.34684 89.3592 1.93102 95.0177C0.909285 96.7116 0.221445 99.2927 1.81082 100.486Z" fill="white"/>
</mask>
<g mask="url(#mask0_6196_8646)">
<g opacity="0.23">
<path d="M-1.61025 106.972C6.85749 109.213 15.6213 102.95 22.8069 99.1876C32.5791 94.0711 41.5477 87.087 50.0811 80.1619C58.866 73.032 66.5959 64.7702 74.3034 56.5162C82.494 47.7457 91.6118 39.347 95.0276 27.4713C96.2207 23.3231 75.0959 20.3013 73.8604 24.2992C72.5126 28.6633 75.9774 32.0613 68.9487 39.6464C61.6374 47.5365 50.3938 56.5618 42.3446 63.7106C34.5335 70.648 28.9718 75.8246 21.262 82.8843C17.3698 86.4482 12.7642 90.1411 9.11581 93.9542C6.47576 96.7134 3.03655 99.5627 0.189481 98.9694C-1.71821 98.5699 -3.5057 106.47 -1.61025 106.972Z" fill="#D34A26"/>
</g>
</g>
<mask id="mask1_6196_8646" style="mask-type:luminance" maskUnits="userSpaceOnUse" x="0" y="28" width="82" height="73">
<path d="M1.81082 100.486C2.374 100.909 4.5644 102.799 24.062 91.2824C27.5569 89.2189 30.8569 86.8404 34.1614 84.4753C36.7681 82.6099 39.3146 80.6566 41.8601 78.7033C53.1515 70.0408 64.4686 61.356 74.7383 51.4225C77.0444 49.192 79.3461 46.828 80.645 43.8351C81.9439 40.8423 82.0518 37.0603 80.1252 34.3902C79.2782 33.2171 76.7862 30.281 75.4617 29.7679C69.614 27.5018 69.1143 27.1902 62.7045 30.9455C58.6086 33.3451 52.939 39.3687 49.0312 43.8251C38.3319 56.0281 27.0182 69.5555 15.3272 80.7312C10.6025 85.2477 5.34684 89.3592 1.93102 95.0177C0.909285 96.7116 0.221445 99.2927 1.81082 100.486Z" fill="white"/>
</mask>
<g mask="url(#mask1_6196_8646)">
<g opacity="0.23">
<path d="M2.21114 110.313C10.6789 112.554 19.4416 106.29 26.6282 102.528C36.4004 97.412 45.369 90.429 53.9024 83.5028C62.6874 76.3729 70.4172 68.1111 78.1248 59.857C86.3154 51.0866 95.4331 42.6879 98.8489 30.8121C100.042 26.664 76.787 23.552 77.6818 27.6401C78.7982 32.7432 79.7988 35.4022 72.769 42.9873C65.4577 50.8773 54.2141 59.9027 46.1648 67.0515C38.3538 73.9888 32.7921 79.1654 25.0823 86.2252C21.1901 89.789 11.6161 95.236 6.3059 99.5211C3.33418 101.92 1.9752 104.599 -0.871872 104.005C-2.77956 103.607 0.314579 109.811 2.21114 110.313Z" fill="#D34A26"/>
</g>
</g>
<mask id="mask2_6196_8646" style="mask-type:luminance" maskUnits="userSpaceOnUse" x="0" y="28" width="82" height="73">
<path d="M1.81082 100.486C2.374 100.909 4.5644 102.799 24.062 91.2824C27.5569 89.2189 30.8569 86.8404 34.1614 84.4753C36.7681 82.6099 39.3146 80.6566 41.8601 78.7033C53.1515 70.0408 64.4686 61.356 74.7383 51.4225C77.0444 49.192 79.3461 46.828 80.645 43.8351C81.9439 40.8423 82.0518 37.0603 80.1252 34.3902C79.2782 33.2171 76.7862 30.281 75.4617 29.7679C69.614 27.5018 69.1143 27.1902 62.7045 30.9455C58.6086 33.3451 52.939 39.3687 49.0312 43.8251C38.3319 56.0281 27.0182 69.5555 15.3272 80.7312C10.6025 85.2477 5.34684 89.3592 1.93102 95.0177C0.909285 96.7116 0.221445 99.2927 1.81082 100.486Z" fill="white"/>
</mask>
<g mask="url(#mask2_6196_8646)">
<g opacity="0.59">
<path d="M7.16767 111.444C15.6354 113.685 24.3981 107.422 31.5848 103.659C41.357 98.5428 50.3256 91.5587 58.859 84.6336C67.6439 77.5037 75.3737 69.2419 83.0813 60.9879C91.2719 52.2174 100.39 43.8187 103.805 31.943C104.999 27.7948 81.7435 24.6829 82.6383 28.7709C83.7547 33.8741 84.7553 36.533 77.7266 44.1181C70.4153 52.0071 59.1717 61.0335 51.1225 68.1823C43.3114 75.1197 37.7497 80.2963 30.0399 87.356C26.1477 90.9199 16.5737 96.3669 11.2635 100.652C8.2918 103.05 6.93281 105.729 4.08574 105.136C2.17694 104.737 5.27111 110.942 7.16767 111.444Z" fill="#D34A26"/>
</g>
</g>
<path d="M5.9048 95.0265C8.67841 93.1901 11.0202 90.8639 13.451 88.6079C16.1422 86.1103 18.9592 83.7184 20.9916 80.6299C21.734 79.5013 20.2737 78.2069 19.2353 79.0605C16.1211 81.6204 13.0859 84.2972 10.014 86.9105C7.64775 88.9228 5.27484 90.9886 4.59479 94.1295C4.41337 94.9586 5.20027 95.4929 5.9048 95.0265Z" fill="#F1832E"/>
<path d="M24.1789 77.8216C28.4049 76.9368 32.01 72.1019 34.7635 69.0623C39.1121 64.2597 42.9786 59.0286 47.2036 54.1169C51.2327 49.4345 55.7192 44.9202 60.3749 40.8588C63.3689 38.2466 67.4269 37.8782 70.6023 35.7813C73.8523 33.6343 71.4838 28.7226 68.1993 28.3943C64.4941 28.0248 60.9425 31.5163 58.3058 33.7579C54.0163 37.4041 50.606 42.0853 46.8407 46.2402C42.4633 51.0706 38.5633 56.2538 34.5142 61.3547C30.7423 66.1061 25.52 69.9538 22.4348 75.1382C21.6979 76.3736 22.6273 78.1466 24.1789 77.8216Z" fill="#F1832E"/>
<g opacity="0.36">
<path d="M37.3044 61.3916C40.295 59.8112 42.058 56.9875 44.0514 54.3241C46.7983 50.6545 50.321 47.6138 53.0812 43.9665C53.5053 43.4055 52.7818 42.4851 52.1508 42.8779C45.6753 46.9115 41.2778 54.8238 36.8325 60.8396C36.6132 61.1356 36.9761 61.5653 37.3044 61.3916Z" fill="#FDBE7B"/>
</g>
<g opacity="0.36">
<path d="M56.0555 41.2235C57.8875 40.352 59.4035 39.0031 61.0351 37.8155C62.8159 36.52 65.0119 35.8321 66.6714 34.4053C67.1733 33.9734 66.9407 32.974 66.2073 32.9795C62.2016 33.0118 57.4446 37.2022 55.3254 40.3698C55.0071 40.8462 55.5313 41.4728 56.0555 41.2235Z" fill="#FDBE7B"/>
</g>
<g opacity="0.36">
<path d="M16.7692 89.7514C17.5071 90.6875 18.215 91.6302 19.0631 92.4705C19.3046 92.7098 19.6608 92.4048 19.4627 92.1288C18.7648 91.1605 17.9434 90.3146 17.1343 89.4398C16.9228 89.2127 16.5766 89.5077 16.7692 89.7514Z" fill="#C55B2B"/>
</g>
<g opacity="0.36">
<path d="M12.1584 89.8387C12.3855 90.1036 12.6114 90.3685 12.8385 90.6334C12.8674 90.6668 12.9197 90.6222 12.8908 90.5889C12.6637 90.324 12.4378 90.0591 12.2107 89.7931C12.1818 89.7597 12.1306 89.8042 12.1584 89.8387Z" fill="#C55B2B"/>
</g>
<g opacity="0.36">
<path d="M9.13785 90.6304C9.40942 90.9476 9.6732 91.2749 9.96258 91.5776C10.065 91.6844 10.2253 91.5464 10.1362 91.4296C9.88245 91.0968 9.60086 90.7851 9.32928 90.4679C9.22355 90.3444 9.03323 90.5069 9.13785 90.6304Z" fill="#C55B2B"/>
</g>
<g opacity="0.36">
<path d="M10.8105 92.4698C10.8294 92.5454 10.8483 92.6211 10.8673 92.6968C10.8851 92.768 10.9975 92.748 10.9797 92.6768C10.9607 92.6011 10.9418 92.5254 10.9229 92.4497C10.9051 92.3785 10.7927 92.3985 10.8105 92.4698Z" fill="#C55B2B"/>
</g>
<g opacity="0.36">
<path d="M9.18382 93.8616C9.57671 94.555 10.0431 95.3553 10.6519 95.8762C10.7955 95.9986 11.0347 95.7938 10.9368 95.6324C10.5172 94.9446 9.83381 94.407 9.35522 93.7514C9.28732 93.658 9.12706 93.7615 9.18382 93.8616Z" fill="#C55B2B"/>
</g>
<g opacity="0.36">
<path d="M5.73427 95.0551C5.89566 95.2377 6.05704 95.4213 6.21843 95.6039C6.33529 95.7363 6.54007 95.5616 6.42654 95.4258C6.27072 95.2377 6.11492 95.0496 5.9591 94.8615C5.83778 94.7146 5.60739 94.9116 5.73427 95.0551Z" fill="#C55B2B"/>
</g>
<g opacity="0.36">
<path d="M3.35188 95.9449C3.57894 96.4691 3.75588 97.0223 4.24115 97.3573C4.3736 97.4485 4.58064 97.2927 4.49271 97.1425C4.22447 96.6861 3.88835 96.2754 3.6012 95.828C3.50659 95.6833 3.27954 95.7779 3.35188 95.9449Z" fill="#C55B2B"/>
</g>
<g opacity="0.36">
<path d="M19.9892 85.7611C20.0793 85.8668 20.1706 85.9737 20.2608 86.0794C20.2708 86.0917 20.2897 86.075 20.2797 86.0638C20.1884 85.9581 20.0982 85.8524 20.0081 85.7455C19.9981 85.7333 19.9792 85.75 19.9892 85.7611Z" fill="#C55B2B"/>
</g>
<g opacity="0.36">
<path d="M18.8449 83.9873C19.4915 84.8922 20.0937 85.9718 20.9863 86.654C21.1911 86.8099 21.4938 86.5516 21.3714 86.3246C20.8372 85.3362 19.8644 84.575 19.0708 83.7947C18.9339 83.6601 18.7336 83.8315 18.8449 83.9873Z" fill="#C55B2B"/>
</g>
<g opacity="0.36">
<path d="M20.5688 77.79C20.8727 77.9992 21.1353 78.2396 21.3857 78.5112C21.6306 78.7772 21.7965 79.0476 22.137 79.1923C22.3541 79.2847 22.639 79.0554 22.5722 78.8206C22.3652 78.1027 21.4425 77.6141 20.8025 77.3236C20.5243 77.1978 20.3295 77.6252 20.5688 77.79Z" fill="#C55B2B"/>
</g>
<g opacity="0.36">
<path d="M27.5048 84.9785C27.9522 85.5139 28.3996 86.0493 28.8471 86.5835C28.9228 86.6737 29.063 86.5535 28.9862 86.4644C28.5276 85.9391 28.068 85.4137 27.6094 84.8884C27.5515 84.8227 27.448 84.9107 27.5048 84.9785Z" fill="#C55B2B"/>
</g>
<g opacity="0.36">
<path d="M26.0081 77.6497C26.3609 78.3163 26.8328 78.7827 27.3904 79.2746C27.6353 79.4906 28.0371 79.1333 27.8757 78.8595C27.7121 78.5824 27.5529 78.3408 27.3114 78.126C27.0031 77.8511 26.6447 77.6396 26.3264 77.377C26.1595 77.2401 25.9112 77.466 26.0081 77.6497Z" fill="#C55B2B"/>
</g>
<g opacity="0.36">
<path d="M29.9041 72.3334C30.5207 72.871 30.9748 73.531 31.6393 74.0074C31.952 74.2322 32.336 73.8671 32.1924 73.5355C31.8307 72.7007 31.1005 72.1631 30.3526 71.6712C29.9096 71.3796 29.5256 72.004 29.9041 72.3334Z" fill="#C55B2B"/>
</g>
<g opacity="0.36">
<path d="M36.0136 77.9841C36.5701 78.6385 36.8518 79.4521 37.3982 80.1043C37.5574 80.2946 37.9291 80.1466 37.8568 79.8873C37.6186 79.0325 37.0298 78.2701 36.3965 77.6579C36.1672 77.4365 35.7999 77.7325 36.0136 77.9841Z" fill="#C55B2B"/>
</g>
<g opacity="0.36">
<path d="M37.5113 69.7302C37.9632 70.0608 38.3227 70.4514 38.6577 70.8966C38.9616 71.3018 39.1341 71.866 39.5604 72.1521C39.7541 72.2823 39.9978 72.1098 39.9666 71.8883C39.8932 71.363 39.399 70.9356 39.0484 70.5638C38.6466 70.1376 38.1814 69.7792 37.666 69.5031C37.5113 69.4219 37.3655 69.6245 37.5113 69.7302Z" fill="#C55B2B"/>
</g>
<g opacity="0.36">
<path d="M34.917 64.422C35.1819 64.5377 35.4335 64.669 35.6806 64.8193C35.8052 64.895 35.931 64.7136 35.8085 64.6301C35.5514 64.4542 35.2855 64.3018 35.0072 64.1626C34.8514 64.0847 34.7523 64.3496 34.917 64.422Z" fill="#C55B2B"/>
</g>
<g opacity="0.36">
<path d="M41.8237 65.033C42.3023 65.6897 42.7486 66.343 43.353 66.8918C43.5723 67.091 43.8628 66.8428 43.7003 66.5946C43.2528 65.9123 42.6763 65.3692 42.102 64.7949C41.935 64.629 41.6846 64.8427 41.8237 65.033Z" fill="#C55B2B"/>
</g>
<g opacity="0.36">
<path d="M43.0383 57.4872C43.3143 57.9658 43.538 58.3776 43.9843 58.7126C44.1368 58.8273 44.3583 58.638 44.2693 58.4689C44.0077 57.9747 43.636 57.6909 43.2053 57.3436C43.1196 57.2735 42.9827 57.3904 43.0383 57.4872Z" fill="#C55B2B"/>
</g>
<g opacity="0.36">
<path d="M46.4904 61.0455C47.1282 62.0116 47.7448 62.9921 48.5417 63.8347C48.83 64.1396 49.3019 63.8269 49.1505 63.4418C48.6964 62.2842 47.7214 61.5697 46.821 60.7639C46.6118 60.5758 46.3357 60.8095 46.4904 61.0455Z" fill="#C55B2B"/>
</g>
<g opacity="0.36">
<path d="M50.1717 71.4197C50.194 70.6251 49.9948 69.8226 49.5496 69.1659C49.3158 68.8209 48.8294 69.1403 48.8717 69.4876C48.9641 70.2377 49.534 70.8009 49.8234 71.4832C49.8946 71.649 50.1673 71.6023 50.1717 71.4197Z" fill="#C55B2B"/>
</g>
<g opacity="0.36">
<path d="M49.7337 54.2812C49.9707 54.6307 50.2512 54.9334 50.5439 55.2351C50.8556 55.5567 51.1272 55.9596 51.5189 56.1856C51.7638 56.3269 52.1778 56.1488 52.0832 55.8183C51.8294 54.9301 50.7465 54.5561 50.1321 53.9395C49.8906 53.6969 49.5456 54.0041 49.7337 54.2812Z" fill="#C55B2B"/>
</g>
<g opacity="0.36">
<path d="M56.1023 63.1499C55.9988 62.2884 55.6616 61.6262 55.1218 60.9617C54.8881 60.6746 54.3894 60.9862 54.5698 61.3179C54.9293 61.9779 55.4034 62.5934 55.7139 63.2745C55.8141 63.4938 56.1302 63.3747 56.1023 63.1499Z" fill="#C55B2B"/>
</g>
<g opacity="0.36">
<path d="M52.7601 46.6027C53.2921 47.3395 53.8675 48.0452 54.4051 48.7753C54.6077 49.0502 55.1219 48.8198 55.0229 48.4826C54.7223 47.4609 53.9544 46.9255 53.212 46.2165C52.936 45.9539 52.533 46.29 52.7601 46.6027Z" fill="#C55B2B"/>
</g>
<g opacity="0.36">
<path d="M60.4124 56.6338C60.1642 55.9894 60.0118 55.2314 59.5276 54.7194C59.2616 54.4379 58.7151 54.6393 58.8097 55.06C58.9811 55.8202 59.6133 56.3411 60.1776 56.8341C60.3078 56.9477 60.4625 56.7651 60.4124 56.6338Z" fill="#C55B2B"/>
</g>
<g opacity="0.36">
<path d="M59.9766 45.1134C61.0184 46.223 61.6996 47.5731 62.5989 48.7907C62.8115 49.0779 63.2533 48.7685 63.1131 48.4591C62.4587 47.0199 61.6439 45.7645 60.4808 44.6826C60.1759 44.3999 59.6783 44.7962 59.9766 45.1134Z" fill="#C55B2B"/>
</g>
<g opacity="0.36">
<path d="M64.2901 38.3965C64.723 38.7849 65.1471 39.1812 65.5867 39.5629C65.7748 39.7265 65.9796 39.4338 65.8583 39.2591C65.5166 38.766 65.0481 38.4399 64.5773 38.076C64.3847 37.9268 64.1076 38.2329 64.2901 38.3965Z" fill="#C55B2B"/>
</g>
<g opacity="0.36">
<path d="M69.726 45.5897C70.1746 46.1885 70.5808 46.9108 71.1329 47.415C71.3677 47.6287 71.8396 47.5029 71.7506 47.1223C71.5558 46.292 70.819 45.731 70.2469 45.1445C69.9386 44.8273 69.46 45.2346 69.726 45.5897Z" fill="#C55B2B"/>
</g>
<g opacity="0.36">
<path d="M69.3894 53.9803C69.1924 53.5228 69.0733 53.0365 68.6748 52.7115C68.4633 52.5389 68.1495 52.7749 68.1985 53.022C68.2875 53.4683 68.5491 53.8768 68.7683 54.2708C68.982 54.6548 69.5652 54.3888 69.3894 53.9803Z" fill="#C55B2B"/>
</g>
<g opacity="0.36">
<path d="M72.4085 36.6899C73.3468 37.5436 73.5571 38.7802 74.2973 39.7551C74.5399 40.0746 75.0742 39.8052 74.9951 39.4246C74.7358 38.1869 73.8966 36.8814 72.7558 36.3015C72.5176 36.1813 72.1692 36.4729 72.4085 36.6899Z" fill="#C55B2B"/>
</g>
<g opacity="0.6">
<path d="M16.5155 92.9964C16.8472 93.4794 17.0788 94.2095 17.6219 94.4867C17.8723 94.6147 18.1105 94.4099 18.0237 94.1427C17.8356 93.5629 17.15 93.2201 16.7237 92.8183C16.5946 92.697 16.4154 92.8506 16.5155 92.9964Z" fill="#C55B2B"/>
</g>
<g opacity="0.6">
<path d="M21.4085 82.1868C21.7291 82.72 22.0073 83.577 22.6117 83.8263C22.782 83.8964 22.9845 83.7228 22.9411 83.5447C22.7886 82.9092 21.985 82.5007 21.5087 82.1011C21.4575 82.0577 21.374 82.1301 21.4085 82.1868Z" fill="#C55B2B"/>
</g>
<path d="M11.7916 90.0155C12.318 90.6644 12.8233 91.3378 13.3888 91.9544C13.4388 92.0089 13.5212 91.9377 13.4756 91.8798C12.9558 91.2265 12.3681 90.621 11.8094 90.0011C11.7994 89.9899 11.7827 90.0044 11.7916 90.0155Z" fill="#FFB97E"/>
<path d="M14.7155 88.3598C14.5141 88.0248 14.346 87.6765 14.1579 87.3348C14.1078 87.2446 13.9731 87.3069 14.0132 87.4027C14.1635 87.7666 14.4094 88.0916 14.6398 88.4088C14.6687 88.45 14.7422 88.4033 14.7155 88.3598Z" fill="#FFB97E"/>
<path d="M25.1386 83.286C25.8687 84.2499 26.3929 85.3239 27.054 86.329C27.1408 86.4603 27.349 86.3179 27.2822 86.1821C26.7558 85.1036 25.9967 84.1275 25.1909 83.2426C25.1608 83.2092 25.1119 83.2515 25.1386 83.286Z" fill="#F99E32"/>
<path d="M28.5792 74.4284C29.0979 75.173 29.5498 75.9521 29.9794 76.7501C30.0862 76.9483 30.3611 76.8102 30.2899 76.6043C29.9694 75.6805 29.3216 75.055 28.6315 74.3828C28.6004 74.3527 28.5547 74.3917 28.5792 74.4284Z" fill="#F99E32"/>
<path d="M32.4364 68.2398C32.6033 68.4635 32.7569 68.7028 32.9628 68.8909C33.0719 68.9911 33.2177 68.8665 33.1365 68.7429C32.9818 68.5103 32.7703 68.3211 32.5755 68.1219C32.4931 68.0362 32.3663 68.1452 32.4364 68.2398Z" fill="#F99E32"/>
<path d="M37.8258 74.5079C38.2899 75.1334 38.6794 75.7935 39.1013 76.4457C39.2003 76.5993 39.3951 76.429 39.3483 76.2865C39.099 75.5263 38.4724 74.9821 37.9292 74.42C37.868 74.3555 37.7734 74.4367 37.8258 74.5079Z" fill="#F99E32"/>
<path d="M40.4024 66.6648C40.4736 66.7416 40.5438 66.8184 40.615 66.8963C40.625 66.9075 40.6417 66.893 40.6328 66.8819C40.5671 66.7995 40.5026 66.7183 40.438 66.6359C40.418 66.6114 40.3824 66.6426 40.4024 66.6648Z" fill="#F99E32"/>
<path d="M39.933 64.3099C40.4728 64.9799 40.82 65.6934 41.2385 66.4335C41.3353 66.6049 41.637 66.5359 41.5835 66.3233C41.3743 65.4841 40.6787 64.7751 40.0888 64.1763C39.9964 64.0817 39.8495 64.2053 39.933 64.3099Z" fill="#F99E32"/>
<path d="M42.0301 59.3537C42.1069 59.426 42.1837 59.4983 42.2605 59.5696C42.325 59.6308 42.4141 59.554 42.3651 59.4805C42.3061 59.3937 42.246 59.3069 42.187 59.2201C42.1113 59.1099 41.9333 59.2624 42.0301 59.3537Z" fill="#F99E32"/>
<path d="M49.2992 61.6707C50.7428 63.5806 51.6243 65.7243 52.5704 67.9024C52.6539 68.095 52.9265 67.957 52.8598 67.7666C52.0873 65.5417 50.8664 63.4282 49.385 61.5973C49.3393 61.5394 49.2558 61.6128 49.2992 61.6707Z" fill="#F99E32"/>
<path d="M17.3125 88.4622C16.4343 87.338 15.6508 86.2506 14.3486 85.5917C14.2339 85.5338 14.1182 85.6897 14.2328 85.762C15.3848 86.4844 16.2941 87.5595 17.2079 88.5512C17.268 88.6169 17.367 88.5323 17.3125 88.4622Z" fill="#F99E32"/>
<path d="M54.7479 47.108C55.5827 48.2021 56.1681 49.4497 57.0474 50.5104C57.1932 50.6852 57.5082 50.4937 57.3902 50.29C56.6924 49.0869 55.8298 48.0073 54.8347 47.0345C54.7824 46.9822 54.7023 47.049 54.7479 47.108Z" fill="#F99E32"/>
<path d="M63.0459 44.4174C63.3531 44.758 63.5423 45.1843 63.8506 45.5193C63.9697 45.6484 64.2034 45.5126 64.1166 45.3479C63.9018 44.9383 63.6113 44.5421 63.2896 44.2104C63.146 44.0635 62.9068 44.2639 63.0459 44.4174Z" fill="#F99E32"/>
<path d="M66.4635 51.7983C66.5949 52.1033 66.7073 52.3849 66.8854 52.6642C66.9477 52.7622 67.0924 52.6987 67.0512 52.5863C66.931 52.2647 66.7596 52.0165 66.5593 51.736C66.5192 51.6826 66.4391 51.7404 66.4635 51.7983Z" fill="#F99E32"/>
<path d="M10.2585 97.244C9.78663 96.5918 9.32808 95.9307 8.83502 95.2952C8.71593 95.1416 8.46218 95.3074 8.54899 95.4788C8.92741 96.2245 9.53397 96.7799 10.1183 97.362C10.2029 97.4466 10.3276 97.3397 10.2585 97.244Z" fill="#F99E32"/>
<path d="M32.0442 71.7816C33.3854 72.7621 34.2102 74.1456 35.0293 75.5569C35.1317 75.7327 35.4044 75.6114 35.3187 75.4211C34.6476 73.9319 33.5201 72.5172 32.1711 71.5923C32.0498 71.5089 31.9251 71.6947 32.0442 71.7816Z" fill="#F1832E"/>
<path d="M14.9082 85.3602C16.5744 86.5689 18.2361 87.9434 19.2545 89.7676C19.3692 89.9724 19.6786 89.8311 19.5851 89.6129C18.7192 87.5906 16.9005 86.2372 15.1375 85.0207C14.9205 84.8693 14.6945 85.2054 14.9082 85.3602Z" fill="#F1832E"/>
<path d="M45.6529 62.8612C46.9551 64.4306 47.8043 66.2236 48.8739 67.9399C48.9875 68.1224 49.2835 67.9977 49.1845 67.7941C48.3041 65.9921 47.0564 64.2903 45.6707 62.8468C45.6607 62.8356 45.644 62.8501 45.6529 62.8612Z" fill="#F1832E"/>
<path d="M52.982 50.764C54.952 52.2788 56.2019 54.3423 57.6655 56.3078C58.8876 57.9495 59.4987 60.0041 61.0658 61.3508C61.3017 61.5545 61.6089 61.2262 61.501 60.9791C59.768 56.9968 56.6572 53.0846 53.11 50.5748C52.9887 50.4891 52.8663 50.6749 52.982 50.764Z" fill="#F1832E"/>
<path d="M55.7717 50.725C56.4206 51.69 57.0272 52.7128 57.8898 53.5019C58.1302 53.7223 58.4518 53.4474 58.2715 53.1758C57.626 52.2009 56.7099 51.4429 55.8574 50.6516C55.8051 50.6004 55.7305 50.6638 55.7717 50.725Z" fill="#F1832E"/>
<path d="M71.9603 50.7399C71.8178 50.4005 71.7611 50.1011 71.4672 49.864C71.2958 49.7249 70.9808 49.8707 70.9864 50.0955C70.9986 50.544 71.268 50.7722 71.5908 51.0549C71.7922 51.2308 72.0471 50.9481 71.9603 50.7399Z" fill="#F1832E"/>
<path d="M65.9044 42.4321C66.1236 42.6736 66.3362 42.9207 66.5733 43.1444C66.7347 43.2969 66.9595 43.1043 66.8337 42.9218C66.649 42.6525 66.4386 42.4043 66.2338 42.1494C66.0591 41.9312 65.7163 42.224 65.9044 42.4321Z" fill="#F1832E"/>
<path d="M69.2749 38.4947C69.7846 38.8498 70.0996 39.3361 70.5337 39.7602C70.6272 39.8526 70.8231 39.7546 70.7429 39.6255C70.4146 39.0935 69.936 38.6283 69.4151 38.2866C69.2804 38.1975 69.1413 38.4023 69.2749 38.4947Z" fill="#F1832E"/>
<path d="M70.7978 43.0233C71.1306 43.4117 71.4623 43.8013 71.795 44.1897C71.8718 44.2798 72.011 44.1608 71.9342 44.0706C71.6014 43.6822 71.2697 43.2926 70.9369 42.9042C70.8601 42.814 70.721 42.9331 70.7978 43.0233Z" fill="#F1832E"/>
<path d="M63.2806 53.1177C63.4731 53.3202 63.6657 53.5217 63.8594 53.7243C64.0219 53.8946 64.2801 53.6742 64.1376 53.4872C63.9673 53.2657 63.7981 53.0431 63.629 52.8216C63.4475 52.5857 63.0758 52.904 63.2806 53.1177Z" fill="#F1832E"/>
<path d="M44.723 73.564C44.7108 72.8595 44.5294 72.3631 43.9851 71.9112C43.8003 71.7587 43.5265 72.0092 43.6334 72.2117C43.8782 72.6759 44.1877 73.1311 44.3535 73.6308C44.4136 73.8144 44.7252 73.7532 44.723 73.564Z" fill="#F1832E"/>
<path d="M89.8852 15.855C93.2353 11.4608 97.0774 7.13347 101.624 3.96586C102.225 3.54738 101.563 2.78942 100.986 2.97641C98.6713 3.72323 97.0819 5.83459 95.5203 7.60872C93.3077 10.123 90.8991 12.487 89.3176 15.4721C89.1128 15.855 89.6125 16.2122 89.8852 15.855Z" fill="#BACE45"/>
<path d="M88.9629 23.7723C92.5033 19.997 96.7328 17.5283 100.836 14.4765C101.264 14.1593 100.797 13.6128 100.37 13.753C95.7488 15.2689 91.2612 19.4483 88.5065 23.3649C88.3106 23.6432 88.7202 24.0294 88.9629 23.7723Z" fill="#BACE45"/>
<path d="M79.8482 25.9882C81.2272 24.667 82.387 23.1678 83.3998 21.5528C83.4933 21.4037 83.2707 21.2512 83.1727 21.3992C82.1321 22.9641 81.0725 24.5401 79.7892 25.9191C79.7491 25.9603 79.8048 26.0293 79.8482 25.9882Z" fill="#BACE45"/>
<path d="M95.9651 20.8659C98.1644 19.774 100.327 18.6833 102.741 18.1413C102.985 18.0867 102.919 17.715 102.672 17.7584C100.186 18.2014 98.0876 19.5492 95.9362 20.8025C95.8984 20.8258 95.9251 20.8859 95.9651 20.8659Z" fill="#BACE45"/>
<path d="M79.9578 33.4101C81.5817 32.621 82.9886 31.6271 84.2674 30.3549C84.5201 30.1034 84.1995 29.7372 83.9112 29.9376C82.4732 30.9393 81.2411 32.178 79.8343 33.2198C79.7297 33.2977 79.8432 33.4647 79.9578 33.4101Z" fill="#BACE45"/>
<path d="M92.0606 55.4291C92.2353 54.9572 90.5569 48.9203 90.0349 49.3165C89.5129 49.7128 85.7699 51.1329 85.6141 52.3127C85.4571 53.4936 92.0606 55.4291 92.0606 55.4291Z" fill="#C94F08"/>
<path d="M92.0992 55.2548C91.9979 56.3968 70.0383 88.1663 67.9537 88.8898C65.869 89.6132 61.486 85.8735 62.6903 85.6387C63.8945 85.4038 85.0506 52.8585 85.8464 51.8669C86.6422 50.8752 92.0992 55.2548 92.0992 55.2548Z" fill="#DE6926"/>
<mask id="mask3_6196_8646" style="mask-type:luminance" maskUnits="userSpaceOnUse" x="62" y="51" width="31" height="38">
<path d="M92.0998 55.2548C91.9985 56.3968 70.0389 88.1663 67.9542 88.8898C65.8696 89.6132 61.8728 86.5536 62.6908 85.6387C63.9263 84.2552 85.0511 52.8585 85.8469 51.8669C86.6427 50.8752 92.0998 55.2548 92.0998 55.2548Z" fill="white"/>
</mask>
<g mask="url(#mask3_6196_8646)">
<g opacity="0.15">
<path d="M86.8564 48.8421C86.813 49.4364 84.8641 50.6874 84.4367 51.176C83.1223 52.6786 82.017 54.3614 80.8417 55.9708C78.2451 59.5246 75.5772 63.0128 72.9405 66.5354C70.3093 70.0503 67.6993 73.5785 65.1628 77.1624C62.7131 80.6216 60.014 83.945 57.9717 87.6669C56.7218 89.9441 60.2199 91.8551 61.7804 89.9597C64.7365 86.368 67.5647 82.802 70.2615 79.0011C72.965 75.1935 75.7386 71.4137 78.6124 67.733C81.5284 63.9967 84.0449 60.001 86.5592 55.9853C87.7156 54.1377 89.8459 50.93 88.7942 48.6306C88.4046 47.7847 86.9354 47.7602 86.8564 48.8421Z" fill="#DE6926"/>
</g>
</g>
<mask id="mask4_6196_8646" style="mask-type:luminance" maskUnits="userSpaceOnUse" x="62" y="51" width="31" height="38">
<path d="M92.0998 55.2548C91.9985 56.3968 70.0389 88.1663 67.9542 88.8898C65.8696 89.6132 61.8728 86.5536 62.6908 85.6387C63.9263 84.2552 85.0511 52.8585 85.8469 51.8669C86.6427 50.8752 92.0998 55.2548 92.0998 55.2548Z" fill="white"/>
</mask>
<g mask="url(#mask4_6196_8646)">
<g opacity="0.4">
<path d="M92.7718 51.1046C90.577 54.5894 87.6954 57.6068 85.3848 61.0326C82.8639 64.7701 80.3162 68.4997 77.6884 72.1626C75.1975 75.6352 65.7224 88.5037 64.1787 90.0397C62.6494 91.5611 62.0273 90.0207 62.5437 92.3681C62.7006 93.0826 63.1993 93.8962 64.0407 93.924C65.9506 93.9853 67.0703 93.2206 68.3525 91.8327C70.0431 90.0029 71.7605 88.2021 73.3699 86.3C76.3283 82.8018 79.0329 79.0955 81.6218 75.318C84.1761 71.5906 86.5958 67.7629 89.0355 63.9609C90.1028 62.297 91.148 60.5885 92.0161 58.8111C93.0468 56.6997 93.5943 54.2889 94.4079 52.0874C94.7608 51.1247 93.3773 50.1419 92.7718 51.1046Z" fill="#DE6926"/>
</g>
</g>
<g opacity="0.11">
<path d="M88.2795 54.4075C86.5165 55.6674 85.468 57.3781 84.237 59.1289C82.8925 61.0388 81.4289 62.8574 80.0355 64.7306C78.7644 66.4413 77.5846 68.231 76.4894 70.0585C75.6758 71.4153 74.5773 72.5951 75.0325 74.2334C75.1049 74.495 75.392 74.692 75.648 74.7276C77.1516 74.9379 77.9341 73.9318 78.6609 72.7275C79.8919 70.6863 81.1763 68.6996 82.5586 66.7574C85.0562 63.2514 88.8772 59.5262 89.3357 55.0508C89.3936 54.4798 88.767 54.058 88.2795 54.4075Z" fill="white"/>
</g>
<g opacity="0.11">
<path d="M86.7599 57.6892C85.5679 58.6753 84.7688 59.8862 83.8539 61.1406C82.8555 62.5096 81.7926 63.8307 80.7686 65.1808C79.8337 66.4129 78.9466 67.6884 78.1074 68.9806C77.4841 69.94 76.7039 70.8104 76.8275 71.8332C76.8475 71.9957 77.0033 72.0981 77.1558 72.097C78.0518 72.0925 78.6228 71.3635 79.1781 70.5121C80.1197 69.0685 81.0881 67.655 82.1131 66.2615C83.9641 63.745 86.6408 60.9625 87.3409 58.0075C87.4322 57.6313 87.0905 57.4165 86.7599 57.6892Z" fill="white"/>
</g>
<g opacity="0.05">
<path d="M73.5874 75.5135C71.8589 76.4396 70.7069 77.9377 69.3969 79.3701C68.1726 80.7079 66.7647 82.4654 67.1854 84.3942C67.2967 84.9051 67.832 85.4115 68.3941 85.1321C71.4827 83.6017 73.5662 79.3022 74.3409 76.1179C74.4332 75.7361 73.948 75.321 73.5874 75.5135Z" fill="white"/>
</g>
<path d="M90.2911 53.2768C90.5905 52.7893 90.0562 45.6828 89.3862 46.0089C88.7162 46.335 84.2263 47.0897 83.7911 48.3707C83.356 49.654 90.2911 53.2768 90.2911 53.2768Z" fill="#D8600E"/>
<path d="M90.3734 53.0919C90.0072 54.3441 58.468 84.9104 55.9815 85.2555C53.4951 85.6005 49.4359 80.4562 50.8316 80.4618C52.2273 80.4673 83.042 48.8559 84.1494 47.9265C85.2591 46.9971 90.3734 53.0919 90.3734 53.0919Z" fill="#ED7B2E"/>
<mask id="mask5_6196_8646" style="mask-type:luminance" maskUnits="userSpaceOnUse" x="50" y="47" width="41" height="39">
<path d="M90.3734 53.0919C90.0072 54.3441 58.468 84.9104 55.9815 85.2555C53.4951 85.6005 49.4359 80.4562 50.8316 80.4618C52.2273 80.4673 83.042 48.8559 84.1494 47.9265C85.2591 46.9971 90.3734 53.0919 90.3734 53.0919Z" fill="white"/>
</mask>
<g mask="url(#mask5_6196_8646)">
<g opacity="0.15">
<path d="M85.9455 44.7759C85.7652 45.4293 83.3132 46.392 82.7289 46.8417C80.9303 48.2251 79.3242 49.8579 77.6558 51.3927C73.9707 54.7807 70.2221 58.0796 66.4991 61.4242C62.785 64.761 59.092 68.1178 55.4669 71.5525C51.9677 74.8682 48.2191 77.9757 45.116 81.6753C43.2172 83.9391 46.6953 86.8463 48.8557 85.0766C52.9493 81.7254 56.8949 78.3752 60.7471 74.7346C64.607 71.0862 68.5381 67.4867 72.5605 64.0175C76.6419 60.4971 80.3337 56.5982 84.0289 52.676C85.7285 50.8719 88.8148 47.7666 88.1526 44.9674C87.9077 43.9401 86.2749 43.5872 85.9455 44.7759Z" fill="#ED7B2E"/>
</g>
</g>
<mask id="mask6_6196_8646" style="mask-type:luminance" maskUnits="userSpaceOnUse" x="50" y="47" width="41" height="39">
<path d="M90.3734 53.0919C90.0072 54.3441 58.468 84.9104 55.9815 85.2555C53.4951 85.6005 49.4359 80.4562 50.8316 80.4618C52.2273 80.4673 83.042 48.8559 84.1494 47.9265C85.2591 46.9971 90.3734 53.0919 90.3734 53.0919Z" fill="white"/>
</mask>
<g mask="url(#mask6_6196_8646)">
<g opacity="0.4">
<path d="M92.0397 48.6113C88.8186 52.0126 84.9354 54.7384 81.5986 58.0473C77.958 61.6579 74.2884 65.2518 70.5453 68.7555C66.9971 72.0767 53.5742 84.3298 51.5118 85.6999C49.4683 87.0577 49.1166 85.2013 49.1712 87.9337C49.1879 88.7662 49.5629 89.7835 50.4956 90.0005C52.6126 90.4925 54.0317 89.887 55.7691 88.6237C58.0596 86.9587 60.3758 85.3304 62.5918 83.5651C66.6665 80.3196 70.5064 76.7847 74.2305 73.1463C77.9056 69.5558 81.4539 65.8228 85.0189 62.122C86.5793 60.5026 88.123 58.8287 89.4853 57.039C91.1037 54.9131 92.2478 52.3454 93.6435 50.0693C94.2546 49.0743 92.929 47.673 92.0397 48.6113Z" fill="#ED7B2E"/>
</g>
</g>
<g opacity="0.11">
<path d="M86.3006 51.2992C84.0557 52.3142 82.5064 53.9893 80.7445 55.6688C78.8212 57.5019 76.7844 59.2048 74.8155 60.9856C73.018 62.6117 71.3051 64.3469 69.679 66.1422C68.4714 67.4744 66.9833 68.5473 67.1291 70.4762C67.1524 70.7834 67.4285 71.0672 67.7067 71.164C69.3373 71.7328 70.4336 70.7834 71.511 69.6003C73.3363 67.5968 75.2095 65.6647 77.1829 63.806C80.7467 60.4491 85.8343 57.1413 87.3379 52.2508C87.5283 51.6275 86.9228 51.0176 86.3006 51.2992Z" fill="white"/>
</g>
<g opacity="0.11">
<path d="M83.8773 54.6234C82.3291 55.4582 81.1682 56.6335 79.8704 57.83C78.4536 59.1367 76.9744 60.3732 75.533 61.652C74.2164 62.8196 72.9453 64.045 71.7232 65.3005C70.8161 66.232 69.7521 67.0312 69.6631 68.1987C69.6486 68.3846 69.7999 68.5326 69.9713 68.566C70.9719 68.7597 71.77 68.0741 72.5791 67.246C73.9492 65.8447 75.3438 64.4824 76.7963 63.1557C79.4186 60.7594 83.0214 58.2496 84.4582 55.1076C84.6397 54.708 84.3069 54.3919 83.8773 54.6234Z" fill="white"/>
</g>
<g opacity="0.05">
<path d="M65.2297 71.5849C63.0961 72.2349 61.4789 73.6495 59.7003 74.9562C58.0386 76.1771 56.0786 77.8244 56.1198 80.0693C56.1309 80.6647 56.6151 81.347 57.3051 81.1611C61.0894 80.1383 64.3671 75.8043 65.9365 72.4252C66.1246 72.0201 65.6738 71.4491 65.2297 71.5849Z" fill="white"/>
</g>
</svg>
