<svg width="82" height="101" viewBox="0 0 82 101" fill="none" xmlns="http://www.w3.org/2000/svg">
<g clip-path="url(#clip0_6204_75143)">
<path d="M78.5202 65.8546C68.3693 69.2371 54.8811 71.1001 40.5402 71.1001C35.6881 71.1001 30.9341 70.886 26.373 70.4726C26.7635 72.15 27.276 73.8041 27.9007 75.4193H27.9085V75.4219C31.9951 75.7505 36.2277 75.9207 40.5396 75.9207C54.7939 75.9207 68.1899 74.0725 78.2594 70.7172C78.7654 70.5483 79.2566 70.3769 79.7393 70.2029C79.6535 70.5289 79.5638 70.8537 79.4702 71.1765C80.1285 68.9085 80.5951 66.5584 80.8507 64.1455C80.8178 64.4534 80.7829 64.76 80.7436 65.066C80.0272 65.3351 79.2882 65.5984 78.5195 65.8546H78.5202Z" fill="#C15717"/>
<path d="M40.541 76.747C36.3484 76.747 32.2295 76.5866 28.2441 76.2768C30.1519 80.8741 32.9704 85.128 36.4653 88.6736C37.0623 86.863 38.3072 84.8175 40.5268 82.5431V82.6065L40.541 82.5644C42.7734 84.8518 44.0229 86.9089 44.6154 88.7273C46.3199 87.8533 48.6614 87.277 51.8723 87.2414L51.8277 87.286L51.8678 87.266C51.8329 90.4654 51.2649 92.8059 50.4008 94.5117C51.9252 95.0053 53.6194 95.9717 55.4762 97.5889C67.0231 92.9999 75.967 83.2501 79.4715 71.1768C79.1592 71.2861 78.8429 71.3941 78.5215 71.5015C68.3707 74.884 54.8824 76.747 40.5416 76.747H40.541Z" fill="#C15717"/>
<path d="M76.8676 41.7667L76.8701 41.7647C75.3567 38.7082 73.4727 35.8678 71.2732 33.3074C66.1862 27.3865 63.0102 20.0903 62.3254 12.373C56.8879 13.738 49.1405 14.5912 40.5399 14.5912C38.3255 14.5912 36.1686 14.5343 34.0923 14.4269C34.4983 17.8961 34.7713 21.3615 34.6641 24.8921C34.5105 29.9566 33.9645 35.2467 32.3665 40.0764C31.6785 42.1561 30.8008 44.1595 29.9062 46.157C33.3695 46.3893 36.9256 46.5122 40.5405 46.5122C54.1482 46.5122 66.9665 44.8245 76.8618 41.7524L76.8682 41.766L76.8676 41.7667ZM40.6748 44.2384C40.6296 44.2397 40.5838 44.2403 40.5379 44.2403C37.7898 44.2403 35.518 42.0377 35.4451 39.2678C35.376 36.646 37.2245 28.6964 40.2617 28.6156C43.2951 28.5328 45.565 36.3756 45.634 38.9974C45.7082 41.8126 43.4835 44.164 40.6748 44.239V44.2384ZM56.0495 40.242C55.4473 41.0881 54.5522 41.6476 53.5299 41.8191C53.3136 41.8553 53.0974 41.8734 52.8825 41.8734C52.0809 41.8734 51.3013 41.6243 50.6359 41.1489C49.7917 40.5454 49.2334 39.6481 49.0624 38.6235C48.8817 37.538 48.9959 35.5527 49.3341 33.9032C49.6568 32.3287 50.3106 30.4074 51.593 30.1927C53.8758 29.811 56.3954 35.4007 56.7188 37.3426C56.8892 38.3673 56.6517 39.3971 56.0495 40.2433V40.242ZM67.2595 38.4158C66.8697 39.218 66.1907 39.8196 65.3491 40.11C64.9935 40.2329 64.6269 40.2937 64.2609 40.2937C63.7614 40.2937 63.2651 40.1799 62.803 39.9541C62.0027 39.5627 61.4025 38.8829 61.1127 38.0393C60.8093 37.1563 60.6267 35.4822 60.6783 34.0584C60.728 32.6857 61.012 30.9722 62.0821 30.6028C63.1502 30.2341 64.4281 31.4082 65.311 32.4593C66.2268 33.5493 67.1117 34.9815 67.4144 35.8639C67.7042 36.7074 67.6493 37.6137 67.2588 38.4158H67.2595Z" fill="#C15717"/>
<path d="M79.6374 62.2542L79.6303 62.2341V62.2645C78.5428 61.1506 77.9381 60.1499 77.6535 59.2656C76.8293 59.6847 75.6992 59.9603 74.1528 59.9778L74.1625 59.9584L74.1412 59.9797C74.158 58.4214 74.4368 57.2848 74.8589 56.4581C73.9805 56.1702 72.9866 55.5641 71.8816 54.4806L71.9016 54.4735H71.8713C72.9827 53.3835 73.9811 52.7773 74.8634 52.4921C74.4452 51.666 74.1702 50.5327 74.1528 48.9834L74.1722 48.9931L74.1502 48.9711C75.705 48.9886 76.839 49.2674 77.6644 49.6904C77.9006 48.9659 78.3569 48.1625 79.1108 47.284C78.5809 45.6423 77.9478 44.0477 77.223 42.5049C67.2328 45.6241 54.2822 47.339 40.5397 47.339C36.8009 47.339 33.124 47.2077 29.5459 46.9599C28.7217 48.7964 27.9021 50.6355 27.2218 52.5309C25.2327 58.0734 25.0126 63.9645 26.1853 69.6208H26.1918L26.1931 69.6266C30.8057 70.0529 35.6217 70.2729 40.5403 70.2729C54.7947 70.2729 68.1906 68.4247 78.2601 65.0694C79.1611 64.7692 80.024 64.46 80.8508 64.1437C80.9805 62.9204 81.0541 61.681 81.0728 60.4287C80.7346 60.9992 80.2693 61.6073 79.6381 62.2542H79.6374ZM47.0247 58.8192C45.9197 59.9027 44.9258 60.5089 44.0474 60.7967C44.4695 61.6241 44.7483 62.7607 44.7651 64.319L44.7432 64.297L44.7529 64.3164C43.2071 64.2996 42.0764 64.024 41.2522 63.6042C40.9676 64.4885 40.3622 65.4892 39.2753 66.6031V66.5727L39.2682 66.5934C38.1872 65.486 37.5825 64.4898 37.2953 63.6094C36.4698 64.0324 35.3358 64.3119 33.781 64.3287L33.803 64.3074L33.7836 64.3171C33.8004 62.7678 34.076 61.6344 34.4942 60.8084C33.6119 60.5231 32.6135 59.9163 31.5021 58.827H31.5325L31.5118 58.8199C32.6167 57.7363 33.6107 57.1302 34.4891 56.8423C34.067 56.015 33.7881 54.8784 33.7714 53.3201L33.7933 53.3414L33.7836 53.322C35.3294 53.3388 36.4601 53.6144 37.2843 54.0342C37.5689 53.15 38.1743 52.1492 39.2611 51.0353V51.0657L39.2682 51.045C40.3493 52.1525 40.954 53.1487 41.2412 54.0291C42.0667 53.606 43.2007 53.3266 44.7554 53.3097L44.7335 53.3317L44.7529 53.322C44.7361 54.8713 44.4605 56.0046 44.0423 56.8307C44.9245 57.1166 45.923 57.7228 47.0344 58.8121H47.004L47.0247 58.8192ZM64.4466 61.4992L64.4344 61.4928L64.4486 61.507C63.4372 61.496 62.6995 61.3142 62.1625 61.0387C61.976 61.6112 61.5823 62.2593 60.8788 62.98L60.8743 62.9664V62.9864C60.167 62.2619 59.7733 61.6105 59.588 61.0354C59.0517 61.3084 58.3166 61.4876 57.3111 61.4986L57.3175 61.4863L57.3033 61.5005C57.3143 60.4869 57.4957 59.7475 57.7706 59.2093C57.1988 59.0223 56.5527 58.6277 55.8337 57.9226L55.8473 57.9181H55.8273C56.5501 57.2091 57.2001 56.8145 57.7738 56.6289C57.5015 56.0913 57.3227 55.3545 57.3117 54.3467L57.324 54.3532L57.3098 54.3389C58.3211 54.3499 59.0588 54.5317 59.5958 54.8073C59.7823 54.2341 60.176 53.5866 60.8795 52.866L60.884 52.8796V52.8595C61.5914 53.584 61.9851 54.2354 62.1703 54.8105C62.7066 54.5375 63.4417 54.3583 64.4473 54.3473L64.4408 54.3596L64.455 54.3454C64.444 55.3591 64.2627 56.0984 63.9877 56.6366C64.5596 56.8236 65.2056 57.2182 65.9246 57.9233L65.9117 57.9278H65.9317C65.2088 58.6368 64.5589 59.0314 63.9852 59.217C64.2575 59.7546 64.4363 60.4914 64.4473 61.4992H64.4466Z" fill="#C15717"/>
<path d="M64.0994 37.1232C64.1349 37.1232 64.1716 37.1167 64.2078 37.1038C64.293 37.074 64.3614 37.0138 64.4008 36.933C64.4401 36.8521 64.4459 36.7609 64.4169 36.6762C64.2781 36.2725 63.9264 35.6412 63.4746 34.9658C63.5333 35.777 63.6437 36.4918 63.7825 36.8948C63.8444 37.0747 64.0109 37.1225 64.1 37.1225L64.0994 37.1232Z" fill="#C15717"/>
<path d="M40.535 40.6767H40.5853C41.4295 40.6534 42.102 39.9431 42.0794 39.0918C42.0407 37.6169 41.1926 34.9744 40.3859 33.3242C39.6676 35.0152 38.9608 37.6991 38.9996 39.174C39.0222 40.0162 39.696 40.6754 40.5343 40.6773L40.535 40.6767Z" fill="#C15717"/>
<path d="M65.0818 39.3286C66.3894 38.8771 67.087 37.4436 66.6365 36.133C66.4068 35.4648 65.6439 34.1368 64.6816 32.9918C63.6658 31.7828 62.9223 31.3604 62.5066 31.3604C62.4485 31.3604 62.3969 31.3688 62.3517 31.3843C61.2462 31.7659 61.3384 36.155 61.8935 37.7703C62.344 39.0809 63.7742 39.7802 65.0818 39.3286ZM62.8822 33.2402C63.0481 33.1826 63.2321 33.237 63.3405 33.3754C64.0633 34.2972 64.9178 35.5922 65.1973 36.4073C65.2986 36.7004 65.2793 37.016 65.1431 37.2955C65.0069 37.5749 64.7713 37.7845 64.4783 37.8854C64.3551 37.9281 64.2279 37.9501 64.1001 37.9501C63.6883 37.9501 63.1895 37.7069 63.0029 37.1648C62.7235 36.351 62.6008 34.803 62.6034 33.6303C62.6034 33.4543 62.7151 33.2978 62.8816 33.2408L62.8822 33.2402Z" fill="#C15717"/>
<path d="M51.1166 40.4748C51.7814 40.9503 52.5907 41.1379 53.3955 41.0034C54.201 40.8688 54.9058 40.4276 55.3795 39.762C55.8539 39.0957 56.041 38.2845 55.9068 37.4779C55.7674 36.6434 55.1304 34.9253 54.2229 33.3857C53.3329 31.8759 52.45 30.998 51.8311 30.998C51.7962 30.998 51.7627 31.0006 51.7298 31.0065C51.1082 31.1106 50.5145 32.2549 50.1434 34.0681C49.7845 35.8199 49.7381 37.6519 49.8775 38.4863C50.0117 39.2936 50.4519 40 51.1166 40.4755V40.4748ZM51.7891 33.6438C51.8311 33.4872 51.9602 33.3695 52.1196 33.343C52.2777 33.3158 52.4391 33.3857 52.5294 33.5202C53.3691 34.7719 54.25 36.7372 54.4146 37.7269C54.5547 38.5685 53.9854 39.3674 53.1464 39.5078C53.0599 39.522 52.9728 39.5291 52.8883 39.5291C52.1331 39.5291 51.4948 38.9851 51.3696 38.2366C51.205 37.2469 51.4012 35.1012 51.7891 33.6444V33.6438Z" fill="#C15717"/>
<path d="M53.011 38.6927C53.4015 38.6274 53.6661 38.2554 53.6009 37.8634C53.4874 37.1829 52.9607 35.9215 52.3702 34.8516C52.1585 36.0554 52.0688 37.4203 52.1824 38.1008C52.2469 38.4909 52.6148 38.7568 53.011 38.6927Z" fill="#C15717"/>
<path d="M36.2699 39.2452C36.3325 41.605 38.2887 43.4777 40.6535 43.4118C43.0079 43.349 44.8725 41.378 44.8105 39.0181C44.7427 36.463 42.449 29.4404 40.3095 29.4404H40.2837C38.1371 29.498 36.2022 36.679 36.2693 39.2452H36.2699ZM40.3521 31.995C40.5012 31.9872 40.6393 32.0668 40.7161 32.1942C41.6668 33.7719 42.8556 37.1907 42.9046 39.0686C42.9388 40.3753 41.9068 41.4666 40.6031 41.5009L40.5451 41.5022H40.5386C39.2484 41.5022 38.2106 40.4885 38.1764 39.1941C38.1267 37.3162 39.1329 33.8399 39.999 32.2136C40.0687 32.0823 40.2036 31.9988 40.3521 31.995Z" fill="#C15717"/>
<path d="M30.6719 94.5347C29.8 92.8263 29.2249 90.4794 29.1894 87.2612L29.234 87.3058L29.214 87.2657C32.4061 87.3006 34.7412 87.8699 36.4431 88.736L36.465 88.6727C32.9702 85.1271 30.1524 80.8732 28.2439 76.2758C22.2256 75.8075 16.5157 74.9963 11.3267 73.8701L11.2705 73.8578C10.274 73.6411 9.29625 73.4127 8.34041 73.1734C8.25716 73.1527 8.17455 73.1313 8.09193 73.11C7.71115 73.0136 7.33294 72.9146 6.95861 72.8144C6.86567 72.7891 6.77144 72.7646 6.67851 72.7393C6.2519 72.6235 5.82851 72.5052 5.41094 72.3842C5.30703 72.3544 5.20441 72.3234 5.10115 72.293C4.78425 72.1998 4.47059 72.106 4.15951 72.0103C4.0201 71.9676 3.88134 71.9249 3.74322 71.8816C3.39342 71.7716 3.04748 71.6603 2.70542 71.5471C2.65701 71.531 2.60667 71.5161 2.55891 71.4999C2.24396 71.3951 1.93352 71.2884 1.62695 71.1816C1.71925 71.4967 1.81541 71.8104 1.91545 72.1222C2.11488 72.7452 2.3285 73.3616 2.55698 73.9716C3.12751 75.4957 3.78711 76.9777 4.52932 78.4099C9.02002 87.0755 16.5377 93.9428 25.652 97.5808C27.4856 95.9876 29.1623 95.0283 30.6713 94.534L30.6719 94.5347Z" fill="#944115"/>
<path d="M2.97376 70.7667C3.30485 70.8761 3.63981 70.9841 3.978 71.0902C4.11741 71.1342 4.25811 71.1775 4.3988 71.2202C4.68794 71.3095 4.98031 71.3968 5.27461 71.4835C5.39401 71.5184 5.51277 71.5546 5.63281 71.5889C6.03554 71.7054 6.44214 71.8199 6.85391 71.9318C6.95137 71.9583 7.05076 71.9842 7.14821 72.0107C7.49286 72.1032 7.84008 72.1944 8.19053 72.2837C8.30154 72.3121 8.41255 72.3399 8.52356 72.3684C9.4239 72.5942 10.3423 72.8102 11.2794 73.0153C11.344 73.0295 11.4091 73.0431 11.4737 73.0573C11.9371 73.1576 12.4037 73.2566 12.8749 73.3517L12.9071 73.3581C17.5598 74.2987 22.6075 74.9922 27.9011 75.4185C27.2763 73.8032 26.7639 72.1491 26.3734 70.4718C20.2615 69.918 14.4987 69.0046 9.31482 67.7646C9.27094 67.7542 9.22769 67.7432 9.18381 67.7329C8.78366 67.6365 8.38674 67.5382 7.99304 67.4379C7.92398 67.4204 7.85493 67.403 7.78651 67.3855C7.35022 67.2729 6.91716 67.1591 6.4899 67.042L6.47054 67.0362C6.0762 66.9281 5.68702 66.8169 5.30043 66.705C5.16619 66.6662 5.03259 66.6261 4.89899 66.5866C4.63308 66.5077 4.36912 66.4281 4.10708 66.3472C3.96445 66.3033 3.82182 66.2593 3.68047 66.2153C3.36616 66.1163 3.05443 66.0154 2.74593 65.9138C2.68462 65.8938 2.62137 65.8744 2.56006 65.8537C1.79461 65.5988 1.05756 65.3362 0.34375 65.0684C0.572222 66.8175 0.910412 68.5337 1.35574 70.2078C1.83398 70.3799 2.32061 70.55 2.82144 70.7169C2.87179 70.7337 2.92406 70.7499 2.9744 70.7667H2.97376Z" fill="#944115"/>
<path d="M28.6843 38.0999C28.7979 37.4194 28.7082 36.0544 28.4965 34.8506C28.3487 35.1177 28.2054 35.3972 28.0712 35.6767C27.9369 35.9561 27.8124 36.2356 27.702 36.5021C27.4826 37.0364 27.3225 37.5216 27.2657 37.8618C27.2005 38.2538 27.4652 38.6258 27.8563 38.6918C28.0492 38.7228 28.2396 38.6724 28.3907 38.565C28.541 38.4576 28.6521 38.2939 28.6843 38.0992V38.0999Z" fill="#944115"/>
<path d="M0.466642 53.6248C0.799023 51.4486 1.30373 49.3295 1.96526 47.2814C2.05949 47.3914 2.14985 47.5001 2.23504 47.6075C2.49062 47.9303 2.70618 48.2427 2.88496 48.5435C3.12311 48.9452 3.29672 49.3275 3.41483 49.6904C3.62136 49.5843 3.84661 49.4879 4.09315 49.4019C4.83278 49.1438 5.76216 48.984 6.9284 48.9711L6.9071 48.9924L6.92646 48.9827C6.90968 50.532 6.63474 51.6653 6.21587 52.4914C7.09814 52.7767 8.09657 53.3835 9.20795 54.4728H9.17762L9.19827 54.4799C8.09335 55.5635 7.09943 56.1696 6.22104 56.4574C6.64313 57.2848 6.92194 58.4214 6.93872 59.9791L6.91742 59.9577L6.92711 59.9771C5.38137 59.9603 4.25063 59.6841 3.42645 59.2649C3.28382 59.7067 3.0618 60.1783 2.73845 60.6783C2.41575 61.1784 1.99237 61.7069 1.44894 62.2638V62.2334L1.44184 62.2535C0.808704 61.6053 0.342725 60.996 0.00453473 60.4248C0.00453473 60.3859 0.00195312 60.3478 0.00195312 60.309C0.0174427 61.6027 0.0968271 62.8823 0.231716 64.1456C1.05783 64.4613 1.92008 64.7699 2.81977 65.07C2.88367 65.0914 2.94885 65.1114 3.01275 65.1328C3.31221 65.2317 3.61426 65.3294 3.91954 65.4251C4.06153 65.4698 4.2048 65.5138 4.34808 65.5578C4.60173 65.636 4.8573 65.7137 5.11546 65.79C5.25035 65.8301 5.38524 65.8702 5.52142 65.9097C5.86865 66.0106 6.2191 66.1102 6.57343 66.2079C6.61344 66.2189 6.65346 66.2305 6.69347 66.2415C7.11363 66.3567 7.5383 66.4692 7.96749 66.5798C8.02429 66.5947 8.08173 66.6089 8.13917 66.6232C8.53028 66.7234 8.92527 66.8211 9.32412 66.9175C9.3693 66.9285 9.41448 66.9395 9.45966 66.9498C14.5435 68.1673 20.194 69.0664 26.1859 69.6208C25.0138 63.9645 25.2333 58.074 27.2224 52.5309C27.9026 50.6355 28.7223 48.7964 29.5465 46.9599L29.5148 46.9573C27.7884 46.8377 26.0865 46.6895 24.4123 46.5142C24.3071 46.5032 24.2026 46.4922 24.0974 46.4812C23.5726 46.425 23.0505 46.3674 22.5316 46.3059C22.4948 46.3014 22.458 46.2969 22.4212 46.2924C21.446 46.1759 20.4831 46.0491 19.5305 45.9139C19.3582 45.8893 19.1852 45.8661 19.0142 45.8408C18.605 45.7813 18.199 45.7186 17.7944 45.6558C17.5285 45.6144 17.2645 45.5717 17.0005 45.5284C16.6339 45.4689 16.2667 45.4094 15.9046 45.3466C15.338 45.2489 14.7758 45.148 14.2188 45.0432C13.951 44.9928 13.687 44.9391 13.4211 44.8873C13.0339 44.8116 12.6486 44.7347 12.2672 44.6557C12.0109 44.6027 11.7554 44.549 11.5017 44.494C11.0486 44.3963 10.6001 44.2961 10.1548 44.1939C9.99276 44.1564 9.82818 44.1208 9.66748 44.0833C9.06532 43.9416 8.4722 43.7947 7.88553 43.6447C7.73128 43.6052 7.57961 43.5645 7.426 43.5237C6.95679 43.4008 6.49211 43.2747 6.03387 43.1459C5.88156 43.1032 5.72924 43.0605 5.57822 43.0178C4.99348 42.8503 4.4152 42.6795 3.84919 42.5029C3.73043 42.7559 3.61362 43.0094 3.49938 43.265C3.3774 43.5386 3.25865 43.8135 3.14312 44.0904C1.68387 47.5738 0.697695 51.305 0.259468 55.2018C0.31949 54.6727 0.387903 54.1468 0.467933 53.6248H0.466642ZM15.2515 57.9278H15.2715L15.2586 57.9233C15.3483 57.8353 15.4374 57.7518 15.5245 57.6736C15.8749 57.3592 16.2073 57.1192 16.521 56.9407C16.7559 56.8068 16.9812 56.7071 17.1954 56.6373C16.9896 56.2336 16.8359 55.7168 16.7675 55.0563C16.7449 54.8364 16.7314 54.5996 16.7288 54.3467L16.743 54.3609L16.7366 54.3486C17.7421 54.3596 18.4778 54.5388 19.0135 54.8118C19.1291 54.4521 19.3265 54.0633 19.6305 53.6448C19.8132 53.3938 20.0339 53.1325 20.2992 52.8608V52.8808L20.3037 52.8679C21.0072 53.5885 21.4002 54.2367 21.5874 54.8092C22.1244 54.5336 22.8621 54.3525 23.8734 54.3408L23.8592 54.3551L23.8715 54.3486C23.8644 54.9787 23.7921 55.5026 23.672 55.9386C23.6004 56.2 23.5113 56.4296 23.4094 56.6315C23.481 56.6547 23.5539 56.6813 23.6281 56.711C23.8502 56.8009 24.0832 56.9219 24.3265 57.0797C24.5698 57.2376 24.8234 57.4323 25.088 57.669C25.1758 57.748 25.2655 57.8314 25.3559 57.92H25.3359L25.3488 57.9246C24.6298 58.6297 23.9831 59.0236 23.4119 59.2112C23.5152 59.413 23.6049 59.6433 23.6772 59.9053C23.7256 60.08 23.7663 60.2695 23.7985 60.4739C23.8463 60.7805 23.8747 61.1221 23.8786 61.5025L23.8644 61.4882L23.8708 61.5005C22.8653 61.4895 22.1295 61.3103 21.5938 61.0374C21.4086 61.6124 21.0149 62.2638 20.3076 62.9884V62.9683L20.303 62.9819C20.2153 62.892 20.132 62.8027 20.0539 62.7154C19.5047 62.1008 19.1833 61.5419 19.02 61.0406C18.9529 61.0749 18.8825 61.1079 18.8089 61.1396C18.5146 61.2651 18.1681 61.3647 17.7602 61.4287C17.4542 61.4766 17.1135 61.5051 16.734 61.5089L16.7482 61.4947L16.7359 61.5012C16.7469 60.4933 16.9257 59.7559 17.198 59.219C17.1264 59.1957 17.0534 59.1692 16.9792 59.1394C16.4603 58.9298 15.884 58.5501 15.2515 57.9297V57.9278Z" fill="#944115"/>
<path d="M4.21883 41.7543H4.22012C4.78097 41.9283 5.35474 42.0965 5.93431 42.2621C6.08468 42.3048 6.237 42.3468 6.38802 42.3889C6.84045 42.515 7.29868 42.6386 7.76208 42.7589C7.91698 42.799 8.07058 42.8404 8.22612 42.8799C8.81344 43.0293 9.40721 43.1755 10.01 43.3165C10.1384 43.3463 10.2695 43.3747 10.3985 43.4045C10.8729 43.5132 11.3524 43.6193 11.8365 43.7228C12.0753 43.7739 12.316 43.8237 12.5574 43.8735C12.9537 43.955 13.3538 44.0346 13.7553 44.1128C14.005 44.1613 14.2529 44.2111 14.5046 44.2577C15.0771 44.3645 15.6547 44.468 16.2375 44.5676C16.5576 44.6226 16.8822 44.6737 17.2056 44.7261C17.5186 44.7772 17.8323 44.827 18.1479 44.8761C18.5138 44.9324 18.881 44.9881 19.2509 45.0417C19.511 45.0793 19.7736 45.1155 20.0363 45.1517C20.9567 45.2791 21.8854 45.4001 22.8264 45.5101L22.8767 45.5166C23.3434 45.5709 23.8138 45.6213 24.285 45.6718C24.4696 45.6912 24.6542 45.7113 24.8394 45.73C25.3215 45.7792 25.8049 45.8271 26.2915 45.8717C26.3851 45.8801 26.4794 45.8879 26.5729 45.8963C27.6572 45.9933 28.7512 46.0806 29.8561 46.155L29.9045 46.1583C30.799 44.1607 31.6768 42.1567 32.3648 40.0776C33.9628 35.2473 34.5081 29.9578 34.6624 24.8933C34.7695 21.3627 34.4965 17.8967 34.0906 14.4281C28.0767 14.1176 22.7464 13.3815 18.7029 12.3613C18.488 14.4999 18.093 16.6075 17.5244 18.6632C17.3747 19.2053 17.2127 19.7435 17.0391 20.2779C15.7379 24.2853 13.7772 28.0741 11.2356 31.4922C11.0665 31.7199 10.8942 31.9463 10.72 32.1708C10.3708 32.6197 10.0113 33.0622 9.64213 33.4975C7.92214 35.5242 6.39706 37.7229 5.09593 40.0633C4.65641 40.8538 4.24271 41.6611 3.85547 42.4833C3.97164 42.2382 4.0962 41.9975 4.21689 41.7543H4.21883ZM24.1456 37.3413C24.3263 36.2558 25.0775 34.4154 25.9327 32.9651C26.7485 31.5814 27.9902 29.9785 29.2714 30.1913C30.1272 30.3349 30.7422 31.2832 31.1604 32.5149C31.8568 34.5681 32.004 37.4086 31.802 38.6227C31.7032 39.2166 31.4741 39.7561 31.1488 40.218C30.9539 40.4948 30.7242 40.7439 30.4679 40.9599C30.2111 41.1753 29.9277 41.3578 29.6237 41.5014C29.1178 41.7407 28.5569 41.8727 27.9754 41.8727C27.7637 41.8727 27.5494 41.8552 27.3345 41.819C25.224 41.4658 23.7932 39.4572 24.1456 37.3419V37.3413ZM15.5534 32.4593C15.8289 32.1306 16.1433 31.7904 16.4776 31.4889C16.6112 31.368 16.748 31.2535 16.8874 31.1487C17.0262 31.0439 17.1675 30.9482 17.3095 30.8654C17.8065 30.5755 18.3137 30.4416 18.7823 30.6027C19.8517 30.9721 20.1357 32.6857 20.186 34.0584C20.2377 35.4821 20.055 37.1569 19.7517 38.0393C19.5703 38.5665 19.2683 39.0296 18.8714 39.3984C18.6332 39.6196 18.3615 39.8072 18.0614 39.9534C17.9459 40.0097 17.8284 40.0595 17.709 40.1015C17.3508 40.229 16.9778 40.293 16.6034 40.293C16.2291 40.293 15.8709 40.2322 15.5153 40.1093C14.6737 39.8188 13.9954 39.2172 13.6049 38.4151C13.2151 37.613 13.1596 36.7067 13.4494 35.8632C13.5629 35.5319 13.7585 35.1238 14.007 34.6852C14.4207 33.9542 14.9809 33.1398 15.5534 32.458V32.4593Z" fill="#944115"/>
<path d="M16.3826 37.0923C16.4201 37.1693 16.4853 37.2275 16.5659 37.2553C16.6021 37.2676 16.6369 37.2741 16.6705 37.2741C16.7131 37.2741 16.7738 37.2625 16.8318 37.2295C16.8899 37.1965 16.9441 37.1421 16.9738 37.0561C17.041 36.8614 17.101 36.5923 17.152 36.2747C17.203 35.957 17.2443 35.5903 17.2733 35.2002C16.8402 35.8516 16.4988 36.4642 16.3672 36.8465C16.3394 36.9274 16.3446 37.0147 16.3826 37.0923Z" fill="#944115"/>
<path d="M14.2307 36.1327C13.7802 37.4433 14.4779 38.8768 15.7855 39.3283C16.194 39.4693 16.6148 39.4984 17.0137 39.4312C17.3325 39.3775 17.6378 39.2623 17.9121 39.0941C18.0489 39.01 18.1786 38.913 18.298 38.803C18.4174 38.6937 18.5271 38.5721 18.6239 38.4388C18.7698 38.2396 18.8892 38.0151 18.9731 37.77C19.0596 37.5177 19.1351 37.1975 19.1964 36.8352C19.2209 36.6903 19.2429 36.539 19.2629 36.3824C19.2829 36.2259 19.3003 36.0641 19.3152 35.8992C19.33 35.7342 19.3423 35.566 19.3513 35.3959C19.3558 35.3112 19.3597 35.2251 19.3636 35.1397C19.3894 34.4541 19.3694 33.7541 19.2919 33.1461C19.2435 32.7657 19.1725 32.4216 19.0757 32.1382C19.037 32.025 18.9944 31.9215 18.9479 31.8297C18.8311 31.6 18.6872 31.4428 18.5149 31.3833C18.4697 31.3678 18.418 31.3594 18.36 31.3594C18.2561 31.3594 18.1321 31.3859 17.9882 31.4441C17.5564 31.6194 16.9472 32.0839 16.1856 32.9908C15.2233 34.1364 14.4604 35.4645 14.2307 36.1321V36.1327ZM16.8652 34.337C17.0479 34.0782 17.2331 33.8292 17.4099 33.6034C17.5184 33.465 17.7023 33.4106 17.8682 33.4682C17.9095 33.4824 17.9476 33.5031 17.9818 33.5284C18.0831 33.6047 18.1463 33.7257 18.1463 33.8576C18.1489 35.0078 18.0289 36.526 17.7539 37.3256C17.57 37.8612 17.0776 38.1012 16.6709 38.1012C16.5451 38.1012 16.4192 38.0798 16.2973 38.0371C16.0088 37.9375 15.7758 37.7311 15.6415 37.4549C15.5073 37.1794 15.4886 36.8676 15.588 36.5778C15.7938 35.9775 16.3173 35.1132 16.8646 34.337H16.8652Z" fill="#944115"/>
<path d="M25.6687 39.9916C25.8611 40.2142 26.0863 40.4089 26.3374 40.5693C26.4213 40.623 26.5078 40.6721 26.5975 40.7174C26.7762 40.808 26.966 40.8817 27.1648 40.9361C27.2642 40.9632 27.3661 40.9859 27.47 41.0034C29.132 41.2815 30.7106 40.1521 30.9881 38.4863C31.325 36.4622 30.5409 31.2419 29.1352 31.0065C29.1023 31.0013 29.0687 30.998 29.0339 30.998C28.7628 30.998 28.4414 31.1662 28.0909 31.4813C27.8908 31.6617 27.6811 31.8901 27.4662 32.1624C27.3584 32.2989 27.25 32.4464 27.1402 32.6043C26.9757 32.841 26.8092 33.1023 26.642 33.385C25.7346 34.9246 25.0976 36.6421 24.9581 37.4772C24.9059 37.7896 24.9033 38.0989 24.9446 38.3977C24.9717 38.597 25.0188 38.791 25.0827 38.9773C25.1472 39.1643 25.2292 39.3435 25.3273 39.5136C25.4254 39.6837 25.5397 39.8435 25.6681 39.9916H25.6687ZM26.451 37.7269C26.5232 37.2941 26.7324 36.6744 27.015 36.0094C27.3784 35.1543 27.8637 34.2247 28.3362 33.5202C28.4039 33.4193 28.5104 33.3553 28.6273 33.3404C28.666 33.3359 28.706 33.3365 28.746 33.343C28.9054 33.3695 29.0345 33.4872 29.0765 33.6438C29.1494 33.9168 29.2152 34.2143 29.2733 34.5235C29.312 34.7299 29.3475 34.9414 29.3785 35.1549C29.4256 35.4751 29.4643 35.7992 29.4934 36.1149C29.5031 36.2203 29.5115 36.3245 29.5192 36.4273C29.534 36.633 29.5444 36.8342 29.5502 37.0257C29.5528 37.1214 29.5547 37.2152 29.5547 37.3058C29.556 37.6687 29.5373 37.9882 29.496 38.236C29.4805 38.3298 29.4566 38.4204 29.4256 38.5064C29.3946 38.5931 29.3566 38.6759 29.312 38.7541C29.223 38.9107 29.1074 39.0485 28.9725 39.1636C28.7028 39.3933 28.3542 39.5291 27.9773 39.5291C27.8921 39.5291 27.8057 39.522 27.7198 39.5078C27.4049 39.4547 27.128 39.3098 26.9118 39.1041C26.5523 38.7619 26.3625 38.2522 26.4503 37.7263L26.451 37.7269Z" fill="#944115"/>
<path d="M34.0935 14.4276C36.1698 14.535 38.3267 14.5919 40.5411 14.5919C49.1417 14.5919 56.8891 13.738 62.3266 12.3738C67.2897 11.1279 70.3283 9.45697 70.3283 7.61918C70.3283 3.7683 62.1575 0.439453 40.8218 0.439453C19.4862 0.439453 10.7539 3.76765 10.7539 7.61854C10.7539 9.44985 13.7718 11.1162 18.7059 12.3608C22.7493 13.3809 28.0797 14.1165 34.0935 14.4276ZM15.9939 6.75171L15.9249 6.67797C15.8855 6.62622 15.8558 6.57318 15.8351 6.52078C15.8119 6.46256 15.799 6.40369 15.799 6.34418C15.799 4.52774 26.8767 3.05544 40.5417 3.05544C54.2068 3.05544 65.2845 4.52774 65.2845 6.34418C65.2845 7.16248 63.0314 7.91028 59.3113 8.48536L59.2648 8.49247C58.7504 8.57139 58.2083 8.64708 57.6403 8.71953C57.5965 8.72535 57.5532 8.73052 57.5087 8.73635C57.3273 8.75899 57.144 8.78163 56.9575 8.80362L56.9304 8.80686C56.5709 8.8489 56.2017 8.88966 55.8248 8.92912C55.7513 8.93688 55.679 8.94464 55.6047 8.9524C55.4324 8.96987 55.2582 8.98734 55.082 9.00415C54.9865 9.01321 54.889 9.02227 54.7928 9.03132C54.5108 9.05785 54.2242 9.08372 53.9338 9.1083C53.8086 9.1193 53.6847 9.12965 53.5582 9.14C53.4007 9.15294 53.2419 9.16523 53.0825 9.17817C52.938 9.18981 52.7921 9.20081 52.6449 9.2118C52.4965 9.2228 52.3481 9.2338 52.1977 9.24479C51.9285 9.2642 51.6568 9.28231 51.3825 9.30043C51.2509 9.30884 51.1173 9.31724 50.985 9.32501C50.7939 9.33665 50.6016 9.34829 50.4073 9.35994C50.2737 9.3677 50.1401 9.37546 50.0053 9.38258C49.7335 9.39746 49.4599 9.41169 49.1837 9.42592C49.0739 9.43109 48.9629 9.43627 48.8526 9.44209C48.5944 9.45438 48.3343 9.46603 48.0723 9.47702C47.9522 9.4822 47.8322 9.48673 47.7115 9.4919C47.4488 9.50225 47.1836 9.5126 46.917 9.52166C46.8344 9.52425 46.7524 9.52748 46.6692 9.53072C46.3291 9.54236 45.9851 9.55271 45.6391 9.56241C45.5391 9.565 45.4384 9.56759 45.3377 9.57018C45.0589 9.57729 44.7788 9.58441 44.4974 9.59023C44.4032 9.59217 44.3102 9.59411 44.216 9.59605C43.8565 9.60317 43.4944 9.60963 43.1298 9.61416C43.0562 9.61546 42.9814 9.6161 42.9071 9.61675C42.6038 9.62063 42.2985 9.62387 41.992 9.62581C41.8861 9.62645 41.7803 9.6271 41.6744 9.62775C41.2988 9.62969 40.9225 9.63163 40.543 9.63163C40.1229 9.63163 39.7059 9.63033 39.291 9.62775C39.1444 9.6271 38.9999 9.62451 38.854 9.62322C38.5862 9.62063 38.3183 9.61869 38.0531 9.61481C37.8866 9.61287 37.722 9.60963 37.5561 9.6064C37.3147 9.60252 37.0727 9.59864 36.8333 9.59411C36.6616 9.59087 36.4918 9.58635 36.3208 9.58247C36.0904 9.57729 35.8587 9.57212 35.6302 9.56629C35.4553 9.56177 35.283 9.55594 35.1094 9.55077C34.89 9.5443 34.6699 9.53783 34.453 9.53072C34.2736 9.52489 34.0968 9.51778 33.9193 9.51131C33.7108 9.50355 33.5017 9.49643 33.2958 9.48802C33.1164 9.48091 32.9402 9.4725 32.7627 9.46473C32.562 9.45568 32.3613 9.44727 32.1631 9.43756C31.9857 9.42915 31.8108 9.4201 31.6352 9.41104C31.4403 9.40069 31.2447 9.39099 31.0518 9.38064C30.8788 9.37094 30.7084 9.36059 30.538 9.35088C30.3483 9.33989 30.1585 9.32889 29.9707 9.3166C29.7997 9.3056 29.6312 9.2946 29.4621 9.28296C29.2795 9.27067 29.0968 9.25838 28.9168 9.24609C28.7496 9.23444 28.585 9.22215 28.4205 9.20922C28.243 9.19563 28.0661 9.18269 27.8912 9.16846C27.7286 9.15552 27.5685 9.14194 27.4091 9.129C27.2381 9.11477 27.0677 9.10054 26.8993 9.08566C26.7398 9.07143 26.583 9.0572 26.4262 9.04297C26.2622 9.02809 26.099 9.01256 25.9376 8.99704C25.784 8.98216 25.633 8.96664 25.482 8.95176C25.3232 8.93559 25.1651 8.91941 25.0095 8.90259C24.8617 8.88642 24.7152 8.87025 24.5706 8.85408C24.4177 8.83661 24.2667 8.81979 24.1169 8.80168C23.9749 8.78486 23.8349 8.76804 23.6961 8.75058C23.5496 8.73246 23.4051 8.71435 23.2624 8.69559C23.1262 8.67813 22.9914 8.66001 22.8584 8.6419C22.719 8.62314 22.5822 8.60373 22.4466 8.58433C22.3163 8.56557 22.1872 8.54681 22.0594 8.52805C21.9284 8.50864 21.7993 8.48859 21.6715 8.46854C21.5463 8.44913 21.4224 8.42908 21.301 8.40902C21.1778 8.38897 21.0571 8.36827 20.937 8.34757C20.8189 8.32687 20.7008 8.30682 20.5859 8.28612C20.4698 8.26477 20.3568 8.24342 20.2445 8.22207C20.1335 8.20073 20.0225 8.18003 19.9154 8.15803C19.8069 8.13604 19.7024 8.11405 19.5978 8.09205C19.4933 8.07006 19.3887 8.04806 19.288 8.02542C19.1874 8.00278 19.0912 7.98014 18.9944 7.9575C18.8982 7.93486 18.8021 7.91222 18.7098 7.88958C18.6168 7.86629 18.5284 7.843 18.4393 7.81907C18.3509 7.79578 18.2619 7.77249 18.1773 7.74921C18.0928 7.72527 18.0127 7.70134 17.9321 7.6774C17.8527 7.65347 17.7714 7.63018 17.6958 7.6056C17.619 7.58102 17.548 7.55579 17.4751 7.53121C17.4041 7.50662 17.3312 7.48269 17.2647 7.45811C17.1969 7.43288 17.1356 7.40765 17.0717 7.38242C17.0091 7.3572 16.9439 7.33261 16.8859 7.30739C16.8265 7.28151 16.7749 7.25564 16.72 7.22976C16.6664 7.20453 16.6103 7.1793 16.5612 7.15343C16.5109 7.12691 16.4676 7.09974 16.4218 7.07321C16.3779 7.04799 16.3308 7.02211 16.2921 6.99688C16.2501 6.96971 16.2172 6.9419 16.1811 6.91408C16.1475 6.88821 16.1094 6.86298 16.0798 6.8371C16.0462 6.80799 16.0223 6.77824 15.9952 6.74848L15.9939 6.75171Z" fill="#F49616"/>
<path d="M26.9791 3.85488C29.4665 3.81283 31.9396 5.03091 34.2824 5.7386C37.1287 6.5983 39.9736 7.13456 42.9186 7.51816C45.7912 7.89206 48.5742 7.99103 51.4153 7.31957C53.7742 6.76196 56.0383 6.36542 58.4792 6.4838C59.983 6.5569 61.3396 7.05112 62.5575 7.8429C61.6642 8.07384 60.5709 8.28925 59.3092 8.48461C63.0293 7.90888 65.2823 7.16109 65.2823 6.34343C65.2823 4.52699 54.2047 3.05469 40.5396 3.05469C26.8745 3.05469 15.7969 4.52699 15.7969 6.34343C15.7969 6.4023 15.8098 6.46116 15.833 6.52003L15.8298 6.51485C19.5408 6.5058 23.1887 3.91827 26.9784 3.85488H26.9791Z" fill="#944115"/>
<path d="M16.2896 6.99876C16.329 7.02463 16.3761 7.04986 16.4193 7.07509C16.4652 7.10161 16.5077 7.12878 16.5587 7.1553C16.6078 7.18118 16.6639 7.20641 16.7175 7.23164C16.7717 7.25751 16.824 7.28339 16.8834 7.30926C16.9415 7.33449 17.0066 7.35907 17.0692 7.3843C17.1325 7.40953 17.1938 7.43476 17.2622 7.45998C17.3287 7.48457 17.4016 7.5085 17.4726 7.53308C17.5456 7.55766 17.6165 7.58289 17.6934 7.60747C17.7689 7.63141 17.8502 7.65534 17.9296 7.67928C18.0102 7.70321 18.0896 7.72779 18.1748 7.75108C18.2587 7.77437 18.3484 7.79766 18.4369 7.82094C18.5259 7.84423 18.6143 7.86817 18.7073 7.89145C18.7996 7.91409 18.8964 7.93674 18.9919 7.95938C19.0887 7.98202 19.1849 8.00466 19.2856 8.0273C19.3862 8.04994 19.4908 8.07193 19.5953 8.09393C19.6999 8.11592 19.8045 8.13792 19.9129 8.15991C20.02 8.18126 20.131 8.2026 20.242 8.22395C20.3543 8.2453 20.4673 8.26664 20.5835 8.28799C20.6983 8.30869 20.8164 8.32939 20.9346 8.34945C21.0546 8.37015 21.1753 8.39085 21.2986 8.4109C21.4199 8.43095 21.5445 8.45036 21.669 8.47041C21.7968 8.49047 21.9252 8.51052 22.0569 8.52993C22.1841 8.54868 22.3131 8.56744 22.4441 8.5862C22.5797 8.60561 22.7172 8.62502 22.8559 8.64378C22.9889 8.66189 23.1238 8.68 23.2599 8.69747C23.4032 8.71623 23.5478 8.73434 23.6936 8.75245C23.8324 8.76927 23.9725 8.78674 24.1144 8.80356C24.2642 8.82102 24.4152 8.83849 24.5682 8.85595C24.7134 8.87213 24.8592 8.8883 25.007 8.90447C25.1626 8.92129 25.3207 8.93746 25.4795 8.95363C25.6305 8.96916 25.7815 8.98404 25.9351 8.99891C26.0965 9.01444 26.2591 9.02996 26.4237 9.04484C26.5805 9.05907 26.7374 9.07395 26.8968 9.08754C27.0652 9.10242 27.2356 9.11665 27.4066 9.13088C27.5667 9.14446 27.7268 9.1574 27.8887 9.17034C28.0637 9.18392 28.2405 9.19751 28.418 9.21109C28.5826 9.22338 28.7471 9.23567 28.9143 9.24796C29.0944 9.2609 29.277 9.27319 29.4597 9.28483C29.6288 9.29583 29.7972 9.30748 29.9682 9.31847C30.1554 9.33012 30.3451 9.34111 30.5355 9.35276C30.7066 9.36311 30.8763 9.37281 31.0493 9.38251C31.2423 9.39286 31.4378 9.40321 31.6327 9.41292C31.8083 9.42197 31.9832 9.43103 32.1607 9.43944C32.3588 9.44914 32.5602 9.45755 32.7602 9.46661C32.9377 9.47437 33.1139 9.48278 33.2933 9.4899C33.4992 9.49831 33.7083 9.50542 33.9168 9.51318C34.0949 9.51965 34.2711 9.52677 34.4505 9.53259C34.6674 9.53971 34.8875 9.54617 35.1069 9.55264C35.2805 9.55782 35.4529 9.56364 35.6278 9.56817C35.8562 9.57399 36.0873 9.57917 36.3183 9.58434C36.4894 9.58822 36.6585 9.59275 36.8308 9.59599C37.0702 9.60051 37.3122 9.60439 37.5536 9.60828C37.7195 9.61086 37.8834 9.6141 38.0506 9.61668C38.3158 9.61992 38.5837 9.62251 38.8515 9.62509C38.9974 9.62639 39.142 9.62833 39.2885 9.62962C39.7035 9.63221 40.121 9.6335 40.5405 9.6335C40.92 9.6335 41.297 9.63221 41.6719 9.62962C41.7778 9.62962 41.8836 9.62833 41.9895 9.62768C42.296 9.62509 42.6013 9.62251 42.9047 9.61863C42.9789 9.61798 43.0531 9.61733 43.1273 9.61604C43.492 9.61086 43.854 9.60504 44.2135 9.59793C44.3077 9.59599 44.4013 9.59404 44.4949 9.5921C44.777 9.58628 45.0571 9.57917 45.3352 9.57205C45.4359 9.56946 45.5366 9.56688 45.6366 9.56429C45.9826 9.55458 46.3259 9.54423 46.6667 9.53259C46.7499 9.53 46.8319 9.52677 46.9145 9.52353C47.1811 9.51383 47.4457 9.50413 47.709 9.49378C47.8297 9.48925 47.9497 9.48407 48.0698 9.4789C48.3318 9.4679 48.5919 9.45626 48.8501 9.44397C48.9604 9.43879 49.0715 9.43362 49.1812 9.4278C49.4574 9.41421 49.7311 9.39998 50.0028 9.38445C50.1377 9.37734 50.2713 9.36958 50.4049 9.36181C50.5985 9.35082 50.7908 9.33917 50.9825 9.32688C51.1154 9.31847 51.249 9.31071 51.3801 9.3023C51.655 9.28419 51.9267 9.26608 52.1952 9.24667C52.3456 9.23567 52.494 9.22468 52.6425 9.21368C52.789 9.20268 52.9348 9.19168 53.08 9.18004C53.2395 9.16775 53.3989 9.15481 53.5557 9.14187C53.6822 9.13152 53.8068 9.12053 53.9313 9.11018C54.2218 9.08495 54.5083 9.05972 54.7904 9.0332C54.8872 9.02414 54.984 9.01509 55.0795 9.00603C55.2557 8.98921 55.4299 8.97174 55.6023 8.95428C55.6765 8.94652 55.7488 8.93875 55.8223 8.93099C56.1993 8.89153 56.5691 8.85078 56.9279 8.80873L56.955 8.8055C57.1415 8.7835 57.3248 8.76086 57.5062 8.73822C57.5501 8.7324 57.594 8.72722 57.6379 8.7214C58.2058 8.64895 58.7486 8.57327 59.2623 8.49435L59.3088 8.48723C60.5712 8.29187 61.6639 8.07646 62.5571 7.84553C61.3392 7.05439 59.9833 6.55953 58.4788 6.48643C56.0379 6.36805 53.7738 6.76459 51.4149 7.3222C48.5738 7.99366 45.7915 7.89469 42.9182 7.52079C39.9732 7.13719 37.1277 6.60093 34.2821 5.74122C31.9393 5.03354 29.4661 3.81546 26.9787 3.85751C23.1883 3.9209 19.5405 6.50842 15.8301 6.51748L15.8333 6.52265C15.8546 6.5757 15.8836 6.6281 15.923 6.67985L15.9921 6.75359C16.0198 6.78335 16.0437 6.8131 16.0766 6.84221C16.1057 6.86809 16.1437 6.89332 16.1779 6.91919C16.2147 6.94701 16.2477 6.97482 16.289 7.00199L16.2896 6.99876Z" fill="#F8E4D3"/>
<path d="M44.0421 56.8306C44.4603 56.0045 44.7353 54.8718 44.7527 53.3219L44.7333 53.3316L44.7553 53.3096C43.2005 53.3264 42.0665 53.6059 41.2411 54.0289C40.9539 53.1485 40.3491 52.1523 39.2681 51.0449L39.261 51.0656V51.0352C38.1735 52.1491 37.5687 53.1498 37.2841 54.0341C36.4599 53.6149 35.3292 53.3393 33.7834 53.3219L33.7931 53.3413L33.7712 53.3199C33.788 54.8783 34.0668 56.0148 34.4889 56.8422C33.6105 57.1301 32.6166 57.7362 31.5116 58.8197L31.5323 58.8268H31.502C32.6133 59.9168 33.6118 60.523 34.494 60.8082C34.0758 61.6343 33.8009 62.7676 33.7834 64.3169L33.8028 64.3072L33.7809 64.3286C35.3356 64.3117 36.4696 64.0323 37.2951 63.6092C37.5823 64.4896 38.187 65.4858 39.2681 66.5933L39.2752 66.5726V66.603C40.3627 65.4891 40.9674 64.4883 41.252 63.6041C42.0762 64.0232 43.2069 64.2988 44.7527 64.3163L44.743 64.2969L44.7649 64.3189C44.7482 62.7605 44.4693 61.6239 44.0473 60.7966C44.9256 60.5087 45.9196 59.9026 47.0245 58.8191L47.0038 58.812H47.0342C45.9228 57.722 44.9244 57.1158 44.0421 56.8306Z" fill="#F49616"/>
<path d="M77.6642 49.6906C76.8387 49.2675 75.7048 48.988 74.15 48.9712L74.1719 48.9932L74.1526 48.9835C74.1694 50.5328 74.445 51.6661 74.8632 52.4922C73.9809 52.7775 72.9825 53.3842 71.8711 54.4736H71.9014L71.8814 54.4807C72.9863 55.5642 73.9803 56.1704 74.8587 56.4582C74.4366 57.2856 74.1578 58.4221 74.141 59.9798L74.1623 59.9585L74.1526 59.9779C75.6983 59.9611 76.8291 59.6849 77.6532 59.2657C77.9379 60.15 78.5432 61.1507 79.6301 62.2646V62.2342L79.6372 62.2543C80.2691 61.6067 80.7344 60.9993 81.0719 60.4288C81.0752 60.2211 81.0797 60.0135 81.0797 59.8052C81.0797 59.3051 81.0681 58.8077 81.05 58.3115C81.0474 58.2391 81.0455 58.1666 81.0422 58.0942C81.0222 57.6148 80.9938 57.1374 80.9571 56.6626C80.9512 56.5908 80.9454 56.5184 80.9396 56.4466C80.8996 55.9556 80.8518 55.4672 80.7944 54.9814L80.7867 54.9206C80.6615 53.8785 80.4982 52.848 80.2955 51.8317L80.2929 51.8194C79.9851 50.2734 79.5894 48.7584 79.1119 47.2803C78.3554 48.16 77.8985 48.9648 77.6623 49.6906H77.6642Z" fill="#F49616"/>
<path d="M65.9125 57.9277L65.9254 57.9232C65.2064 57.2181 64.5598 56.8241 63.9886 56.6365C64.2635 56.0983 64.4442 55.3589 64.4558 54.3453L64.4416 54.3595L64.4481 54.3472C63.4426 54.3582 62.7068 54.5374 62.1711 54.8104C61.9859 54.2353 61.5922 53.5839 60.8848 52.8594V52.8794L60.8803 52.8658C60.1768 53.5865 59.7838 54.2346 59.5966 54.8071C59.0596 54.5316 58.322 54.3504 57.3106 54.3388L57.3248 54.353L57.3125 54.3466C57.3235 55.3544 57.5023 56.0918 57.7747 56.6288C57.2009 56.8144 56.551 57.209 55.8281 57.918H55.8481L55.8346 57.9225C56.5536 58.6276 57.2002 59.0216 57.7714 59.2092C57.4965 59.7474 57.3158 60.4867 57.3042 61.5004L57.3184 61.4862L57.3119 61.4985C58.3174 61.4875 59.0532 61.3083 59.5889 61.0353C59.7741 61.6104 60.1678 62.2618 60.8752 62.9863V62.9662L60.8797 62.9798C61.5832 62.2592 61.9762 61.611 62.1634 61.0385C62.7004 61.3141 63.438 61.4952 64.4494 61.5069L64.4352 61.4926L64.4475 61.4991C64.4365 60.4913 64.2577 59.7538 63.9853 59.2169C64.5591 59.0313 65.209 58.6367 65.9319 57.9277H65.9119H65.9125Z" fill="#F49616"/>
<path d="M62.8046 39.9537C63.2667 40.1795 63.763 40.2933 64.2625 40.2933C64.6278 40.2933 64.9951 40.2325 65.3507 40.1096C66.1923 39.8192 66.8706 39.2176 67.2611 38.4155C67.6515 37.6133 67.7064 36.707 67.4166 35.8635C67.1133 34.9805 66.2284 33.549 65.3133 32.459C64.431 31.4084 63.1531 30.2337 62.0843 30.6024C61.0149 30.9718 60.7309 32.6854 60.6806 34.0581C60.6289 35.4818 60.8116 37.1566 61.1149 38.039C61.4047 38.8825 62.0049 39.5624 62.8052 39.9537H62.8046ZM62.3522 31.3832C62.3973 31.3677 62.449 31.3593 62.5071 31.3593C62.922 31.3593 63.6662 31.7817 64.6821 32.9907C65.6443 34.1363 66.4072 35.4644 66.637 36.132C67.0875 37.4425 66.3898 38.876 65.0822 39.3276C63.7746 39.7791 62.3444 39.0798 61.8939 37.7692C61.3389 36.154 61.2466 31.7649 62.3522 31.3832Z" fill="#F49616"/>
<path d="M64.0996 37.9494C64.2274 37.9494 64.3545 37.9275 64.4778 37.8848C64.7708 37.7838 65.0064 37.5743 65.1426 37.2948C65.2787 37.0154 65.2975 36.6997 65.1968 36.4066C64.9167 35.5916 64.0628 34.2965 63.34 33.3747C63.2315 33.2363 63.0476 33.1819 62.8817 33.2395C62.7159 33.2971 62.6042 33.453 62.6036 33.6289C62.601 34.8017 62.7236 36.3497 63.0031 37.1635C63.1896 37.7062 63.6885 37.9488 64.1002 37.9488L64.0996 37.9494ZM64.4171 36.6764C64.4462 36.7611 64.441 36.8523 64.401 36.9332C64.3616 37.0141 64.2932 37.0749 64.208 37.104C64.1712 37.1169 64.1351 37.1234 64.0996 37.1234C64.0105 37.1234 63.844 37.0755 63.7821 36.8957C63.6433 36.492 63.5329 35.7779 63.4742 34.9667C63.926 35.642 64.2777 36.2734 64.4165 36.677L64.4171 36.6764Z" fill="#F49616"/>
<path d="M50.6372 41.1471C51.3026 41.6232 52.0823 41.8716 52.8838 41.8716C53.0988 41.8716 53.315 41.8535 53.5312 41.8173C54.5541 41.6458 55.4487 41.0863 56.0508 40.2402C56.653 39.3947 56.8905 38.3642 56.7201 37.3396C56.3968 35.3976 53.8771 29.8073 51.5943 30.1896C50.3119 30.4043 49.6581 32.3256 49.3354 33.9001C48.9972 35.5496 48.883 37.5349 49.0637 38.6204C49.2348 39.6457 49.793 40.5423 50.6372 41.1458V41.1471ZM50.1428 34.0676C50.5146 32.2544 51.1077 31.1101 51.7292 31.0059C51.7621 31.0008 51.7957 30.9975 51.8306 30.9975C52.4495 30.9975 53.333 31.8754 54.2224 33.3852C55.1298 34.9247 55.7669 36.6422 55.9063 37.4773C56.0405 38.2846 55.8533 39.0958 55.379 39.7615C54.9046 40.4278 54.1998 40.8683 53.395 41.0028C52.5895 41.138 51.7802 40.9504 51.1161 40.4743C50.4513 39.9989 50.0118 39.2925 49.8769 38.4852C49.7375 37.6507 49.784 35.8187 50.1428 34.067V34.0676Z" fill="#F49616"/>
<path d="M52.8877 39.5296C52.9729 39.5296 53.0593 39.5225 53.1458 39.5083C53.9855 39.3679 54.5541 38.569 54.414 37.7274C54.2495 36.7383 53.3685 34.7724 52.5288 33.5207C52.4385 33.3862 52.2765 33.317 52.119 33.3435C51.9596 33.37 51.8305 33.4877 51.7886 33.6443C51.4007 35.1011 51.2045 37.2468 51.369 38.2365C51.4942 38.9856 52.1326 39.529 52.8877 39.529V39.5296ZM52.3707 34.8507C52.9612 35.9207 53.4885 37.1821 53.6015 37.8626C53.6667 38.2546 53.4021 38.6266 53.0116 38.6919C52.6153 38.7559 52.2474 38.4894 52.1829 38.1C52.0693 37.4195 52.159 36.0546 52.3707 34.8507Z" fill="#F49616"/>
<path d="M35.4452 39.2677C35.5188 42.0377 37.79 44.2403 40.5381 44.2403C40.5833 44.2403 40.6291 44.2403 40.6749 44.2384C43.4837 44.164 45.709 41.8126 45.6342 38.9967C45.5645 36.3749 43.2952 28.5321 40.2619 28.6149C37.2246 28.6958 35.3762 36.6453 35.4452 39.2671V39.2677ZM40.3096 29.441C42.4485 29.441 44.7429 36.4635 44.8106 39.0187C44.8726 41.3785 43.008 43.3496 40.6536 43.4123C38.2882 43.4776 36.3327 41.6056 36.27 39.2457C36.2023 36.6802 38.1378 29.4985 40.2844 29.4416H40.3103L40.3096 29.441Z" fill="#F49616"/>
<path d="M40.5378 41.5029H40.5442L40.6023 41.5016C41.906 41.4674 42.938 40.3761 42.9038 39.0694C42.8541 37.1908 41.6659 33.7727 40.7152 32.195C40.6384 32.0675 40.5003 31.9873 40.3512 31.9957C40.2028 31.9996 40.0679 32.083 39.9982 32.2144C39.1321 33.8406 38.1259 37.3176 38.1756 39.1949C38.2098 40.4893 39.247 41.5029 40.5378 41.5029ZM40.3861 33.3238C41.1928 34.974 42.0409 37.6165 42.0796 39.0914C42.1022 39.9427 41.4297 40.6536 40.5855 40.6756H40.5352C39.6968 40.6749 39.023 40.0151 39.0004 39.1735C38.961 37.6993 39.6684 35.0147 40.3867 33.3238H40.3861Z" fill="#F49616"/>
<path d="M51.8658 87.2668L51.8258 87.2869L51.8704 87.2422C48.6595 87.2778 46.318 87.8542 44.6135 88.7281C44.021 86.9097 42.7715 84.8527 40.5391 82.5653L40.5249 82.6073V82.5439C38.3053 84.8177 37.0603 86.8638 36.4633 88.6744L36.4414 88.7378L36.4646 88.6738C39.4987 91.7523 43.0413 94.2984 46.9414 96.0696C49.1377 97.0671 51.3728 97.7722 53.6362 98.2683L53.642 98.2664L53.6665 98.258C53.9673 98.1545 54.2667 98.0484 54.5643 97.9384L54.5746 97.9345C54.8753 97.8233 55.1748 97.7088 55.4723 97.5904H55.4736C53.6175 95.9732 51.9226 95.0068 50.3982 94.5132C51.2624 92.8074 51.8303 90.4676 51.8652 87.2675L51.8658 87.2668Z" fill="#F49616"/>
<path d="M0.00546987 60.4246C0.34366 60.9958 0.809639 61.6051 1.44278 62.2533L1.44988 62.2333V62.2637C1.9933 61.7067 2.41669 61.1782 2.73939 60.6781C3.06209 60.1781 3.28475 59.7065 3.42739 59.2647C4.25156 59.6839 5.38231 59.9595 6.92804 59.9769L6.91836 59.9575L6.93966 59.9789C6.92288 58.4205 6.64406 57.284 6.22197 56.4573C7.10036 56.1694 8.09428 55.5633 9.19921 54.4797L9.17855 54.4726H9.20889C8.09751 53.3826 7.09907 52.7765 6.21681 52.4912C6.63503 51.6652 6.90997 50.5325 6.9274 48.9825L6.90803 48.9923L6.92998 48.9709C5.76374 48.9838 4.83436 49.1436 4.09473 49.4017C3.84819 49.4878 3.6223 49.5848 3.41641 49.6902C3.29831 49.328 3.12469 48.945 2.88654 48.5433C2.70776 48.2419 2.49285 47.9301 2.23662 47.6073C2.15143 47.4999 2.06172 47.3906 1.96684 47.2812C1.30531 49.3293 0.800604 51.4485 0.468222 53.6246C0.388193 54.1472 0.31978 54.6732 0.259758 55.2017L0.251368 55.2663L0.24685 55.3136C0.191345 55.8188 0.145522 56.3266 0.108734 56.837C0.104216 56.9036 0.0996984 56.9709 0.0951806 57.0375C0.0616198 57.5382 0.0358037 58.0408 0.0203141 58.5467L0.0170871 58.6101C0.0157963 58.6508 0.0170871 58.6922 0.0157963 58.733C0.00224287 59.2557 -0.00356574 59.7809 0.00224287 60.3081C0.00224287 60.3469 0.00482447 60.3851 0.00482447 60.4239L0.00546987 60.4246Z" fill="#C56B15"/>
<path d="M16.9797 59.138C17.0539 59.1678 17.1268 59.1943 17.1985 59.2176C16.9261 59.7551 16.7473 60.4919 16.7364 61.4998L16.7486 61.4933L16.7344 61.5075C17.1139 61.5036 17.4547 61.4752 17.7606 61.4273C18.1685 61.3633 18.5151 61.2637 18.8094 61.1382C18.883 61.1071 18.9533 61.0741 19.0204 61.0392C19.1837 61.5405 19.5058 62.0994 20.0544 62.714C20.1331 62.8019 20.2157 62.8906 20.3035 62.9805L20.308 62.9669V62.9869C21.0154 62.2624 21.4091 61.611 21.5943 61.0359C22.1306 61.3089 22.8657 61.4881 23.8713 61.4991L23.8648 61.4868L23.879 61.5011C23.8752 61.1207 23.8468 60.7791 23.799 60.4725C23.7667 60.2681 23.7261 60.0786 23.6777 59.9039C23.6047 59.6419 23.515 59.4116 23.4124 59.2098C23.9842 59.0229 24.6303 58.6283 25.3492 57.9232L25.3363 57.9186H25.3564C25.266 57.83 25.1769 57.7466 25.0885 57.6676C24.8245 57.4309 24.5703 57.2362 24.3269 57.0783C24.0836 56.9205 23.8506 56.7995 23.6286 56.7096C23.5544 56.6799 23.4815 56.6533 23.4098 56.63C23.5118 56.4282 23.6009 56.1992 23.6725 55.9372C23.7925 55.5012 23.8648 54.9773 23.8719 54.3472L23.8597 54.3537L23.8739 54.3394C22.8625 54.3504 22.1248 54.5322 21.5879 54.8078C21.4013 54.2346 21.0076 53.5871 20.3042 52.8665L20.2996 52.8794V52.8594C20.0344 53.1311 19.813 53.3924 19.631 53.6434C19.327 54.0619 19.1295 54.4507 19.014 54.8104C18.4777 54.5374 17.7426 54.3582 16.737 54.3472L16.7435 54.3595L16.7293 54.3453C16.7319 54.5988 16.7454 54.8349 16.768 55.0549C16.8364 55.716 16.99 56.2322 17.1959 56.6359C16.9816 56.7057 16.7564 56.8053 16.5215 56.9393C16.2078 57.1178 15.8754 57.3578 15.525 57.6722C15.4372 57.7511 15.3488 57.8339 15.2591 57.9219L15.272 57.9264H15.252C15.8844 58.5468 16.4608 58.9265 16.9797 59.1361V59.138Z" fill="#C56B15"/>
<path d="M13.451 35.864C13.1612 36.7075 13.2161 37.6138 13.6065 38.416C13.9964 39.2181 14.6753 39.8197 15.5169 40.1101C15.8725 40.233 16.2391 40.2938 16.6051 40.2938C16.971 40.2938 17.3524 40.2298 17.7106 40.1024C17.83 40.0597 17.9475 40.0105 18.063 39.9542C18.3631 39.8074 18.6349 39.6204 18.873 39.3992C19.2699 39.0305 19.572 38.5673 19.7533 38.0401C20.0567 37.1571 20.2393 35.483 20.1877 34.0592C20.138 32.6865 19.854 30.9729 18.7839 30.6036C18.3154 30.4419 17.8075 30.5764 17.3111 30.8662C17.1692 30.949 17.0285 31.0447 16.8891 31.1495C16.7503 31.2543 16.6128 31.3688 16.4792 31.4898C16.1449 31.7912 15.8306 32.1322 15.555 32.4601C14.9825 33.1413 14.4223 33.9564 14.0086 34.6873C13.7601 35.1259 13.5652 35.5341 13.451 35.8653V35.864ZM17.9882 31.4452C18.1321 31.3869 18.2567 31.3604 18.3599 31.3604C18.418 31.3604 18.4696 31.3688 18.5148 31.3844C18.6878 31.4439 18.8311 31.6017 18.9479 31.8307C18.995 31.9226 19.0376 32.0261 19.0757 32.1393C19.1718 32.422 19.2428 32.7667 19.2919 33.1471C19.3693 33.7558 19.3893 34.4558 19.3635 35.1408C19.3603 35.2262 19.3564 35.3122 19.3513 35.397C19.3416 35.5671 19.33 35.7353 19.3151 35.9002C19.3003 36.0652 19.2828 36.2269 19.2628 36.3835C19.2428 36.54 19.2209 36.6914 19.1964 36.8363C19.135 37.1985 19.0595 37.5181 18.973 37.771C18.8885 38.0168 18.7697 38.2413 18.6239 38.4399C18.5264 38.5725 18.4174 38.6941 18.298 38.8041C18.1786 38.9134 18.0495 39.0111 17.912 39.0952C17.6377 39.2634 17.3324 39.3785 17.0136 39.4322C16.6148 39.4995 16.194 39.4704 15.7854 39.3294C14.4778 38.8778 13.7802 37.4443 14.2306 36.1338C14.4604 35.4655 15.2233 34.1375 16.1856 32.9925C16.9471 32.0856 17.5564 31.6218 17.9882 31.4458V31.4452Z" fill="#C56B15"/>
<path d="M15.6412 37.4547C15.7755 37.731 16.0085 37.9373 16.297 38.0369C16.4189 38.0796 16.5448 38.101 16.6707 38.101C17.0773 38.101 17.5697 37.861 17.7536 37.3254C18.0286 36.5258 18.1486 35.007 18.146 33.8574C18.146 33.7255 18.0828 33.6045 17.9815 33.5282C17.9479 33.503 17.9098 33.4823 17.8679 33.468C17.702 33.4105 17.5181 33.4648 17.4096 33.6032C17.2322 33.829 17.0469 34.078 16.8649 34.3368C16.3176 35.113 15.7942 35.9773 15.5883 36.5776C15.4889 36.8674 15.5076 37.1785 15.6419 37.4547H15.6412ZM17.2728 35.2004C17.2438 35.5911 17.2025 35.9572 17.1515 36.2748C17.1005 36.5925 17.0405 36.8616 16.9733 37.0563C16.9437 37.1423 16.8894 37.1966 16.8314 37.2296C16.7733 37.2626 16.7126 37.2743 16.67 37.2743C16.6364 37.2743 16.601 37.2678 16.5655 37.2555C16.4848 37.2277 16.4196 37.1695 16.3822 37.0925C16.3447 37.0149 16.3389 36.9275 16.3667 36.8467C16.4983 36.4637 16.8391 35.8518 17.2728 35.2004Z" fill="#C56B15"/>
<path d="M27.3347 41.8186C27.5503 41.8548 27.7645 41.8723 27.9756 41.8723C28.5571 41.8723 29.118 41.7403 29.624 41.501C29.9273 41.3574 30.2113 41.1749 30.4681 40.9595C30.725 40.7441 30.9541 40.4951 31.149 40.2176C31.4737 39.7557 31.7028 39.2155 31.8015 38.6224C32.0035 37.4088 31.8564 34.5677 31.16 32.5145C30.7424 31.2828 30.1267 30.3345 29.2709 30.1909C27.9898 29.9787 26.748 31.5811 25.9323 32.9647C25.0777 34.415 24.3259 36.2554 24.1451 37.3409C23.7928 39.4562 25.2236 41.4647 27.3341 41.8179L27.3347 41.8186ZM24.9454 38.3979C24.9048 38.0997 24.9074 37.7898 24.959 37.4774C25.0984 36.6429 25.7354 34.9248 26.6428 33.3852C26.8094 33.1019 26.9759 32.8412 27.1411 32.6044C27.2508 32.4466 27.3599 32.2991 27.467 32.1626C27.6819 31.8903 27.8917 31.6613 28.0918 31.4814C28.4422 31.1658 28.7636 30.9982 29.0347 30.9982C29.0689 30.9982 29.1031 31.0008 29.136 31.0066C30.5417 31.2421 31.3259 36.4624 30.989 38.4865C30.7115 40.1522 29.1328 41.2823 27.4709 41.0035C27.367 40.9861 27.265 40.9634 27.1656 40.9362C26.9668 40.8819 26.7771 40.8082 26.5983 40.7176C26.5086 40.6723 26.4221 40.6232 26.3382 40.5695C26.0872 40.4097 25.8619 40.2143 25.6696 39.9918C25.5411 39.8437 25.4269 39.6832 25.3288 39.5138C25.2307 39.3436 25.1487 39.1644 25.0842 38.9775C25.0197 38.7905 24.9732 38.5965 24.9461 38.3979H24.9454Z" fill="#C56B15"/>
<path d="M27.7218 39.5082C27.8076 39.5224 27.8941 39.5295 27.9793 39.5295C28.3568 39.5295 28.7054 39.3937 28.9745 39.164C29.1094 39.0495 29.2243 38.9111 29.314 38.7546C29.3585 38.6763 29.3966 38.5935 29.4276 38.5068C29.4585 38.4201 29.4824 38.3296 29.4979 38.2364C29.5392 37.9893 29.5579 37.6697 29.5566 37.3062C29.5566 37.2156 29.5547 37.1218 29.5521 37.0261C29.5463 36.8346 29.536 36.6341 29.5211 36.4277C29.5134 36.3249 29.505 36.2201 29.4953 36.1153C29.4663 35.7996 29.4282 35.4755 29.3804 35.1553C29.3488 34.9418 29.314 34.7303 29.2752 34.524C29.2172 34.2147 29.1513 33.9172 29.0784 33.6442C29.0365 33.4877 28.9074 33.3699 28.748 33.3434C28.7079 33.3369 28.6679 33.3363 28.6292 33.3408C28.5124 33.355 28.4059 33.4197 28.3381 33.5206C27.8657 34.2244 27.3804 35.1547 27.017 36.0098C26.7343 36.6748 26.5252 37.2945 26.4529 37.7273C26.3651 38.2532 26.5549 38.7623 26.9144 39.1052C27.1299 39.3102 27.4068 39.4558 27.7224 39.5088L27.7218 39.5082ZM27.8567 38.6925C27.4655 38.6271 27.2003 38.2545 27.2661 37.8625C27.3229 37.5222 27.483 37.0364 27.7024 36.5028C27.8121 36.2356 27.9373 35.9561 28.0716 35.6773C28.2058 35.3979 28.3497 35.1184 28.4969 34.8513C28.7086 36.0551 28.7983 37.42 28.6847 38.1006C28.6518 38.2953 28.5414 38.4589 28.391 38.5663C28.2407 38.6737 28.0496 38.7242 27.8567 38.6931V38.6925Z" fill="#C56B15"/>
<path d="M50.1208 99.2924C50.2918 99.251 50.4628 99.2077 50.6332 99.1643C50.7636 99.1307 50.8933 99.0971 51.0231 99.0628C51.1947 99.0168 51.3651 98.969 51.5355 98.9211C51.6607 98.8855 51.7859 98.8512 51.9111 98.8144C52.0944 98.7607 52.2771 98.7044 52.4597 98.6481C52.5694 98.6145 52.6798 98.5815 52.7895 98.5466C52.9664 98.4903 53.1419 98.4314 53.3181 98.3725C53.4246 98.337 53.5317 98.3033 53.6376 98.2671C51.3742 97.7709 49.1391 97.0658 46.9428 96.0684C43.0427 94.2972 39.5001 91.7511 36.466 88.6726L36.4428 88.7366C34.7409 87.8704 32.4058 87.3012 29.2137 87.2663L29.2337 87.3064L29.1891 87.2617C29.2246 90.48 29.7997 92.8268 30.6716 94.5353C29.1627 95.0295 27.4859 95.9888 25.6523 97.5821H25.6536C27.2788 98.2315 28.9549 98.7762 30.6729 99.2116C30.7284 99.2258 30.7833 99.2407 30.8388 99.2542C31.0576 99.3086 31.2783 99.3603 31.4984 99.4108C31.5887 99.4315 31.6791 99.4528 31.7701 99.4735C31.9708 99.5182 32.1722 99.5609 32.3736 99.6023C32.4859 99.6256 32.5981 99.6488 32.7111 99.6715C32.8996 99.709 33.088 99.7439 33.2771 99.7789C33.4049 99.8021 33.5333 99.8254 33.6618 99.8474C33.8399 99.8785 34.0193 99.9082 34.1981 99.9367C34.3401 99.9593 34.4814 99.9807 34.6241 100.002C34.7932 100.027 34.9629 100.052 35.1333 100.074C35.2869 100.095 35.4411 100.115 35.5954 100.133C35.7567 100.153 35.9187 100.173 36.0807 100.191C36.2472 100.21 36.4151 100.226 36.5822 100.242C36.7339 100.257 36.8849 100.272 37.0372 100.285C37.2212 100.302 37.4057 100.314 37.5903 100.328C37.7284 100.338 37.8659 100.349 38.004 100.358C38.2157 100.371 38.4281 100.381 38.6404 100.391C38.7533 100.396 38.8663 100.403 38.9799 100.408C39.3064 100.42 39.6343 100.429 39.9628 100.434C40.2623 100.437 40.5611 100.439 40.8586 100.436L40.9283 100.435C41.0335 100.434 41.1381 100.431 41.2427 100.429H41.273C41.4795 100.424 41.6854 100.421 41.8906 100.414C42.0139 100.41 42.1372 100.404 42.2598 100.399L42.3166 100.397C42.4941 100.389 42.6716 100.38 42.8491 100.371C42.9781 100.364 43.1072 100.355 43.2363 100.347L43.3157 100.342C43.4803 100.331 43.6442 100.318 43.8075 100.305C43.9359 100.294 44.0643 100.284 44.1928 100.272C44.2263 100.269 44.2605 100.267 44.2941 100.264C44.4535 100.249 44.6123 100.232 44.7711 100.216C44.8937 100.203 45.0157 100.191 45.1376 100.177C45.1783 100.173 45.2196 100.169 45.2603 100.164C45.4281 100.145 45.5946 100.122 45.7611 100.1C45.865 100.087 45.9696 100.074 46.0735 100.06C46.2865 100.031 46.4988 99.9988 46.7105 99.9665C46.8047 99.9522 46.8989 99.9393 46.9932 99.9244C47.0338 99.9179 47.0738 99.9102 47.1139 99.9037C47.292 99.8746 47.4701 99.8436 47.6476 99.8125C47.7354 99.797 47.8238 99.7821 47.9109 99.7659C48.0239 99.7452 48.1355 99.7226 48.2485 99.7006C48.3576 99.6792 48.4666 99.6592 48.5751 99.6372C48.6583 99.6204 48.7409 99.6036 48.8235 99.5861C48.95 99.5596 49.0759 99.5318 49.2024 99.5039C49.2998 99.4826 49.3979 99.4625 49.4947 99.4405C49.5406 99.4302 49.5864 99.4192 49.6322 99.4088C49.6651 99.4011 49.6974 99.3933 49.7303 99.3856C49.8607 99.3552 49.9911 99.3241 50.1208 99.2924Z" fill="#C56B15"/>
<path d="M78.2592 70.7164C68.1896 74.0718 54.7943 75.9199 40.5393 75.9199C36.2274 75.9199 31.9949 75.7498 27.9082 75.4212C28.0186 75.7058 28.1257 75.9911 28.2425 76.2731L28.2438 76.2764C32.2285 76.5862 36.3468 76.7466 40.5393 76.7466C54.8802 76.7466 68.3684 74.8836 78.5193 71.5011C78.8407 71.3944 79.1569 71.2857 79.4693 71.1764C79.5629 70.8529 79.6526 70.5282 79.7384 70.2021C79.2557 70.3762 78.7645 70.5482 78.2585 70.7164H78.2592Z" fill="#7F3912"/>
<path d="M78.2604 65.0699C68.1909 68.4253 54.7956 70.2734 40.5406 70.2734C35.622 70.2734 30.806 70.0535 26.1934 69.6272C26.2514 69.9079 26.3108 70.1887 26.376 70.4681L26.3779 70.4726C30.9377 70.8853 35.6898 71.0995 40.5406 71.0995C54.8814 71.0995 68.3697 69.2364 78.5205 65.8539C79.2886 65.5977 80.0282 65.3345 80.7446 65.0654C80.784 64.7594 80.8188 64.4528 80.8517 64.1448V64.1436C80.025 64.4605 79.1621 64.7691 78.2611 65.0692L78.2604 65.0699Z" fill="#7F3912"/>
<path d="M77.2252 42.5046C77.1065 42.2523 76.9851 42.0026 76.8619 41.7529C66.9659 44.825 54.1483 46.5127 40.5406 46.5127C36.9257 46.5127 33.3702 46.3898 29.9064 46.1575L29.858 46.1543L29.9057 46.1575C29.7857 46.4247 29.6669 46.6925 29.5469 46.9603C33.125 47.2081 36.8012 47.3394 40.5406 47.3394C54.2838 47.3394 67.2357 45.6245 77.2259 42.5046H77.2252Z" fill="#7F3912"/>
<path d="M2.70628 71.5483C3.04834 71.6615 3.39492 71.7728 3.74408 71.8828C3.8822 71.9261 4.02096 71.9688 4.16036 72.0115C4.47145 72.1072 4.78511 72.201 5.102 72.2942C5.20527 72.3246 5.30789 72.3556 5.4118 72.3854C5.82937 72.5064 6.25211 72.6241 6.67936 72.7405C6.7723 72.7658 6.86589 72.7904 6.95947 72.8156C7.3338 72.9158 7.71136 73.0142 8.09279 73.1112C8.1754 73.1325 8.25801 73.1533 8.34127 73.1746C9.29776 73.4139 10.2749 73.6429 11.2714 73.859L11.3275 73.8713C16.5166 74.9956 22.2271 75.8055 28.2441 76.2732C28.1273 75.9911 28.0195 75.7058 27.9098 75.4212V75.4193L27.9014 75.4186C22.6079 74.9923 17.5602 74.2989 12.9075 73.3583L12.8752 73.3518C12.4041 73.2561 11.9374 73.1578 11.474 73.0575C11.4095 73.0433 11.3443 73.0297 11.2798 73.0155C10.3433 72.8104 9.4249 72.5943 8.52392 72.3686C8.41227 72.3408 8.3019 72.3123 8.19089 72.2838C7.84044 72.1946 7.49321 72.1034 7.14857 72.0109C7.05047 71.9843 6.95172 71.9585 6.85427 71.9319C6.44315 71.82 6.0359 71.7055 5.63317 71.5891C5.51312 71.5542 5.39437 71.5186 5.27497 71.4837C4.98067 71.397 4.68895 71.309 4.39916 71.2204C4.25847 71.177 4.11777 71.1337 3.97836 71.0903C3.64017 70.9843 3.30521 70.8762 2.97412 70.7669C2.92313 70.7501 2.87021 70.7339 2.81987 70.7171C2.31968 70.5502 1.83305 70.3801 1.35545 70.208H1.35352C1.44064 70.534 1.531 70.8588 1.62587 71.1822H1.62781C1.93438 71.2902 2.24481 71.3963 2.55977 71.5011C2.60818 71.5173 2.65787 71.5322 2.70628 71.5483Z" fill="#552611"/>
<path d="M2.74429 65.9141C3.05279 66.0156 3.36452 66.1166 3.67883 66.2155C3.82017 66.2602 3.96281 66.3035 4.10544 66.3475C4.36747 66.4283 4.63144 66.5079 4.89735 66.5868C5.03094 66.6263 5.1639 66.6664 5.29879 66.7052C5.68538 66.8178 6.07456 66.9284 6.4689 67.0364L6.48826 67.0422C6.91551 67.1593 7.34858 67.2738 7.78487 67.3857C7.85328 67.4032 7.92299 67.4207 7.9914 67.4381C8.38509 67.5384 8.78137 67.6367 9.18216 67.7331C9.22605 67.7435 9.26929 67.7545 9.31318 67.7648C14.4983 69.0029 20.2631 69.9137 26.3744 70.4675C26.3092 70.188 26.2498 69.9073 26.1917 69.6265L26.1904 69.6214H26.184C20.1914 69.067 14.5416 68.1672 9.45775 66.9497C9.41257 66.9387 9.36739 66.9277 9.32221 66.9174C8.92336 66.821 8.52902 66.7233 8.13726 66.6231C8.08046 66.6082 8.02238 66.594 7.96558 66.5797C7.53639 66.4691 7.11172 66.3565 6.69156 66.2414C6.6509 66.2304 6.61153 66.2188 6.57152 66.2078C6.21719 66.1101 5.86738 66.0105 5.51951 65.9095C5.38333 65.8701 5.24844 65.83 5.11356 65.7899C4.85604 65.7135 4.60046 65.6359 4.34617 65.5576C4.20289 65.5137 4.05962 65.4697 3.91763 65.425C3.61235 65.3287 3.31031 65.231 3.01084 65.1326C2.94694 65.1113 2.88047 65.0912 2.81657 65.0699C1.91688 64.7704 1.05527 64.4618 0.229806 64.1455H0.228516L0.237551 64.2218C0.259495 64.4224 0.28402 64.6223 0.309191 64.8221C0.319517 64.9036 0.327907 64.9858 0.338234 65.0673H0.339525C1.05334 65.3358 1.79039 65.5984 2.55583 65.8533C2.61714 65.8733 2.68039 65.8927 2.74171 65.9134L2.74429 65.9141Z" fill="#552611"/>
<path d="M5.57733 43.0179C5.72835 43.0613 5.88067 43.1033 6.03298 43.146C6.49186 43.2747 6.95591 43.4002 7.42511 43.5238C7.57807 43.5639 7.73039 43.6046 7.88464 43.6447C8.47131 43.7948 9.06443 43.9417 9.66659 44.0833C9.8273 44.1208 9.99187 44.1571 10.1539 44.1939C10.5992 44.2961 11.0477 44.3964 11.5008 44.4941C11.7545 44.5484 12.01 44.6028 12.2663 44.6558C12.6483 44.7347 13.0336 44.8117 13.4202 44.8874C13.6861 44.9391 13.9495 44.9928 14.218 45.0433C14.7749 45.1481 15.3371 45.249 15.9037 45.3467C16.2665 45.4094 16.633 45.4689 16.9996 45.5285C17.2636 45.5711 17.5276 45.6138 17.7935 45.6559C18.1981 45.7193 18.6041 45.7814 19.0133 45.8409C19.1843 45.8661 19.3573 45.8894 19.5296 45.914C20.4822 46.0492 21.4452 46.176 22.4204 46.2924C22.4571 46.2969 22.4939 46.3015 22.5307 46.306C23.0496 46.3675 23.5718 46.4257 24.0965 46.4813C24.201 46.4923 24.3062 46.5033 24.4114 46.5143C26.0856 46.6896 27.7875 46.8377 29.514 46.9574L29.5456 46.96C29.6656 46.6928 29.785 46.425 29.9044 46.1572L29.8567 46.154C28.7517 46.0796 27.6578 45.9929 26.5735 45.8952C26.4799 45.8868 26.3857 45.8791 26.2921 45.8707C25.8055 45.826 25.3221 45.7782 24.84 45.729C24.6547 45.7102 24.4702 45.6908 24.2856 45.6708C23.8144 45.621 23.3439 45.5699 22.8773 45.5155L22.827 45.509C21.886 45.3991 20.9566 45.2781 20.0369 45.1507C19.7749 45.1145 19.5122 45.0782 19.2514 45.0407C18.8816 44.987 18.5144 44.932 18.1484 44.8751C17.8328 44.8266 17.5192 44.7761 17.2062 44.725C16.8828 44.6726 16.5582 44.6209 16.2381 44.5665C15.6546 44.4669 15.0776 44.3634 14.5052 44.2567C14.2535 44.2095 14.0056 44.1603 13.7559 44.1118C13.3538 44.0335 12.9543 43.9546 12.558 43.8724C12.3166 43.8226 12.0759 43.7728 11.8371 43.7217C11.353 43.6182 10.8741 43.5121 10.3991 43.4035C10.27 43.3737 10.139 43.3459 10.0106 43.3155C9.40778 43.1745 8.81402 43.0283 8.2267 42.8788C8.07052 42.8394 7.91755 42.798 7.76266 42.7579C7.29926 42.6369 6.84167 42.514 6.3886 42.3878C6.23693 42.3458 6.08526 42.3038 5.93488 42.2611C5.35531 42.0961 4.78155 41.9279 4.2207 41.7539H4.21941C4.09872 41.9965 3.97415 42.2371 3.85798 42.4823L3.84766 42.5023H3.8483C4.41432 42.6789 4.9926 42.8497 5.57733 43.0173V43.0179Z" fill="#552611"/>
</g>
<defs>
<clipPath id="clip0_6204_75143">
<rect width="81.0811" height="100" fill="white" transform="translate(0 0.438477)"/>
</clipPath>
</defs>
</svg>
