<svg width="58" height="101" viewBox="0 0 58 101" fill="none" xmlns="http://www.w3.org/2000/svg">
<path d="M4.39264 92.1625C4.38245 92.2718 4.38209 92.3815 4.39191 92.49C4.4403 93.034 5.09587 97.7857 13.1352 98.833C13.3593 98.9104 13.5954 98.95 13.8358 98.95H47.4275C47.6582 98.95 47.8841 98.9119 48.0998 98.8374C56.3032 97.7806 56.8413 92.9254 56.8758 92.3697C56.882 92.2747 56.8769 92.146 56.8674 92.0513C55.5898 78.9248 51.2784 35.7364 49.4372 31.1017C49.0617 30.1586 48.5331 29.2409 47.8583 28.3605C48.0587 27.899 48.1664 27.3961 48.1664 26.8819C48.1664 26.343 48.0525 25.8229 47.8393 25.3493C48.0529 24.8758 48.1664 24.3556 48.1664 23.8168C48.1664 23.0222 47.9114 22.2585 47.4563 21.6306L48.1067 17.2233C48.3308 16.2083 49.5023 10.066 45.6558 7.34788C43.1034 5.54571 36.5022 5.03841 31.3635 4.93203C31.2776 4.92213 31.1888 4.91699 31.0961 4.91699H31.0953L30.6544 4.92103L30.1553 4.91699C30.0705 4.91699 29.985 4.92213 29.901 4.93203C24.7616 5.03841 18.1615 5.54645 15.6079 7.34934C11.7414 10.0799 12.9671 16.3444 13.1541 17.1917L13.8097 21.6317C13.356 22.2589 13.1021 23.0226 13.1021 23.8164C13.1021 24.3553 13.2152 24.8754 13.4284 25.349C13.2152 25.8225 13.1021 26.3427 13.1021 26.8815C13.1021 27.3954 13.2094 27.8979 13.4087 28.359C12.7343 29.2398 12.2057 30.1579 11.8317 31.1013C9.76272 36.2969 4.44539 91.6071 4.39264 92.1625Z" fill="white"/>
<path d="M4.16003 91.8929C4.15021 92.0022 4.14948 92.1119 4.15967 92.2205C4.20769 92.7645 4.86363 97.5162 12.9029 98.5638C13.127 98.6412 13.3628 98.6808 13.6032 98.6808H47.1953C47.4259 98.6808 47.6515 98.6427 47.8676 98.5682C56.0706 97.5111 56.609 92.6563 56.6436 92.1009C56.6498 92.0056 56.6447 91.8764 56.6352 91.7818C55.3579 78.6553 51.0465 35.4669 49.2049 30.8325C48.8295 29.8895 48.3009 28.9713 47.6267 28.0913C47.8265 27.6295 47.9345 27.1266 47.9345 26.6131C47.9345 26.0739 47.8214 25.5537 47.6071 25.0802C47.8214 24.6062 47.9345 24.0865 47.9345 23.5472C47.9345 22.7527 47.6791 21.989 47.2244 21.361L47.8745 16.9541C48.0986 15.9388 49.2704 9.79681 45.4236 7.07834C42.8715 5.27692 36.2703 4.76924 31.1316 4.66287C31.0454 4.65333 30.9566 4.64746 30.8642 4.64746H30.8631L30.4222 4.65186L29.9234 4.64746C29.8383 4.64746 29.7531 4.65333 29.6687 4.66287C24.5293 4.76924 17.9292 5.27728 15.3761 7.08018C11.5096 9.81038 12.7348 16.0748 12.9218 16.9226L13.5778 21.3625C13.1241 21.9897 12.8702 22.7534 12.8702 23.5472C12.8702 24.0865 12.9837 24.6062 13.1965 25.0802C12.9833 25.5537 12.8702 26.0739 12.8702 26.6131C12.8702 27.1262 12.9771 27.6295 13.1772 28.0899C12.5027 28.971 11.9734 29.8891 11.5998 30.8325C9.53012 36.027 4.21242 91.3376 4.16003 91.8929Z" fill="#F1F1F1"/>
<path d="M3.92779 91.6228C3.91761 91.7317 3.91724 91.8418 3.92707 91.9504C3.97545 92.4944 4.63102 97.2457 12.6703 98.2933C12.8944 98.3704 13.1305 98.4104 13.371 98.4104H46.9623C47.193 98.4104 47.4192 98.3722 47.635 98.2977C55.8383 97.2409 56.3764 92.3858 56.411 91.8301C56.4168 91.7347 56.4121 91.6059 56.4026 91.5113C55.1249 78.3852 50.8131 35.1967 48.9719 30.562C48.5965 29.619 48.0679 28.7008 47.3934 27.8205C47.5935 27.359 47.7015 26.8565 47.7015 26.3422C47.7015 25.8033 47.5877 25.2828 47.3745 24.8093C47.588 24.3357 47.7015 23.8159 47.7015 23.2771C47.7015 22.4822 47.4462 21.7185 46.9914 21.0905L47.6415 16.6836C47.8664 15.6683 49.0374 9.5263 45.191 6.80784C42.6385 5.00641 36.037 4.4991 30.899 4.39236C30.8124 4.38246 30.7236 4.37695 30.6309 4.37695H30.6301L30.1896 4.38135L29.6904 4.37695C29.6053 4.37695 29.5202 4.38246 29.4358 4.39236C24.2967 4.4991 17.6962 5.00677 15.1427 6.8093C11.2766 9.54024 12.5019 15.8051 12.6889 16.652L13.3448 21.092C12.8908 21.7192 12.6376 22.4829 12.6376 23.2771C12.6376 23.8159 12.7507 24.3357 12.9635 24.8093C12.7507 25.2828 12.6376 25.8033 12.6376 26.3422C12.6376 26.8561 12.7442 27.3586 12.9439 27.8194C12.2694 28.7001 11.7408 29.6186 11.3665 30.562C9.29751 35.7569 3.98018 91.0674 3.92779 91.6228Z" fill="#E2E2E2"/>
<path d="M3.69523 91.3529C3.68505 91.4622 3.68505 91.5719 3.69451 91.6805C3.74289 92.2244 4.39919 96.9765 12.4378 98.0238C12.6619 98.1012 12.898 98.1404 13.1384 98.1404H46.7301C46.9608 98.1404 47.1867 98.1023 47.4024 98.0282C55.6058 96.9714 56.1438 92.1159 56.1784 91.5605C56.1846 91.4651 56.1795 91.3364 56.1704 91.2421C54.8593 78.1193 50.581 34.9272 48.7401 30.2925C48.3647 29.3494 47.8357 28.4317 47.1612 27.5509C47.362 27.0895 47.4694 26.5869 47.4694 26.0727C47.4694 25.5334 47.3555 25.0137 47.1423 24.5397C47.3558 24.0662 47.4694 23.5464 47.4694 23.0076C47.4694 22.213 47.2143 21.449 46.7592 20.8213L47.4097 16.4141C47.6338 15.3987 48.8052 9.25677 44.9588 6.5383C42.4063 4.73651 35.8051 4.22884 30.6664 4.12246C30.5806 4.11292 30.4914 4.10742 30.3987 4.10742H30.3979L29.9574 4.11182L29.4582 4.10742C29.3735 4.10742 29.2883 4.11292 29.2036 4.12246C24.0649 4.22884 17.464 4.73724 14.9109 6.54014C11.0444 9.27071 12.27 15.5348 12.4567 16.3822L13.1126 20.8224C12.659 21.4493 12.4054 22.213 12.4054 23.0072C12.4054 23.546 12.5185 24.0658 12.731 24.5394C12.5182 25.0133 12.4054 25.5331 12.4054 26.0723C12.4054 26.5862 12.5123 27.0887 12.7117 27.5498C12.0372 28.4302 11.5086 29.3487 11.1343 30.2921C9.06495 35.4873 3.74726 90.7979 3.69523 91.3529Z" fill="#D4D4D4"/>
<path d="M3.461 91.0832C3.45081 91.1929 3.45045 91.3026 3.46027 91.4115C3.50866 91.9555 4.16423 96.7069 12.2035 97.7545C12.4276 97.8319 12.6637 97.8712 12.9042 97.8712H46.4959C46.7265 97.8712 46.9524 97.8334 47.1682 97.7589C55.3716 96.7017 55.9096 91.847 55.9442 91.2909C55.9504 91.1962 55.9453 91.0675 55.9365 90.9725C54.6585 77.8464 50.3471 34.6579 48.5059 30.0232C48.1304 29.0801 47.6018 28.1624 46.927 27.2816C47.1274 26.8202 47.2351 26.3177 47.2351 25.8037C47.2351 25.2645 47.1212 24.7444 46.9081 24.2708C47.1216 23.7973 47.2351 23.2775 47.2351 22.7379C47.2351 21.9438 46.9801 21.18 46.525 20.5517L47.1751 16.1451C47.3992 15.1298 48.5706 8.98785 44.7242 6.26975C42.1717 4.46759 35.5709 3.95992 30.4318 3.85427C30.346 3.844 30.2572 3.83887 30.1644 3.83887H30.1637L29.7228 3.8429L29.224 3.83887C29.1389 3.83887 29.0534 3.844 28.9693 3.85427C23.8299 3.95992 17.2298 4.46832 14.6763 6.27122C10.8102 9.00179 12.0354 15.2663 12.2224 16.1132L12.878 20.5532C12.4247 21.1808 12.1704 21.9445 12.1704 22.7379C12.1704 23.2775 12.2836 23.7973 12.4967 24.2708C12.2836 24.7444 12.1704 25.2645 12.1704 25.8037C12.1704 26.3169 12.2777 26.8198 12.4771 27.2809C11.803 28.1616 11.274 29.0798 10.9 30.0232C8.83108 35.2181 3.51339 90.5283 3.461 91.0832Z" fill="#C5C5C5"/>
<path d="M3.22853 90.8142C3.21834 90.9232 3.21798 91.0332 3.22816 91.1414C3.27619 91.6854 3.93248 96.4371 11.9711 97.4851C12.1952 97.5621 12.4313 97.6018 12.6717 97.6018H46.2634C46.494 97.6018 46.72 97.5636 46.9361 97.4888C55.1394 96.4327 55.6775 91.5772 55.7121 91.0215C55.7179 90.9265 55.7132 90.7973 55.7037 90.7027C54.4264 77.577 50.1146 34.3882 48.2734 29.7538C47.8983 28.8107 47.3694 27.8926 46.6949 27.0119C46.895 26.5504 47.0026 26.0479 47.0026 25.534C47.0026 24.9944 46.8891 24.4746 46.6756 24.0007C46.8895 23.5275 47.0026 23.0077 47.0026 22.4681C47.0026 21.674 46.7476 20.9103 46.2929 20.2819L46.943 15.8754C47.1674 14.8597 48.3389 8.71808 44.492 5.99924C41.94 4.19745 35.3384 3.69014 30.2001 3.58377C30.1139 3.57423 30.0251 3.56836 29.9323 3.56836H29.9316L29.4907 3.57276L28.9919 3.56836C28.9068 3.56836 28.8216 3.57423 28.7372 3.58377C23.5978 3.69014 16.9981 4.19818 14.4442 6.00071C10.5781 8.73165 11.8033 14.9961 11.9903 15.8431L12.6463 20.283C12.1922 20.9106 11.9383 21.6743 11.9383 22.4678C11.9383 23.0074 12.0518 23.5271 12.2646 24.0003C12.0515 24.4742 11.9383 24.994 11.9383 25.5336C11.9383 26.0468 12.0456 26.5497 12.2454 27.0108C11.5709 27.8911 11.0419 28.81 10.6679 29.7534C8.59861 34.9483 3.28128 90.2588 3.22853 90.8142Z" fill="#B7B7B7"/>
<path d="M2.99615 90.5439C2.98597 90.6532 2.9856 90.7626 2.99543 90.8719C3.04381 91.4159 3.69975 96.1672 11.739 97.2145C11.9628 97.2915 12.1989 97.3318 12.4394 97.3318H46.031C46.2613 97.3318 46.4876 97.2937 46.7033 97.2192C54.9067 96.1624 55.4448 91.3073 55.4793 90.7512C55.4855 90.6558 55.4804 90.5274 55.4713 90.4332C54.194 77.3067 49.8822 34.1179 48.041 29.4835C47.6656 28.5405 47.1366 27.6223 46.4621 26.742C46.6622 26.2805 46.7703 25.7776 46.7703 25.2637C46.7703 24.7249 46.6564 24.2047 46.4432 23.7308C46.6568 23.2572 46.7703 22.7375 46.7703 22.1986C46.7703 21.4037 46.5149 20.64 46.0601 20.0124L46.7102 15.6051C46.9347 14.5901 48.1061 8.44744 44.2597 5.72971C41.7072 3.92755 35.106 3.42024 29.9673 3.31387C29.8811 3.3036 29.7924 3.29883 29.6996 3.29883H29.6989L29.2587 3.30286L28.7592 3.29883C28.674 3.29883 28.5889 3.3036 28.5045 3.31387C23.3654 3.42024 16.765 3.92828 14.2118 5.73118C10.3453 8.46175 11.5706 14.7262 11.7576 15.5736L12.4135 20.0135C11.9599 20.6404 11.7063 21.4044 11.7063 22.1986C11.7063 22.7375 11.8194 23.2572 12.0323 23.7308C11.8194 24.2047 11.7063 24.7249 11.7063 25.2637C11.7063 25.7776 11.8129 26.2802 12.013 26.7409C11.3385 27.622 10.8095 28.5401 10.4352 29.4835C8.36551 34.6784 3.04818 89.9889 2.99615 90.5439Z" fill="#A8A8A8"/>
<path d="M2.76373 90.2744C2.75355 90.3833 2.75318 90.493 2.763 90.6023C2.81139 91.1463 3.46732 95.898 11.5063 96.9449C11.73 97.0223 11.9665 97.0619 12.2069 97.0619H45.7986C46.0293 97.0619 46.2548 97.0238 46.4709 96.9497C54.6743 95.8929 55.2123 91.0377 55.2465 90.482C55.2531 90.3866 55.248 90.2583 55.2389 90.1636C53.9612 77.0368 49.6494 33.8484 47.8086 29.2136C47.4328 28.2713 46.9042 27.3528 46.2297 26.4724C46.4302 26.0114 46.5375 25.5081 46.5375 24.9938C46.5375 24.4553 46.424 23.9348 46.2108 23.4616C46.4243 22.9877 46.5375 22.4679 46.5375 21.9291C46.5375 21.1342 46.2828 20.3705 45.8277 19.7429L46.4782 15.3352C46.7023 14.3202 47.8737 8.17791 44.0273 5.46018C41.4748 3.65802 34.8736 3.15035 29.7349 3.04434C29.6491 3.03407 29.5599 3.0293 29.4672 3.0293H29.4664L29.0259 3.03333L28.5267 3.0293C28.442 3.0293 28.3565 3.03407 28.2721 3.04434C23.133 3.15035 16.5325 3.65875 13.9794 5.46165C10.1129 8.19185 11.3385 14.4567 11.5252 15.3037L12.1811 19.7443C11.7275 20.3712 11.4735 21.1349 11.4735 21.9291C11.4735 22.4679 11.587 22.9877 11.7998 23.4616C11.587 23.9348 11.4735 24.4553 11.4735 24.9938C11.4735 25.5081 11.5808 26.0103 11.7802 26.4713C11.1057 27.3524 10.5767 28.2709 10.2028 29.2136C8.13381 34.4085 2.81576 89.7187 2.76373 90.2744Z" fill="#9A9A9A"/>
<path d="M2.53118 90.0052C2.52136 90.1142 2.52063 90.2242 2.53045 90.3328C2.5792 90.8768 3.23477 95.6285 11.2737 96.6761C11.4978 96.7532 11.7339 96.7931 11.9748 96.7931H45.5661C45.7971 96.7931 46.023 96.755 46.2384 96.6802C54.4417 95.6234 54.9813 90.7686 55.0147 90.2129C55.0209 90.1175 55.0154 89.9887 55.0067 89.8941C53.7287 76.7676 49.4173 33.5792 47.5761 28.9445C47.2006 28.0018 46.672 27.0836 45.9972 26.2033C46.1976 25.7418 46.3053 25.2389 46.3053 24.725C46.3053 24.1858 46.1918 23.6657 45.9786 23.1921C46.1922 22.7185 46.3053 22.1988 46.3053 21.6595C46.3053 20.865 46.0503 20.1013 45.5952 19.4733L46.2456 15.0664C46.4697 14.0511 47.6412 7.90911 43.7951 5.19065C41.2423 3.38885 34.6411 2.88155 29.5024 2.77517C29.4165 2.76527 29.3277 2.75977 29.235 2.75977H29.2343L28.7933 2.76417L28.2946 2.75977C28.2094 2.75977 28.1239 2.76527 28.0403 2.77517C22.9005 2.88155 16.3004 3.38959 13.7468 5.19212C9.88107 7.92269 11.106 14.1872 11.2934 15.0345L11.9489 19.4744C11.4949 20.1017 11.241 20.8654 11.241 21.6592C11.241 22.1984 11.3548 22.7182 11.5677 23.1917C11.3548 23.6653 11.241 24.1854 11.241 24.7246C11.241 25.2382 11.3483 25.7411 11.5476 26.2018C10.8732 27.0825 10.3449 28.001 9.97057 28.9441C7.90162 34.1393 2.58393 89.4499 2.53118 90.0052Z" fill="#8B8B8B"/>
<path d="M2.29721 89.7351C2.28666 89.844 2.28629 89.9541 2.29648 90.063C2.34632 90.6067 3.00044 95.3584 11.0394 96.406C11.2635 96.483 11.4996 96.523 11.7401 96.523H45.3317C45.5624 96.523 45.7883 96.4845 46.0044 96.4104C54.2078 95.3536 54.7458 90.4984 54.7804 89.9427C54.7862 89.8473 54.7811 89.7186 54.772 89.624C53.4943 76.4978 49.1829 33.3094 47.3417 28.6747C46.9663 27.7316 46.4377 26.8135 45.7628 25.9331C45.9633 25.4713 46.071 24.9691 46.071 24.4549C46.071 23.916 45.9575 23.3955 45.7439 22.922C45.9578 22.4484 46.071 21.9286 46.071 21.3894C46.071 20.5949 45.8159 19.8312 45.3612 19.2028L46.0113 14.7963C46.2358 13.7813 47.4072 7.63897 43.5604 4.92051C41.0083 3.11871 34.4067 2.61141 29.2684 2.50466C29.1822 2.49513 29.0934 2.48926 29.0003 2.48926L28.5586 2.49403L28.0602 2.48926C27.9751 2.48926 27.8896 2.49513 27.8056 2.50466C22.6658 2.61141 16.066 3.11908 13.5125 4.92197C9.64637 7.65291 10.8717 13.9174 11.0587 14.7647L11.7146 19.2047C11.2606 19.8319 11.0066 20.5956 11.0066 21.3894C11.0066 21.9286 11.1205 22.4484 11.3333 22.922C11.1205 23.3955 11.0066 23.916 11.0066 24.4549C11.0066 24.9688 11.114 25.4713 11.3137 25.932C10.6392 26.8128 10.1102 27.7313 9.73587 28.6747C7.66656 33.8692 2.34923 89.1801 2.29721 89.7351Z" fill="#7D7D7D"/>
<path d="M2.06424 89.4648C2.05442 89.5745 2.05405 89.6842 2.06351 89.7928C2.11226 90.3368 2.7682 95.0885 10.8071 96.1361C11.0309 96.2135 11.267 96.2527 11.5075 96.2527H45.0991C45.3298 96.2527 45.5557 96.2142 45.7714 96.1405C53.9748 95.0833 54.5129 90.2282 54.5474 89.6728C54.5536 89.5774 54.5485 89.4487 54.5394 89.3541C53.2308 76.2309 48.9503 33.0395 47.1091 28.4044C46.7337 27.4614 46.2047 26.5436 45.5306 25.6636C45.7307 25.2018 45.8384 24.6993 45.8384 24.1846C45.8384 23.6458 45.7249 23.126 45.5113 22.6521C45.7252 22.1785 45.8384 21.6584 45.8384 21.1195C45.8384 20.325 45.583 19.5609 45.1282 18.9333L45.7783 14.526C46.0028 13.511 47.1742 7.36907 43.3278 4.65061C40.7753 2.84881 34.1745 2.34114 29.0354 2.23477C28.9492 2.22523 28.8604 2.21973 28.768 2.21973H28.7669L28.3264 2.22376L27.8272 2.21973C27.7425 2.21973 27.6573 2.22523 27.5726 2.23477C22.4339 2.34114 15.8331 2.84918 13.2799 4.65244C9.41377 7.38265 10.6387 13.6471 10.8257 14.4948L11.4816 18.9348C11.0283 19.562 10.7744 20.3253 10.7744 21.1195C10.7744 21.6584 10.8875 22.1785 11.1004 22.6521C10.8875 23.126 10.7744 23.6458 10.7744 24.1846C10.7744 24.6985 10.881 25.2014 11.0811 25.6625C10.4066 26.5429 9.87762 27.461 9.50363 28.4044C7.43432 33.5989 2.11626 88.9095 2.06424 89.4648Z" fill="#6E6E6E"/>
<path d="M1.83209 89.1953C1.82191 89.3046 1.82154 89.4147 1.83136 89.5232C1.87975 90.0672 2.53532 94.8186 10.5746 95.8666C10.7984 95.9436 11.0348 95.9832 11.2753 95.9832H44.867C45.0976 95.9832 45.3235 95.9454 45.5393 95.8706C53.7426 94.8138 54.2807 89.959 54.3153 89.4033C54.3214 89.3079 54.3164 89.1792 54.3073 89.0845C53.0296 75.9581 48.7182 32.7696 46.877 28.1349C46.5015 27.1922 45.9729 26.2741 45.2981 25.3937C45.4985 24.9323 45.6058 24.4294 45.6058 23.9154C45.6058 23.3762 45.4923 22.8561 45.2791 22.3825C45.4927 21.909 45.6058 21.3892 45.6058 20.85C45.6058 20.0554 45.3512 19.2917 44.8961 18.6638L45.5465 14.2565C45.7706 13.2415 46.9421 7.09918 43.0956 4.38108C40.5432 2.57928 33.942 2.07161 28.8033 1.9656C28.7174 1.9557 28.6283 1.9502 28.5355 1.9502L28.0942 1.9546L27.5951 1.9502C27.5103 1.9502 27.4248 1.9557 27.3408 1.9656C22.201 2.07198 15.6005 2.58038 13.047 4.38291C9.18053 7.11348 10.4062 13.3779 10.5928 14.2253L11.2487 18.6652C10.7951 19.2925 10.5411 20.0562 10.5411 20.85C10.5411 21.3892 10.6547 21.909 10.8675 22.3825C10.6543 22.8561 10.5411 23.3762 10.5411 23.9154C10.5411 24.429 10.6485 24.9319 10.8478 25.3926C10.1733 26.2733 9.64474 27.1918 9.27075 28.1349C7.20217 33.3297 1.88484 88.6399 1.83209 89.1953Z" fill="#606060"/>
<path d="M1.83209 89.1953C1.82191 89.3046 1.82154 89.4147 1.83136 89.5232C1.87975 90.0672 2.53532 94.8186 10.5746 95.8666C10.7984 95.9436 11.0348 95.9832 11.2753 95.9832H44.867C45.0976 95.9832 45.3235 95.9454 45.5393 95.8706C53.7426 94.8138 54.2807 89.959 54.3153 89.4033C54.3214 89.3079 54.3164 89.1792 54.3073 89.0845C53.0296 75.9581 48.7182 32.7696 46.877 28.1349C46.5015 27.1922 45.9729 26.2741 45.2981 25.3937C45.4985 24.9323 45.6058 24.4294 45.6058 23.9154C45.6058 23.3762 45.4923 22.8561 45.2791 22.3825C45.4927 21.909 45.6058 21.3892 45.6058 20.85C45.6058 20.0554 45.3512 19.2917 44.8961 18.6638L45.5465 14.2565C45.7706 13.2415 46.9421 7.09918 43.0956 4.38108C40.5432 2.57928 33.942 2.07161 28.8033 1.9656C28.7174 1.9557 28.6283 1.9502 28.5355 1.9502L28.0942 1.9546L27.5951 1.9502C27.5103 1.9502 27.4248 1.9557 27.3408 1.9656C22.201 2.07198 15.6005 2.58038 13.047 4.38291C9.18053 7.11348 10.4062 13.3779 10.5928 14.2253L11.2487 18.6652C10.7951 19.2925 10.5411 20.0562 10.5411 20.85C10.5411 21.3892 10.6547 21.909 10.8675 22.3825C10.6543 22.8561 10.5411 23.3762 10.5411 23.9154C10.5411 24.429 10.6485 24.9319 10.8478 25.3926C10.1733 26.2733 9.64474 27.1918 9.27075 28.1349C7.20217 33.3297 1.88484 88.6399 1.83209 89.1953Z" fill="white"/>
<path d="M41.8549 6.16754C39.4782 4.4901 31.3446 4.19224 28.5485 4.14052V4.12988C28.5485 4.12988 28.3746 4.12988 28.0708 4.13428C27.7645 4.12988 27.5931 4.12988 27.5931 4.12988V4.14052C24.7951 4.19261 16.6612 4.4901 14.2856 6.16754C11.4043 8.203 12.7194 13.8369 12.7194 13.8369L13.7559 20.85H42.386L43.4218 13.8369C43.4218 13.8369 44.7355 8.203 41.8549 6.16754Z" fill="#C2C2C2"/>
<path d="M42.3864 21.2508H13.7563C13.5595 21.2508 13.3925 21.1052 13.363 20.9093L12.3269 13.8958C12.2774 13.6878 10.991 8.00619 14.0582 5.84015C16.463 4.14253 24.1876 3.80689 27.4985 3.74196C27.5295 3.73353 27.5604 3.72949 27.5935 3.72949L28.0774 3.73389L28.5488 3.72949C28.5819 3.72949 28.6151 3.73389 28.646 3.74196C31.9573 3.80689 39.679 4.14253 42.0823 5.83868C45.1495 8.00619 43.8653 13.6874 43.8096 13.928L42.7793 20.9093C42.7506 21.1055 42.5832 21.2508 42.3864 21.2508ZM14.099 20.45H42.0452L43.03 13.7777C43.0482 13.6922 44.2534 8.35209 41.6275 6.49491C39.3177 4.86552 31.0267 4.58711 28.5405 4.54089C28.5136 4.54015 28.487 4.53685 28.4619 4.53208L28.077 4.53538L27.6779 4.53208C27.6532 4.53722 27.6259 4.54052 27.5993 4.54089C25.1131 4.58711 16.8228 4.86552 14.5119 6.49638C11.886 8.35209 13.0942 13.6918 13.1058 13.7457L14.099 20.45Z" fill="#8E8E8D"/>
<path d="M17.1495 7.02722C18.5891 7.24841 20.0367 7.38267 21.4886 7.47253C23.9577 7.62403 26.4294 7.81514 28.9043 7.84779C33.0611 7.89987 37.2056 7.56277 41.1725 6.38896C38.2049 5.04349 31.1213 4.78855 28.5489 4.74013V4.72949C28.5489 4.72949 28.375 4.72949 28.0712 4.73243C27.7649 4.72949 27.5935 4.72949 27.5935 4.72949V4.74013C25.0546 4.78855 18.1158 5.03762 15.082 6.33688C15.7514 6.62959 16.4256 6.91571 17.1495 7.02722Z" fill="#C2C2C2"/>
<path d="M42.8081 7.17383C42.0056 8.13525 40.0283 8.4364 38.6939 8.86705C39.5936 8.9206 40.6442 8.86081 41.1077 9.61131C41.5792 10.3739 42.2661 17.0349 40.3696 17.9699C39.0461 18.6218 15.8278 19.318 14.8165 18.2095C14.142 17.4681 13.8655 13.1349 13.9663 12.0037C14.0179 11.3999 14.4028 10.8974 14.9987 10.7521C18.6077 9.86882 34.7983 9.61131 35.8424 9.35271C34.8372 9.10181 33.7182 9.20745 32.7032 9.15243C31.2909 9.07686 14.3759 8.74196 13.7178 8.38028C13.4224 8.21668 13.1786 8.03548 12.9942 7.80438C11.8962 10.2863 12.7213 13.8367 12.7213 13.8367L13.7578 20.8498H42.3879L43.4237 13.8367C43.4237 13.8367 44.4023 9.63112 42.8081 7.17383Z" fill="#C2C2C2"/>
<path d="M52.1576 89.33C52.1576 89.33 46.7686 33.7278 44.8699 28.9468C42.9672 24.1672 36.6287 21.6152 36.6287 21.6152H19.5158C19.5158 21.6152 13.1751 24.1672 11.2742 28.9468C9.37192 33.7278 3.98438 89.33 3.98438 89.33C3.98438 89.33 4.29215 93.0033 11.2906 93.7567L11.2739 93.8041H11.7479H44.3922H44.8655L44.8514 93.7567C51.848 93.0029 52.1576 89.33 52.1576 89.33Z" fill="white"/>
<path d="M44.8663 94.2041H11.2747C11.1921 94.2041 11.1139 94.1784 11.0477 94.1322C3.99935 93.3035 3.60281 89.5261 3.58789 89.3639C3.80945 87.0189 9.00418 33.5772 10.9072 28.7973C12.8467 23.9142 19.103 21.3502 19.3693 21.2427C19.4151 21.224 19.4649 21.2148 19.5166 21.2148H36.6295C36.6793 21.2148 36.7288 21.224 36.7765 21.2427C37.0409 21.3502 43.2951 23.9139 45.2385 28.7973C47.1375 33.5769 52.3326 87.0189 52.5538 89.2917C52.5393 89.525 52.1398 93.3149 45.0631 94.1366C45.0053 94.1784 44.9387 94.2041 44.8663 94.2041ZM11.4777 93.4033H44.6659C44.7092 93.3791 44.7594 93.3641 44.8088 93.3585C51.3486 92.6546 51.7498 89.4303 51.7637 89.2924C51.7105 88.8137 46.3583 33.7698 44.5029 29.0962C42.7905 24.7946 37.2316 22.3061 36.5494 22.0156H19.5948C18.9138 22.3061 13.3531 24.7942 11.6432 29.0962C9.78417 33.7698 4.43409 88.8141 4.37989 89.3683C4.39444 89.4303 4.79353 92.6546 11.3325 93.3585C11.3845 93.3641 11.4344 93.3791 11.4777 93.4033Z" fill="#A9B0A3"/>
<path d="M43.8494 27.087C41.3286 23.5076 36.6294 21.6152 36.6294 21.6152H19.5169C19.5169 21.6152 14.8158 23.5076 12.2969 27.087H43.8494Z" fill="#C3D4DD"/>
<path d="M43.4432 23.9154C43.4432 24.7612 42.7632 25.4465 41.921 25.4465H14.2193C13.3818 25.4465 12.7012 24.7612 12.7012 23.9154C12.7012 23.0691 13.3818 22.3828 14.2193 22.3828H41.9214C42.7632 22.3828 43.4432 23.0691 43.4432 23.9154Z" fill="#C2C2C2"/>
<path d="M41.9222 25.8473H14.2201C13.1633 25.8473 12.3047 24.9809 12.3047 23.9149C12.3047 22.849 13.1629 21.9814 14.2201 21.9814H41.9222C42.979 21.9814 43.8409 22.849 43.8409 23.9149C43.8409 24.9809 42.979 25.8473 41.9222 25.8473ZM14.2201 22.7833C13.6013 22.7833 13.0989 23.2906 13.0989 23.9153C13.0989 24.5389 13.6013 25.0466 14.2201 25.0466H41.9222C42.5425 25.0466 43.0471 24.5389 43.0471 23.9153C43.0471 23.2906 42.5425 22.7833 41.9222 22.7833H14.2201Z" fill="#8E8E8D"/>
<path d="M43.4432 20.8502C43.4432 21.6968 42.7632 22.3831 41.921 22.3831H14.2193C13.3818 22.3831 12.7012 21.6968 12.7012 20.8502C12.7012 20.0032 13.3818 19.3184 14.2193 19.3184H41.9214C42.7632 19.3187 43.4432 20.0036 43.4432 20.8502Z" fill="#C2C2C2"/>
<path d="M41.9222 22.7835H14.2201C13.1633 22.7835 12.3047 21.9156 12.3047 20.85C12.3047 19.7844 13.1629 18.918 14.2201 18.918H41.9222C42.979 18.918 43.8409 19.7844 43.8409 20.85C43.8409 21.9156 42.979 22.7835 41.9222 22.7835ZM14.2201 19.7187C13.6013 19.7187 13.0989 20.2268 13.0989 20.85C13.0989 21.4747 13.6013 21.982 14.2201 21.982H41.9222C42.5425 21.982 43.0471 21.4747 43.0471 20.85C43.0471 20.2268 42.5425 19.7187 41.9222 19.7187H14.2201Z" fill="#8E8E8D"/>
<path d="M38.8309 87.2538C38.8309 87.2538 36.7711 41.5578 36.1366 35.6462C35.5011 29.735 30.0335 29.374 30.0335 29.374H26.2492C26.2492 29.374 20.7827 29.7346 20.1479 35.6462C19.5131 41.5578 17.4528 87.2538 17.4528 87.2538C17.4528 87.2538 17.2793 91.0239 20.464 91.5682H27.1045H29.1815H35.8194C39.4782 91.0239 38.8309 87.2538 38.8309 87.2538Z" fill="#E9F3F9"/>
<path d="M51.3633 87.9722C51.3633 87.9722 45.755 33.7077 45.2522 31.5714C45.2213 31.4526 45.1922 31.34 45.1594 31.2347C44.8407 30.2472 44.2881 29.7858 43.8501 29.5664C41.7633 29.9978 38.0882 31.3587 38.1875 35.6207C38.3101 40.9571 41.4388 78.2318 42.0798 85.8021C42.1522 86.6659 42.1919 87.141 42.1919 87.141C42.1919 87.141 42.5659 91.0237 45.736 91.0237L50.3352 90.4122L50.34 90.4115C51.8785 90.2083 51.3633 87.9722 51.3633 87.9722Z" fill="#E9F3F9"/>
<path d="M5.23947 87.9722C5.23947 87.9722 10.8464 33.7077 11.351 31.5714C11.3779 31.4526 11.411 31.34 11.4441 31.2347C11.7584 30.2472 12.3151 29.7858 12.7509 29.5664C14.8402 29.9978 18.5132 31.3587 18.4157 35.6207C18.293 40.9571 15.1629 78.2318 14.5233 85.8021C14.4513 86.6659 14.4098 87.141 14.4098 87.141C14.4098 87.141 14.0329 91.0237 10.8668 91.0237L6.26393 90.4122V90.4115C4.72287 90.2083 5.23947 87.9722 5.23947 87.9722Z" fill="#E9F3F9"/>
<path d="M20.2834 10.8405C20.2834 10.8405 15.2291 10.7804 15.0825 11.7975C14.9352 12.8173 15.649 16.2918 15.649 16.2918C15.649 16.2918 15.5889 17.9094 17.3719 18.0305C19.1538 18.1489 27.6519 18.0305 27.6519 18.0305C27.6519 18.0305 20.9969 17.4909 20.6993 15.3336C20.4013 13.1771 20.2834 10.8405 20.2834 10.8405Z" fill="#C2C2C2"/>
<path d="M29.0007 4.75059C29.0007 4.86577 28.6103 4.95967 28.1283 4.95967C27.6466 4.95967 27.2559 4.86577 27.2559 4.75059C27.2559 4.63651 27.6466 4.54297 28.1283 4.54297C28.6103 4.5426 29.0007 4.63651 29.0007 4.75059Z" fill="#8E8E8D"/>
<path d="M29.0007 7.64182C29.0007 7.75773 28.6103 7.85127 28.1283 7.85127C27.6466 7.85127 27.2559 7.75773 27.2559 7.64182C27.2559 7.52701 27.6466 7.43457 28.1283 7.43457C28.6103 7.43457 29.0007 7.52701 29.0007 7.64182Z" fill="#8E8E8D"/>
<path d="M17.0148 6.29148C17.0148 6.4063 16.6259 6.49873 16.1439 6.49873C15.6644 6.49873 15.2715 6.40593 15.2715 6.29148C15.2715 6.17594 15.6644 6.08203 16.1439 6.08203C16.6256 6.08203 17.0148 6.17557 17.0148 6.29148Z" fill="#8E8E8D"/>
<path d="M41.1733 6.29148C41.1733 6.4063 40.7825 6.49873 40.3005 6.49873C39.821 6.49873 39.4277 6.40593 39.4277 6.29148C39.4277 6.17594 39.821 6.08203 40.3005 6.08203C40.7825 6.08203 41.1733 6.17557 41.1733 6.29148Z" fill="#8E8E8D"/>
<path d="M29.0007 5.87376C29.0007 5.98894 28.6103 6.08174 28.1283 6.08174C27.6466 6.08174 27.2559 5.98894 27.2559 5.87376C27.2559 5.75858 27.6466 5.66504 28.1283 5.66504C28.6103 5.66504 29.0007 5.75858 29.0007 5.87376Z" fill="#8E8E8D"/>
</svg>
