<svg width="79" height="101" viewBox="0 0 79 101" fill="none" xmlns="http://www.w3.org/2000/svg">
<mask id="mask0_6196_7318" style="mask-type:luminance" maskUnits="userSpaceOnUse" x="0" y="0" width="79" height="101">
<path d="M74.0197 15.4584C70.454 9.87041 63.8549 7.10305 57.3889 8.53995C56.2713 8.77943 55.1803 9.20518 54.1425 9.68415C52.8653 7.63523 51.4018 5.79919 49.7254 4.33568C45.0156 0.211243 38.31 -0.533817 32.8285 2.49964C30.7264 3.67045 28.9702 5.40005 27.5333 7.34253C23.9942 12.079 22.3178 17.9596 22.2912 23.8935C20.6148 23.3879 18.9119 23.042 17.1823 22.909C14.7874 22.6961 12.3128 22.8557 10.051 23.654C4.14371 25.7295 0.258754 31.2643 0.205536 37.5174C0.125708 48.8796 10.5033 62.3971 17.1024 66.9473C22.2114 70.4597 28.3581 72.1893 34.5049 73.1739C36.3143 73.4666 38.8954 73.3335 40.5984 73.9988C42.4345 74.7172 44.9091 78.1764 48.5014 82.3807C48.4482 84.882 48.2353 86.3721 48.5014 86.8244C49.0336 87.7025 50.3906 88.0218 51.1889 87.5695C49.9383 94.6742 47.916 98.0802 48.1555 99.0381C48.528 100.422 50.6301 101.273 51.4018 100.076C56.9631 87.197 55.952 74.1584 58.267 71.0185C59.4112 69.4486 61.8326 68.1181 63.2961 66.8409C68.2454 62.4769 72.7956 57.4744 75.43 51.4341C78.8093 43.6376 80.5123 25.6497 74.0463 15.4584H74.0197ZM47.6499 74.2915C46.7984 72.8812 45.8138 71.5241 45.2816 69.9542C44.4302 67.3731 44.7495 64.6057 44.8825 61.8915C44.8825 61.7585 44.8825 61.5988 44.8825 61.4658C45.2018 62.3705 45.4679 63.3284 45.734 64.2598C47.0379 68.464 47.7297 72.0563 48.1022 75.0631C47.9426 74.797 47.7829 74.5576 47.6233 74.2915H47.6499ZM52.0404 79.0279C51.9074 74.7438 51.3486 70.8323 50.843 67.5859C51.2421 68.3576 51.5614 69.1825 51.7743 70.034C52.2001 71.737 52.067 73.5198 52.0936 75.276C52.0936 76.6065 52.0936 77.8571 52.0404 79.0545V79.0279Z" fill="white"/>
</mask>
<g mask="url(#mask0_6196_7318)">
<path d="M54.5417 83.6837C52.4395 81.3421 50.0713 78.3086 47.6499 74.2906C46.7984 72.8803 45.8138 71.5232 45.2816 69.9533C44.4302 67.3722 44.7495 64.6048 44.8825 61.8907C45.3083 53.083 43.5254 43.9826 38.7358 36.5853C33.9461 29.1879 25.9367 23.6265 17.1556 22.9081C14.7608 22.6952 12.2861 22.8549 10.0244 23.6531C4.14371 25.7287 0.258754 31.2634 0.205536 37.5166C0.125708 48.8787 10.5033 62.3962 17.1024 66.9464C22.2114 70.4589 28.3581 72.1885 34.5049 73.173C36.3143 73.4657 38.8954 73.3327 40.5984 73.9979C43.0199 74.9558 46.6121 80.73 52.3863 86.6905C53.0249 85.5995 53.7434 84.5884 54.5417 83.6837Z" fill="url(#paint0_linear_6196_7318)"/>
<path style="mix-blend-mode:screen" opacity="0.6" d="M52.9693 85.7052C53.3418 85.1464 53.7144 84.6408 54.1135 84.1352C52.0912 81.8202 49.8294 78.8666 47.5144 75.0881C47.3281 74.7954 47.1419 74.5027 46.9556 74.21C46.2372 73.0924 45.4921 71.9216 45.0664 70.5645C44.2947 68.1963 44.4277 65.695 44.5608 63.3002C44.5608 62.9276 44.614 62.5551 44.614 62.1826C44.614 62.0495 44.614 61.8899 44.614 61.7568C41.5273 65.0564 38.4939 68.3825 35.5402 71.8151C35.3274 72.0812 35.0879 72.3207 34.875 72.5868C35.008 72.5868 35.1145 72.64 35.2209 72.64C35.8329 72.7465 36.5514 72.7997 37.3231 72.8263C38.7866 72.9327 40.3033 73.0126 41.5007 73.5181C43.1239 74.1568 44.9333 76.3653 47.4346 79.3988C48.9779 81.2614 50.814 83.47 52.9161 85.7052H52.9693Z" fill="url(#paint1_linear_6196_7318)"/>
<path style="mix-blend-mode:multiply" opacity="0.2" d="M53.368 85.1489C53.5809 84.8562 53.7672 84.5635 53.9801 84.2974C51.9578 81.9824 49.7226 79.0288 47.4076 75.2503C47.2479 74.9842 47.0883 74.7447 46.9286 74.4786L46.8488 74.3722C46.1303 73.228 45.3587 72.0305 44.9063 70.6469C44.0814 68.1988 44.2411 65.6709 44.3741 63.2229V62.877C41.2342 66.2829 38.5999 69.21 36.1518 72.0305L35.9922 72.2168C36.4978 72.27 37.03 72.3232 37.6154 72.3499C39.1055 72.4563 40.6488 72.5361 41.9261 73.0683C43.6291 73.7601 45.4917 75.9953 48.0196 79.082C49.5097 80.8914 51.2659 82.9936 53.2882 85.1755L53.368 85.1489Z" fill="url(#paint2_linear_6196_7318)"/>
<g opacity="0.8">
<g opacity="0.5">
<path d="M44.0052 72.8798C44.0052 72.8798 43.6061 72.5338 42.8877 71.9484C42.1692 71.363 41.1581 70.5115 39.8542 69.6068C38.5503 68.7021 36.9804 67.6909 35.1178 66.9459C33.2817 66.1742 31.153 65.7485 29.1041 65.3493C28.0663 65.1631 27.0285 64.9502 26.044 64.6841C25.0594 64.418 24.0749 64.0721 23.1702 63.6996C21.3608 62.9545 19.7376 62.0764 18.3805 61.2781C17.0234 60.4798 15.9059 59.7614 15.1342 59.2824C14.3625 58.7768 13.9102 58.5107 13.9102 58.5107C13.9102 58.5107 14.3359 58.8301 15.081 59.3622C15.826 59.8944 16.8904 60.6661 18.2475 61.5176C19.5779 62.3691 21.2011 63.3004 23.0371 64.0987C23.9685 64.4978 24.9264 64.8171 25.9375 65.1098C26.9487 65.3759 27.9865 65.6154 29.0242 65.8283C31.0997 66.2274 33.1753 66.6 34.9847 67.345C36.7941 68.0635 38.4173 68.9948 39.7212 69.8729C41.025 70.751 42.116 71.5227 42.8611 72.0549C43.6061 72.6137 44.0319 72.933 44.0319 72.933L44.0052 72.8798Z" fill="#BFD32F"/>
<path d="M30.4623 56.5961C30.4623 56.5961 30.1696 56.3566 29.6108 55.9308C29.052 55.5317 28.2537 54.9463 27.216 54.3609C26.1782 53.7755 24.9542 53.1635 23.5439 52.6845C22.8255 52.445 22.0804 52.2588 21.3087 52.1523C20.5105 52.0459 19.7122 52.0991 18.9405 52.1523C18.1688 52.2322 17.3972 52.2588 16.6255 52.1789C15.8804 52.0991 15.1354 51.9661 14.4169 51.8064C13.0066 51.4605 11.6762 51.088 10.5586 50.742C9.44099 50.3695 8.56289 49.9704 8.0307 49.5446C7.76461 49.3317 7.55173 49.1455 7.41869 49.039C7.55173 49.1721 7.71139 49.385 7.97748 49.5978C8.50967 50.0502 9.36116 50.5558 10.4788 50.9815C11.5963 51.3807 12.9002 51.833 14.3371 52.2056C15.0555 52.3918 15.8272 52.5249 16.5989 52.6047C17.3972 52.6845 18.1954 52.6579 18.9671 52.6047C19.7388 52.5515 20.5105 52.4983 21.2555 52.6047C22.0006 52.6845 22.7456 52.8708 23.4375 53.0837C24.8212 53.536 26.0718 54.0948 27.1096 54.627C29.2117 55.6914 30.4623 56.6227 30.4623 56.6227V56.5961Z" fill="#BFD32F"/>
<path d="M22.0792 43.6905C22.0792 43.6905 21.7865 43.6106 21.3342 43.3978C20.8818 43.1849 20.2964 42.7325 19.6046 42.2269C19.2586 41.9609 18.8595 41.6948 18.4072 41.4553C17.9548 41.2158 17.4226 41.0295 16.8638 40.9497C15.7728 40.7368 14.5754 40.7634 13.4312 40.6836C12.287 40.6304 11.1694 40.3909 10.1317 40.0716C9.09391 39.7523 8.16258 39.3531 7.39091 38.9806C6.59263 38.6081 5.95401 38.2888 5.50165 38.0493C5.0493 37.8098 4.7832 37.6768 4.7832 37.6768C4.7832 37.6768 5.74114 38.342 7.28448 39.1935C8.05614 39.5926 8.98747 40.0716 10.0252 40.4175C11.063 40.7634 12.2338 41.0295 13.4046 41.1094C14.5754 41.1626 15.7462 41.1094 16.784 41.3222C17.3162 41.4021 17.7951 41.5351 18.2475 41.748C18.6999 41.9342 19.099 42.2003 19.4449 42.4398C20.1634 42.9188 20.802 43.2913 21.281 43.5042C21.7599 43.6905 22.0526 43.7171 22.0526 43.7171L22.0792 43.6905Z" fill="#BFD32F"/>
<path d="M16.2763 36.0268L15.824 36.2663H15.8772L15.3716 35.8405C15.1854 35.7075 14.9991 35.5744 14.8128 35.468C14.4403 35.2285 14.0412 35.0156 13.642 34.8294C12.8171 34.4568 11.9922 34.1907 11.1407 33.9513C10.2893 33.6852 9.46436 33.4457 8.66609 33.1264C8.26695 32.9667 7.86781 32.7805 7.49528 32.5942L6.93648 32.2749L6.4043 31.9023C6.56395 32.062 6.72361 32.2217 6.88326 32.3813L7.41545 32.8071C7.78798 33.0465 8.18712 33.286 8.58626 33.4723C9.38454 33.8714 10.236 34.1375 11.0609 34.4036C11.9124 34.6697 12.7373 34.9092 13.5356 35.2285C13.9347 35.3882 14.3339 35.5478 14.733 35.7341L15.2918 36.0534L15.8506 36.3993H15.8772L16.2763 36.08V36.0268Z" fill="#BFD32F"/>
<path d="M16.1466 36.24C16.1466 36.24 16.0136 36.1336 15.9603 35.8941C15.9071 35.6546 16.0136 35.3087 16.12 34.883C16.2264 34.4572 16.3063 33.925 16.3329 33.3662C16.3595 32.8074 16.3329 32.1954 16.2796 31.61C16.12 30.4126 15.7209 29.2684 15.3217 28.4967C14.896 27.6985 14.5234 27.2461 14.5234 27.2461C14.5234 27.2461 14.5767 27.3791 14.6831 27.6186C14.7895 27.8581 14.9226 28.204 15.0822 28.6032C15.4015 29.4281 15.6942 30.5456 15.8539 31.6632C16.0136 32.8074 15.9869 33.9516 15.9071 34.8297C15.8539 35.2555 15.8273 35.6546 15.9071 35.9207C16.0136 36.1868 16.1732 36.24 16.1732 36.24H16.1466Z" fill="#BFD32F"/>
<path d="M22.002 43.3707C22.002 43.3707 22.3213 42.466 22.747 41.0823C22.9599 40.3904 23.1994 39.5922 23.4389 38.7141C23.6783 37.836 23.9444 36.9312 24.1839 35.9999C24.45 35.0686 24.5564 34.0574 24.5032 33.1527C24.45 32.2214 24.2371 31.3965 23.9976 30.7047C23.7582 30.0128 23.4389 29.4806 23.226 29.1347C22.9865 28.7888 22.8535 28.6025 22.8535 28.6025C22.8535 28.6025 22.9865 28.8154 23.1462 29.1879C23.3324 29.5605 23.5719 30.1193 23.7582 30.7845C23.971 31.4763 24.1041 32.2746 24.1307 33.1527C24.1573 34.0308 24.0509 34.9622 23.7848 35.8669C23.5453 36.7982 23.3058 37.7295 23.0929 38.581C22.8801 39.4591 22.6938 40.284 22.5341 40.9759C22.2148 42.3861 22.0286 43.3175 22.0286 43.3175L22.002 43.3707Z" fill="#BFD32F"/>
<path d="M30.8313 56.5149C30.8313 56.5149 30.8047 56.435 30.7515 56.2754C30.7248 56.1157 30.6716 55.8763 30.6982 55.5569C30.7248 54.9183 31.1506 54.1467 31.6562 53.2153C31.9223 52.7364 32.1617 52.2042 32.3214 51.5922C32.5077 50.9801 32.6141 50.3415 32.6673 49.6763C32.8004 48.3458 32.8802 46.9089 32.9866 45.4986C33.0665 44.0617 33.1463 42.6514 33.2261 41.321C33.2793 39.9905 33.3326 38.7399 33.3858 37.6755C33.439 36.6111 33.3858 35.7064 33.2793 35.0944C33.1463 34.4824 32.9866 34.1631 32.9866 34.1631C32.9866 34.1631 33.1197 34.509 33.1995 35.121C33.2793 35.733 33.1995 36.6111 33.1197 37.6755C33.0398 38.7399 32.9334 39.9905 32.827 41.321C32.7471 42.6514 32.6407 44.0883 32.5343 45.4986C32.4544 46.9089 32.4012 48.3458 32.2948 49.6763C32.2416 50.3415 32.1617 50.9801 32.0021 51.5389C31.869 52.1243 31.6562 52.6565 31.4167 53.1355C30.9377 54.0934 30.5918 54.9449 30.5918 55.5836C30.5918 55.9029 30.6716 56.1423 30.6982 56.302C30.7781 56.4617 30.8047 56.5415 30.8047 56.5415L30.8313 56.5149Z" fill="#BFD32F"/>
<path d="M43.2586 71.4706C43.2586 71.4706 43.2054 71.3908 43.1256 71.2311C43.0457 71.0715 42.9127 70.8586 42.7796 70.5659C42.62 70.2732 42.4869 69.9273 42.3273 69.5015C42.1676 69.0758 42.0346 68.5968 41.8749 68.0646C41.3161 65.9359 41.1831 62.9556 41.3959 60.002C41.4758 58.5119 41.5822 57.0484 41.6354 55.6381C41.6887 54.2544 41.6354 52.9506 41.5556 51.833C41.4492 50.7154 41.2629 49.8107 41.1032 49.172C40.9436 48.5334 40.8105 48.1875 40.8105 48.1875C40.8105 48.1875 40.917 48.56 41.0234 49.172C41.1565 49.8107 41.2629 50.7154 41.3161 51.833C41.4492 54.0415 41.1831 56.9952 40.9702 59.9488C40.8904 61.4389 40.8904 62.929 40.9702 64.3393C41.0766 65.7496 41.3161 67.0269 41.6354 68.1178C41.7951 68.65 41.9814 69.129 42.1676 69.5547C42.3539 69.9539 42.5402 70.3264 42.6998 70.5925C42.8595 70.8852 42.9925 71.0981 43.0989 71.2311C43.2054 71.3642 43.232 71.444 43.232 71.444L43.2586 71.4706Z" fill="#BFD32F"/>
</g>
<path d="M8.80025 28.0178C9.11956 28.3105 9.65174 28.683 10.2371 29.2418C10.8492 29.8006 11.5676 30.4658 12.3659 31.2641C13.1908 32.0624 14.0689 32.9937 14.9736 34.0581C15.9049 35.1225 16.8895 36.2667 17.9006 37.5173C18.9118 38.7679 19.9761 40.0984 20.9873 41.5087C23.0894 44.3293 25.1916 47.4159 27.2405 50.5292C29.2628 53.6159 31.5246 56.5429 33.6799 59.2837C35.8619 61.9978 37.8842 64.5523 39.6404 66.7343C41.3966 68.9162 42.8069 70.7789 43.7914 72.0561C44.776 73.36 45.3348 74.1051 45.3348 74.1051C45.3348 74.1051 44.6962 73.4132 43.5786 72.2158C42.4876 70.9918 40.891 69.3154 39.055 67.2133C37.219 65.1111 35.0104 62.6897 32.7752 60.0287C30.5134 57.3412 28.1984 54.3876 26.1229 51.2477C25.0851 49.7043 24.074 48.1344 23.0628 46.6177C22.0251 45.1009 21.0405 43.6108 20.0294 42.1739C18.0337 39.3267 16.1444 36.6924 14.3882 34.5105C13.9624 33.9517 13.5367 33.4461 13.1376 32.9671C12.7384 32.4615 12.3659 32.0092 11.9934 31.5834C11.2749 30.7053 10.5831 29.9869 10.0243 29.4015C9.46548 28.7895 9.01312 28.3637 8.69381 28.0444C8.3745 27.7251 8.21484 27.5654 8.21484 27.5654C8.21484 27.5654 8.40111 27.7251 8.72042 27.9912L8.80025 28.0178Z" fill="#BFD32F"/>
<g style="mix-blend-mode:screen">
<path d="M33.3879 59.5754C31.3389 56.9943 28.9973 53.9608 26.9218 50.7677C24.9527 47.7875 22.824 44.621 20.6952 41.7738C19.6043 40.2836 18.5399 38.9266 17.6086 37.7824C17.236 37.33 16.8901 36.9043 16.5176 36.4785C17.8214 38.2081 19.1785 40.0974 20.4558 41.9334C21.1742 42.918 21.866 43.9557 22.5845 45.0201L23.4892 46.3772L26.5493 51.0072C28.3853 53.7479 30.5407 56.6217 33.175 59.735C34.6917 61.5445 36.2084 63.2474 37.5655 64.7642L33.3879 59.5222V59.5754Z" fill="#E4EF54"/>
</g>
</g>
<path style="mix-blend-mode:screen" opacity="0.3" d="M17.2638 66.4154C11.2235 62.2644 0.473349 49.013 0.553176 37.3581C0.579786 32.2491 3.2141 27.6457 7.57803 25.0912C8.3763 24.6123 9.20119 24.2397 10.0793 23.9204C12.075 23.202 14.4166 22.9625 17.0243 23.1754C25.3264 23.8672 33.2826 28.923 38.2851 36.6663C39.9615 39.2474 41.1855 41.9349 42.0903 44.5692C41.8508 46.7246 22.7719 49.1726 17.2638 66.3888V66.4154Z" fill="url(#paint3_linear_6196_7318)"/>
<g opacity="0.7">
<g style="mix-blend-mode:screen" opacity="0.7">
<path opacity="0.11" d="M37.0597 41.0028C30.2211 32.0355 19.7903 28.4965 13.6435 33.1797C7.49679 37.8629 8.05558 48.959 14.8676 57.9263C21.7061 66.8937 32.2168 70.3529 38.3635 65.6696C44.5103 60.9864 43.8717 49.9702 37.0597 41.0028Z" fill="#5B9B10"/>
<path opacity="0.22" d="M35.6739 42.0157C29.3409 33.687 19.9478 30.148 14.5461 34.2724C9.14446 38.3968 9.86291 48.5616 16.1959 56.8903C22.5289 65.219 32.0817 68.5984 37.51 64.4739C42.9116 60.3495 42.0335 50.3444 35.7005 42.0157H35.6739Z" fill="#68A81E"/>
<path opacity="0.33" d="M34.2655 43.0522C28.4115 35.3355 20.0828 31.8497 15.3995 35.4154C10.7163 38.981 11.5944 48.2144 17.4484 55.9311C23.3025 63.6478 31.8707 66.9207 36.5539 63.3285C41.2371 59.7629 40.0929 50.7689 34.2655 43.0522Z" fill="#75B42B"/>
<path opacity="0.44" d="M32.8544 44.0644C27.5059 36.9863 20.2416 33.5005 16.2768 36.5073C12.312 39.5408 13.3764 47.8163 18.7248 54.8944C24.0733 61.9724 31.6835 65.1655 35.6483 62.1321C39.6131 59.0986 38.2028 51.1158 32.8544 44.0378V44.0644Z" fill="#82C138"/>
<path opacity="0.56" d="M31.4706 45.1C26.6011 38.6606 20.4011 35.1748 17.1548 37.6494C13.9085 40.1241 15.1591 47.4683 20.0286 53.9343C24.8981 60.4004 31.5238 63.4871 34.7701 61.0124C38.0165 58.5377 36.3401 51.5661 31.4972 45.1266L31.4706 45.1Z" fill="#90CD46"/>
<path opacity="0.67" d="M30.0624 46.1123C25.6985 40.2849 20.5363 36.8257 18.0084 38.7415C15.4805 40.6574 16.9174 47.0968 21.2813 52.8977C25.6453 58.7251 31.313 61.7053 33.8409 59.7895C36.3688 57.8736 34.4263 51.9131 30.0624 46.0857V46.1123Z" fill="#9DDA53"/>
<path opacity="0.78" d="M28.6791 47.1517C24.7941 41.9628 20.6963 38.5036 18.9135 39.8873C17.1306 41.2444 18.7006 46.7525 22.5855 51.9413C26.4705 57.1301 31.1537 60.0305 32.9366 58.6735C34.7194 57.3164 32.5374 52.3405 28.6791 47.1517Z" fill="#AAE660"/>
<path opacity="0.89" d="M27.2685 48.1602C23.8891 43.61 20.8291 40.1508 19.7647 40.9757C18.7003 41.8005 20.4565 46.3507 23.8625 50.9009C27.2419 55.4511 30.9672 58.2717 32.0316 57.4734C33.0959 56.6751 30.6479 52.7103 27.2685 48.1602Z" fill="#B7F36E"/>
<path d="M25.8541 49.1742C22.9537 45.236 20.958 41.83 20.6121 42.0695C20.2662 42.309 22.2086 45.9545 25.109 49.8927C28.0095 53.8308 30.7502 56.545 31.0961 56.2789C31.4421 56.0128 28.7279 53.0858 25.8541 49.1476V49.1742Z" fill="#C4FF7B"/>
</g>
</g>
<g style="mix-blend-mode:multiply">
<path opacity="0.11" d="M57.6813 31.8226C67.3671 45.6594 68.5379 61.5718 60.2624 67.3726C51.9869 73.1734 37.4316 66.6542 27.7459 52.8173C18.0601 38.9805 16.8893 23.0682 25.1647 17.2673C33.4402 11.4665 47.9955 17.9858 57.6813 31.8226Z" fill="#EBF3E8"/>
<path opacity="0.22" d="M57.1777 31.6348C66.6506 45.1523 67.7682 60.6922 59.7056 66.3599C51.6164 72.0277 37.407 65.6415 27.9341 52.124C18.4612 38.6065 17.3436 23.0666 25.4062 17.3989C33.4955 11.7311 47.7048 18.1173 57.1777 31.6348Z" fill="#D6E7D0"/>
<path opacity="0.33" d="M56.672 31.4235C65.9321 44.6217 67.023 59.8156 59.1201 65.3504C51.2171 70.8851 37.3271 64.6585 28.0937 51.4603C18.8337 38.2621 17.7427 23.0682 25.6456 17.5335C33.5486 11.9988 47.4386 18.2253 56.672 31.4235Z" fill="#C2DAB9"/>
<path opacity="0.44" d="M56.1608 31.2377C65.1813 44.1166 66.2723 58.938 58.5556 64.3396C50.8655 69.7413 37.2948 63.6478 28.2742 50.7689C19.2537 37.89 18.1627 23.0686 25.8794 17.667C33.5695 12.2653 47.1402 18.3588 56.1608 31.2377Z" fill="#AECEA1"/>
<path opacity="0.56" d="M55.6611 31.0508C64.4688 43.6104 65.5065 58.0858 58.0027 63.3545C50.4989 68.6231 37.2741 62.6892 28.4664 50.1297C19.6588 37.5701 18.621 23.0946 26.1248 17.826C33.6286 12.5574 46.8534 18.4912 55.6611 31.0508Z" fill="#99C28A"/>
<path opacity="0.67" d="M55.1548 30.8364C63.7496 43.1033 64.7607 57.1796 57.4432 62.3152C50.1256 67.4508 37.2201 61.6766 28.6519 49.4097C20.0571 37.1428 19.046 23.0665 26.3635 17.9309C33.6811 12.7953 46.5866 18.5696 55.1548 30.8364Z" fill="#85B672"/>
<path opacity="0.78" d="M54.6721 30.6507C63.0274 42.5983 64.0385 56.3287 56.9072 61.3046C49.7759 66.3072 37.2164 60.666 28.8345 48.7451C20.4791 36.7975 19.468 23.0671 26.5993 18.0912C33.7306 13.0886 46.2901 18.7298 54.6721 30.6507Z" fill="#71A95B"/>
<path opacity="0.89" d="M54.1672 30.4657C62.3096 42.0939 63.2676 55.4518 56.3225 60.3213C49.3775 65.1908 37.1373 59.7093 28.9948 48.081C20.8524 36.4527 19.8944 23.0949 26.8395 18.2254C33.7845 13.3559 46.0248 18.8374 54.1672 30.4657Z" fill="#5C9D43"/>
<path d="M53.6609 30.2778C61.5904 41.5868 62.5217 54.5987 55.763 59.3085C49.0042 64.045 37.1099 58.7231 29.1803 47.4142C21.2508 36.1052 20.3194 23.0933 27.0782 18.3835C33.8369 13.647 45.7313 18.9689 53.6609 30.2778Z" fill="#48912C"/>
</g>
<path d="M60.4997 36.5327C61.4843 28.5765 58.2646 11.8393 49.723 4.36205C45.0131 0.237611 38.3076 -0.507449 32.8261 2.52601C30.724 3.69682 28.9678 5.42642 27.5309 7.3689C22.2356 14.447 21.0914 24.1061 23.433 32.5945C25.7746 41.0828 31.4158 48.4536 38.281 53.9884C40.3831 55.6913 42.6981 57.2879 44.0552 59.6295C44.8801 61.0664 45.2526 62.6896 45.7316 64.2861C50.1221 78.4955 47.7805 85.7066 48.4724 86.8508C49.1642 88.0216 51.2929 88.2079 51.6655 86.9306C53.2886 73.7856 48.9247 62.2904 50.1487 58.8312C50.7608 57.1016 52.5968 55.2656 53.5813 53.7223C56.8809 48.4802 59.7015 42.7326 60.4731 36.5859L60.4997 36.5327Z" fill="url(#paint4_linear_6196_7318)"/>
<path style="mix-blend-mode:screen" opacity="0.6" d="M51.8801 53.5881C47.3565 53.5083 42.8595 53.5881 38.3359 53.6945C38.4424 53.7744 38.5754 53.8808 38.6819 53.9606C38.9746 54.2001 39.2673 54.413 39.56 54.6525C41.4492 56.1426 43.4183 57.6859 44.6689 59.8413C45.3874 61.0653 45.7599 62.3958 46.1325 63.673C46.2389 64.0189 46.3187 64.3382 46.4252 64.6842C49.6183 75.0884 49.299 81.9004 49.1127 85.1733C49.0595 86.0248 49.0329 86.9029 49.0861 87.0626C49.3522 87.4883 50.044 87.7012 50.4698 87.5681C50.6028 87.5149 50.656 87.4617 50.6826 87.4085C51.5874 79.8248 50.4964 72.7202 49.6715 67.5314C49.0595 63.6464 48.6337 60.8258 49.2191 59.2027C49.6715 57.9786 50.6028 56.7812 51.4809 55.6104C51.9599 54.9984 52.3856 54.4396 52.7316 53.9074C52.7848 53.801 52.8646 53.6945 52.9178 53.5881C52.5719 53.5881 52.226 53.5881 51.8801 53.5881Z" fill="url(#paint5_linear_6196_7318)"/>
<path style="mix-blend-mode:multiply" opacity="0.2" d="M50.0419 87.3302C49.8024 87.3568 49.4299 87.2504 49.2702 87.0641C49.2702 86.798 49.2968 85.9199 49.3234 85.3611C49.4831 82.0616 49.829 75.223 46.6093 64.7389C46.5295 64.4462 46.4496 64.1535 46.3432 63.8608V63.7278C45.9175 62.4239 45.5449 61.0668 44.7999 59.7896C43.496 57.5544 41.5003 55.9845 39.5845 54.4677L39.3184 54.2549C43.975 54.1484 47.9132 54.1218 51.6385 54.175H51.8779C51.5852 54.5742 51.2659 55.0265 50.8934 55.4789C49.9621 56.6497 49.0307 57.8737 48.5518 59.1776C47.9132 60.9072 48.3655 63.781 49.0041 67.7192C49.8024 72.8548 50.8934 79.853 50.0419 87.3036V87.3302Z" fill="url(#paint6_linear_6196_7318)"/>
<g opacity="0.8">
<g opacity="0.5">
<path d="M47.1157 60.6123C47.1157 60.6123 47.1157 60.0801 47.1689 59.1488C47.2222 58.2174 47.2488 56.9136 47.435 55.317C47.6213 53.7471 47.914 51.8844 48.5792 49.9952C49.2445 48.1059 50.3088 46.2433 51.3732 44.4338C51.9054 43.5291 52.4376 42.6244 52.8899 41.6931C53.3423 40.7618 53.7414 39.8304 54.0607 38.8991C54.6994 37.0365 55.1251 35.2536 55.4178 33.7103C55.7105 32.167 55.9234 30.8631 56.083 29.9584C56.2161 29.0537 56.2959 28.5215 56.2959 28.5215C56.2959 28.5215 56.2427 29.0537 56.1363 29.9584C56.0298 30.8631 55.8968 32.1936 55.6307 33.7635C55.3646 35.3335 55.0187 37.1429 54.3801 39.0321C54.0607 39.9901 53.6616 40.9214 53.2092 41.8793C52.7569 42.8107 52.2247 43.742 51.6925 44.6467C50.6015 46.4561 49.5372 48.2656 48.8719 50.1282C48.2067 51.9643 47.8342 53.7737 47.6213 55.3436C47.4084 56.9136 47.2754 58.2174 47.1955 59.1488C47.1157 60.0801 47.0625 60.5857 47.0625 60.5857L47.1157 60.6123Z" fill="#BFD32F"/>
<path d="M43.9238 39.6445C43.9238 39.6445 43.9238 39.2454 44.0037 38.5535C44.0569 37.8617 44.1633 36.8771 44.4294 35.7329C44.6955 34.5887 45.0414 33.2317 45.6002 31.8746C45.8929 31.1828 46.2388 30.4909 46.6912 29.8523C47.1435 29.1871 47.7023 28.6017 48.2611 28.0695C48.8199 27.5373 49.3521 26.9785 49.8045 26.3665C50.2568 25.7545 50.656 25.1158 51.0019 24.4772C51.6937 23.2 52.2791 21.9493 52.7581 20.885C53.2105 19.8206 53.5032 18.8627 53.5564 18.1974C53.583 17.8515 53.5564 17.5854 53.5564 17.3991C53.5564 17.2129 53.5564 17.1064 53.5564 17.1064C53.5564 17.1064 53.5564 17.2129 53.6096 17.3725C53.6096 17.5588 53.6628 17.8249 53.6628 18.1708C53.6628 18.8627 53.4766 19.8472 53.0242 20.9648C52.5718 22.0558 52.0397 23.333 51.3744 24.6635C51.0285 25.3287 50.6294 25.9939 50.177 26.6326C49.7247 27.2712 49.1659 27.8566 48.6071 28.4154C48.0483 28.9476 47.4895 29.5064 47.0637 30.1184C46.638 30.7304 46.2921 31.3956 45.9993 32.0609C45.4139 33.3913 44.9882 34.6952 44.6955 35.8394C44.1101 38.1012 43.977 39.6977 43.977 39.6977L43.9238 39.6445Z" fill="#BFD32F"/>
<path d="M39.8547 24.8217C39.8547 24.8217 39.9878 24.5556 40.1208 24.0766C40.2539 23.5977 40.3071 22.8792 40.3869 22.0011C40.4401 21.5754 40.4934 21.0964 40.5998 20.5908C40.7328 20.1119 40.9457 19.5797 41.2384 19.1007C41.8238 18.1428 42.6221 17.2647 43.3139 16.3599C44.0324 15.4552 44.6178 14.4707 45.0435 13.4861C45.4693 12.5016 45.8152 11.5437 46.0547 10.7188C46.2942 9.89389 46.5071 9.17544 46.6135 8.69647C46.7465 8.1909 46.8264 7.9248 46.8264 7.9248C46.8264 7.9248 46.6933 9.09561 46.2942 10.7986C46.0813 11.6501 45.8152 12.6346 45.3895 13.6724C44.9637 14.6836 44.3783 15.7479 43.6599 16.6793C42.9148 17.6106 42.1165 18.4355 41.5577 19.3402C41.265 19.7925 41.0522 20.2449 40.8925 20.7239C40.7328 21.1762 40.6796 21.6552 40.5998 22.0809C40.4934 22.9324 40.3337 23.6775 40.174 24.1565C39.9878 24.6354 39.8281 24.8749 39.8281 24.8749L39.8547 24.8217Z" fill="#BFD32F"/>
<path d="M37.9355 15.3776L38.4145 15.1914V15.2446L38.3879 14.5794C38.3879 14.3665 38.4411 14.127 38.4677 13.9141C38.5476 13.4884 38.654 13.036 38.787 12.6103C39.0531 11.7588 39.4257 10.9605 39.7716 10.1622C40.1441 9.36394 40.49 8.56566 40.8093 7.76738C40.969 7.36824 41.0754 6.94249 41.1819 6.51675L41.3149 5.87812L41.3948 5.21289C41.3948 5.42576 41.4214 5.66525 41.4214 5.87812V6.54335C41.3149 6.99571 41.2351 7.42146 41.102 7.84721C40.8626 8.69871 40.5166 9.52359 40.1441 10.3219C39.7716 11.1202 39.3991 11.9184 39.1064 12.7167C38.9467 13.1158 38.8137 13.5416 38.7072 13.9407L38.5742 14.5794L38.4677 15.218L38.4411 15.2712L37.9355 15.351V15.3776Z" fill="#BFD32F"/>
<path d="M38.2037 15.4313C38.2037 15.4313 38.2037 15.2717 38.0706 15.0854C37.911 14.8725 37.5917 14.7395 37.1925 14.5266C36.82 14.3137 36.3676 14.021 35.9153 13.6751C35.4629 13.3292 35.0372 12.9035 34.638 12.4777C33.8397 11.573 33.2543 10.5086 32.9616 9.68373C32.6423 8.85884 32.5625 8.27344 32.5625 8.27344C32.5625 8.27344 32.6157 8.40648 32.7222 8.64597C32.8286 8.88545 32.9882 9.20476 33.1745 9.6039C33.5737 10.3756 34.2123 11.3335 34.9573 12.2116C35.7024 13.0897 36.5805 13.8348 37.299 14.3404C37.6449 14.5798 37.9642 14.8193 38.0972 15.0588C38.2303 15.2983 38.1504 15.4579 38.1771 15.4579L38.2037 15.4313Z" fill="#BFD32F"/>
<path d="M39.6427 24.5315C39.6427 24.5315 38.7646 24.159 37.4607 23.5736C36.8221 23.2543 36.0504 22.935 35.2255 22.5358C34.4272 22.1367 33.5491 21.7109 32.6976 21.2852C31.8461 20.8594 31.0213 20.274 30.356 19.6354C29.6908 18.9968 29.2118 18.2783 28.8659 17.6397C28.52 17.0011 28.3337 16.4157 28.2007 16.0166C28.0942 15.6174 28.041 15.3779 28.041 15.3779C28.041 15.3779 28.1208 15.6174 28.2805 15.9899C28.4402 16.3891 28.7062 16.9213 29.0788 17.5067C29.4513 18.1187 29.9835 18.7573 30.6221 19.3427C31.2607 19.9547 32.0324 20.4869 32.8839 20.886C33.7354 21.3118 34.5869 21.7642 35.3852 22.1633C36.1835 22.5624 36.9019 22.9882 37.5405 23.3341C38.7912 24.0259 39.6161 24.5315 39.6161 24.5315H39.6427Z" fill="#BFD32F"/>
<path d="M43.6299 39.8833C43.6299 39.8833 43.5767 39.8034 43.4969 39.6704C43.3905 39.5373 43.2574 39.3245 43.0179 39.1648C42.5124 38.7657 41.6609 38.5794 40.6231 38.3399C40.0909 38.2069 39.5321 38.0472 38.9733 37.7811C38.4145 37.515 37.8557 37.1691 37.2969 36.77C36.206 35.9717 35.0884 35.0936 33.9708 34.2155C32.8532 33.3374 31.7356 32.4327 30.6978 31.6078C29.6601 30.7563 28.7021 29.9846 27.8506 29.2928C27.0258 28.6275 26.3605 27.9889 25.988 27.4833C25.6155 26.9778 25.4824 26.6318 25.4824 26.6318C25.4824 26.6318 25.6421 26.9511 26.0412 27.4301C26.4404 27.9091 27.1588 28.4413 28.0103 29.0799C28.8618 29.7185 29.873 30.4636 30.9373 31.2885C32.0017 32.1133 33.1193 32.9648 34.2635 33.843C35.3811 34.7211 36.4987 35.6258 37.563 36.424C38.0952 36.8232 38.6274 37.1691 39.1596 37.4618C39.6918 37.7545 40.224 37.9408 40.7295 38.0738C41.7673 38.3399 42.6454 38.6592 43.1244 39.085C43.3639 39.2979 43.4969 39.5107 43.5767 39.6438C43.6566 39.8034 43.6832 39.8833 43.6832 39.8833H43.6299Z" fill="#BFD32F"/>
<path d="M46.5308 59.0944C46.5308 59.0944 46.5042 59.0146 46.4509 58.8549C46.3977 58.6952 46.3179 58.4558 46.1849 58.1631C46.0784 57.8704 45.8921 57.4978 45.6793 57.0987C45.4664 56.6995 45.2003 56.2738 44.9076 55.8214C43.6836 53.9854 41.5548 51.9099 39.2132 50.127C38.0424 49.1957 36.8716 48.291 35.8072 47.4129C34.7163 46.5348 33.7849 45.6301 33.0133 44.8052C32.2416 43.9803 31.6828 43.2352 31.3369 42.7031C30.9643 42.1709 30.8047 41.8516 30.8047 41.8516C30.8047 41.8516 31.0176 42.1709 31.4167 42.6765C31.8158 43.182 32.4279 43.8739 33.2261 44.6455C34.7961 46.2155 37.1643 47.9717 39.5325 49.7811C40.7033 50.7125 41.8209 51.697 42.8055 52.6815C43.79 53.6927 44.5883 54.7305 45.1737 55.6884C45.4664 56.1674 45.7059 56.6197 45.8921 57.0455C46.0784 57.4712 46.2115 57.8437 46.3179 58.1364C46.4243 58.4291 46.4776 58.6952 46.5308 58.8549C46.584 59.0146 46.6106 59.121 46.6106 59.121L46.5308 59.0944Z" fill="#BFD32F"/>
</g>
<path d="M36.9239 4.49409C36.9239 4.91984 36.8441 5.55846 36.8707 6.38335C36.8707 7.20824 36.8707 8.19278 36.9771 9.33698C37.0303 10.4812 37.1368 11.7584 37.323 13.1421C37.4827 14.5258 37.7222 16.0425 37.9616 17.6391C38.2277 19.2356 38.5204 20.8854 38.893 22.615C39.6114 26.0476 40.5427 29.6665 41.5007 33.2853C42.4852 36.851 43.1505 40.4964 43.7625 43.929C44.3479 47.3616 44.9067 50.5814 45.3856 53.3221C45.838 56.0895 46.317 58.3779 46.6097 59.9744L47.1152 62.5023C47.1152 62.5023 47.0354 61.571 46.8758 59.9478C46.6895 58.3247 46.4766 56.0097 46.1307 53.2423C45.7848 50.4749 45.4389 47.2286 44.9333 43.7694C44.4277 40.3102 43.7625 36.6115 42.8045 32.966C42.3256 31.1566 41.8466 29.3738 41.3676 27.5909C40.9153 25.8081 40.4629 24.0785 40.0638 22.3755C39.2655 18.9961 38.547 15.803 38.0681 13.0623C37.935 12.3704 37.8552 11.7052 37.7488 11.0932C37.6423 10.4546 37.5359 9.86917 37.4827 9.31037C37.323 8.19278 37.2166 7.20824 37.1368 6.40996C37.0569 5.61168 37.0303 4.97306 37.0037 4.5207C36.9771 4.09495 36.9505 3.85547 36.9505 3.85547C36.9505 3.85547 36.9505 4.09495 36.9239 4.5207V4.49409Z" fill="#BFD32F"/>
<g style="mix-blend-mode:screen">
<path d="M44.2166 43.8216C43.6312 40.5752 42.9393 36.7967 41.9282 33.1513C40.9968 29.6921 40.0655 26.02 39.3205 22.5075C38.9213 20.6981 38.6286 18.9951 38.3891 17.5582C38.2827 16.9728 38.2029 16.414 38.123 15.8818C38.5488 18.0106 39.081 20.2724 39.5866 22.4543C39.8527 23.6517 40.172 24.8492 40.4913 26.0998L40.8904 27.6697L42.3273 33.0448C43.1788 36.2379 43.8706 39.7504 44.4561 43.795C44.802 46.1366 45.0681 48.3984 45.3076 50.4207L44.1634 43.8216H44.2166Z" fill="#E4EF54"/>
</g>
</g>
<path style="mix-blend-mode:screen" opacity="0.3" d="M60.0237 36.3201C60.9284 29.0557 58.1344 12.2121 49.38 4.52198C45.5482 1.1426 40.3594 0.0516193 35.5431 1.62157C34.665 1.91427 33.8135 2.2868 33.0153 2.71255C31.1526 3.75031 29.423 5.32026 27.8531 7.42239C22.8771 14.1013 21.3604 23.388 23.8351 32.2755C24.6599 35.2291 25.8307 37.9432 27.2144 40.3913C28.9973 41.6419 43.4727 29.0025 60.0237 36.2935V36.3201Z" fill="url(#paint7_linear_6196_7318)"/>
<g opacity="0.7">
<g style="mix-blend-mode:screen" opacity="0.7">
<path opacity="0.11" d="M27.8829 34.2441C25.701 23.1746 29.985 13.0365 37.5687 11.5464C45.1523 10.0562 53.0819 17.8261 55.2639 28.8956C57.4458 39.9651 53.0287 50.1298 45.4716 51.5933C37.888 53.0834 30.0649 45.2869 27.9095 34.2441H27.8829Z" fill="#5B9B10"/>
<path opacity="0.22" d="M29.5816 33.8722C27.5593 23.601 31.1515 14.2345 37.8305 12.9307C44.5094 11.6268 51.6407 18.8911 53.663 29.1623C55.6853 39.4335 51.8802 48.8 45.2012 50.1304C38.5223 51.4609 31.6305 44.1433 29.6082 33.8722H29.5816Z" fill="#68A81E"/>
<path opacity="0.33" d="M31.2599 33.4982C29.3706 23.9987 32.271 15.4572 38.0718 14.313C43.846 13.1688 50.1791 19.9807 52.0417 29.4536C53.931 38.9531 50.6846 47.5213 44.8838 48.6655C39.1096 49.8097 33.1225 42.9711 31.2333 33.4716L31.2599 33.4982Z" fill="#75B42B"/>
<path opacity="0.44" d="M32.9587 33.1268C31.2291 24.4256 33.4377 16.6557 38.3338 15.6977C43.2299 14.7398 48.7114 21.0462 50.4676 29.7474C52.1972 38.4487 49.5363 46.2452 44.6402 47.2031C39.7441 48.1611 34.7149 41.8014 32.9587 33.1002V33.1268Z" fill="#82C138"/>
<path opacity="0.56" d="M34.6624 32.7796C33.0658 24.85 34.5826 17.905 38.5739 17.1333C42.5653 16.3617 47.2486 22.1625 48.8451 30.092C50.4417 38.0216 48.3396 45.0199 44.3482 45.8181C40.3568 46.5898 36.2323 40.7358 34.6358 32.8062L34.6624 32.7796Z" fill="#90CD46"/>
<path opacity="0.67" d="M36.341 32.4077C34.8775 25.2764 35.729 19.1297 38.8156 18.5176C41.9289 17.9056 45.7873 23.2275 47.2508 30.3588C48.7143 37.4901 47.1976 43.7166 44.0843 44.3286C40.971 44.9407 37.8045 39.539 36.341 32.4077Z" fill="#9DDA53"/>
<path opacity="0.78" d="M38.0442 32.0359C36.7404 25.7029 36.8734 20.3278 39.082 19.902C41.2906 19.4763 44.3506 24.3192 45.6545 30.6522C46.9583 36.9852 46.027 42.4401 43.8184 42.8658C41.6099 43.2916 39.3481 38.3689 38.0442 32.0359Z" fill="#AAE660"/>
<path opacity="0.89" d="M39.72 31.6636C38.5492 26.1022 38.017 21.5521 39.3209 21.286C40.6248 21.0199 42.8865 25.3838 44.0307 30.9451C45.2015 36.5065 44.829 41.1631 43.5252 41.4292C42.1947 41.6953 40.8908 37.2515 39.72 31.6902V31.6636Z" fill="#B7F36E"/>
<path d="M41.4216 31.2896C40.4104 26.5266 39.1598 22.748 39.5855 22.6682C40.0113 22.5884 41.4482 26.4467 42.4593 31.2098C43.4705 35.9728 43.6833 39.8578 43.2576 39.9376C42.8319 40.0175 42.4327 36.0527 41.4216 31.2896Z" fill="#C4FF7B"/>
</g>
</g>
<g style="mix-blend-mode:multiply">
<path opacity="0.11" d="M52.7337 74.5031C62.8298 74.5031 71.0143 60.8027 71.0143 43.9024C71.0143 27.0021 62.8298 13.3018 52.7337 13.3018C42.6376 13.3018 34.4531 27.0021 34.4531 43.9024C34.4531 60.8027 42.6376 74.5031 52.7337 74.5031Z" fill="#EBF3E8"/>
<path opacity="0.22" d="M52.8392 73.3338C62.7001 73.3338 70.694 59.955 70.694 43.4516C70.694 26.9481 62.7001 13.5693 52.8392 13.5693C42.9783 13.5693 34.9844 26.9481 34.9844 43.4516C34.9844 59.955 42.9783 73.3338 52.8392 73.3338Z" fill="#D6E7D0"/>
<path opacity="0.33" d="M70.3984 42.999C70.3984 59.1242 62.6019 72.1893 52.9694 72.1893C43.3368 72.1893 35.5137 59.1242 35.5137 42.999C35.5137 26.8737 43.3102 13.8086 52.9694 13.8086C62.6285 13.8086 70.3984 26.8737 70.3984 42.999Z" fill="#C2DAB9"/>
<path opacity="0.44" d="M53.0807 71.0439C62.4861 71.0439 70.1107 58.2847 70.1107 42.5454C70.1107 26.8061 62.4861 14.0469 53.0807 14.0469C43.6753 14.0469 36.0508 26.8061 36.0508 42.5454C36.0508 58.2847 43.6753 71.0439 53.0807 71.0439Z" fill="#AECEA1"/>
<path opacity="0.56" d="M53.1823 69.901C62.3526 69.901 69.7865 57.4634 69.7865 42.1209C69.7865 26.7784 62.3526 14.3408 53.1823 14.3408C44.0121 14.3408 36.5781 26.7784 36.5781 42.1209C36.5781 57.4634 44.0121 69.901 53.1823 69.901Z" fill="#99C28A"/>
<path opacity="0.67" d="M53.321 68.7566C62.2561 68.7566 69.4995 56.6287 69.4995 41.6683C69.4995 26.7079 62.2561 14.5801 53.321 14.5801C44.3859 14.5801 37.1426 26.7079 37.1426 41.6683C37.1426 56.6287 44.3859 68.7566 53.321 68.7566Z" fill="#85B672"/>
<path opacity="0.78" d="M53.4238 67.6112C62.1385 67.6112 69.2031 55.7931 69.2031 41.2148C69.2031 26.6364 62.1385 14.8184 53.4238 14.8184C44.7092 14.8184 37.6445 26.6364 37.6445 41.2148C37.6445 55.7931 44.7092 67.6112 53.4238 67.6112Z" fill="#71A95B"/>
<path opacity="0.89" d="M68.8829 40.7622C68.8829 54.9449 62.0177 66.4667 53.5293 66.4667C45.041 66.4667 38.1758 54.9715 38.1758 40.7622C38.1758 26.5528 45.041 15.0576 53.5293 15.0576C62.0177 15.0576 68.8829 26.5528 68.8829 40.7622Z" fill="#5C9D43"/>
<path d="M68.5939 40.3094C68.5939 54.1196 61.915 65.2955 53.6661 65.2955C45.4172 65.2955 38.7383 54.093 38.7383 40.3094C38.7383 26.5257 45.4172 15.3232 53.6661 15.3232C61.915 15.3232 68.5939 26.5257 68.5939 40.3094Z" fill="#48912C"/>
</g>
<path d="M75.4054 51.4338C78.7848 43.6372 80.4877 25.6494 74.0217 15.458C70.456 9.87006 63.857 7.10269 57.3909 8.5396C54.8896 9.09839 52.6012 10.349 50.5523 11.8924C43.0751 17.5069 39.0039 26.9798 38.8708 36.3463C38.7378 45.7128 42.2502 54.8664 47.5987 62.5564C49.2485 64.9247 51.0845 67.2397 51.7763 70.0336C52.2021 71.7366 52.069 73.5195 52.0957 75.2757C52.3085 91.055 47.7849 97.6807 48.1575 99.0644C48.53 100.448 50.6321 101.3 51.4038 100.102C56.9651 87.2232 55.954 74.1847 58.269 71.0448C59.4132 69.4748 61.8346 68.1444 63.2982 66.8671C68.2475 62.5032 72.7977 57.5007 75.432 51.4604L75.4054 51.4338Z" fill="url(#paint8_linear_6196_7318)"/>
<path style="mix-blend-mode:screen" opacity="0.6" d="M61.5153 66.2018C56.9385 64.7649 52.3351 63.4877 47.7051 62.2637C47.7849 62.3967 47.8913 62.5298 47.9712 62.6362C48.184 62.9555 48.4235 63.2748 48.6364 63.5941C50.1265 65.6697 51.6432 67.825 52.2819 70.4061C52.6278 71.8696 52.6278 73.3331 52.6278 74.7434C52.6278 75.116 52.6278 75.4885 52.6278 75.861C52.7875 87.4094 50.3926 94.2214 49.2484 97.521C48.9557 98.3725 48.6364 99.2506 48.6364 99.4368C48.7695 99.969 49.4347 100.368 49.887 100.342C50.0467 100.342 50.1265 100.288 50.1531 100.235C53.3462 92.7845 54.3308 85.2275 55.0492 79.6928C55.5814 75.5417 55.9806 72.5615 57.0715 71.0713C57.8964 69.9538 59.2003 69.0224 60.4509 68.0911C61.1162 67.6121 61.7282 67.1598 62.2337 66.734C62.3402 66.6542 62.42 66.5478 62.5264 66.4679C62.1805 66.3615 61.8346 66.2551 61.4887 66.1486L61.5153 66.2018Z" fill="url(#paint9_linear_6196_7318)"/>
<path style="mix-blend-mode:multiply" opacity="0.2" d="M49.5651 100.022C49.3256 99.995 48.9797 99.7555 48.8467 99.516C48.8999 99.2499 49.2192 98.3452 49.4054 97.813C50.5496 94.5134 52.9711 87.6483 52.8114 75.9934C52.8114 75.6741 52.8114 75.3548 52.8114 75.0355V74.9024C52.8114 73.4655 52.8114 71.9754 52.4655 70.4587C51.8003 67.7977 50.2569 65.5892 48.7402 63.487L48.5273 63.1943C53.2904 64.4716 57.3084 65.6158 61.0869 66.7866L61.3264 66.8664C60.9273 67.1857 60.4483 67.5316 59.9427 67.9042C58.6655 68.8355 57.3084 69.7934 56.4569 70.9642C55.3127 72.5342 54.9136 75.5943 54.3548 79.7985C53.6363 85.2534 52.6784 92.704 49.5651 100.048V100.022Z" fill="url(#paint10_linear_6196_7318)"/>
<g opacity="0.8">
<g opacity="0.5">
<path d="M54.5723 71.9476C54.5723 71.9476 54.7585 71.4155 55.0512 70.4841C55.3705 69.5528 55.7963 68.2223 56.4615 66.679C57.1268 65.1357 57.9783 63.3262 59.2023 61.6232C60.4263 59.8936 62.1027 58.3237 63.7259 56.807C64.5507 56.0353 65.349 55.2636 66.0941 54.4654C66.8391 53.6671 67.5044 52.8156 68.1164 51.9907C69.3138 50.2877 70.2983 48.5847 71.07 47.0946C71.8417 45.6045 72.4537 44.3538 72.8794 43.4491C73.3052 42.571 73.5447 42.0654 73.5447 42.0654C73.5447 42.0654 73.3318 42.571 72.9593 43.5023C72.5867 44.407 72.0546 45.7109 71.3361 47.2276C70.591 48.7444 69.6863 50.5006 68.4889 52.2302C67.8769 53.1083 67.2117 53.9598 66.4666 54.7847C65.7216 55.6096 64.8967 56.3812 64.0984 57.1529C62.4486 58.6696 60.8254 60.1863 59.6014 61.8893C58.3774 63.5657 57.4461 65.2953 56.7808 66.8121C56.089 68.3288 55.5568 69.6326 55.2109 70.5374C54.865 71.4421 54.6521 71.9743 54.6521 71.9743L54.5723 71.9476Z" fill="#BFD32F"/>
<path d="M57.5762 49.6493C57.5762 49.6493 57.7092 49.2502 57.9753 48.585C58.2414 47.9197 58.6405 46.9352 59.2526 45.8442C59.8646 44.7532 60.6096 43.476 61.6208 42.252C62.1264 41.6399 62.6852 41.0279 63.3504 40.5223C63.989 39.9902 64.7607 39.5644 65.4791 39.1653C66.2242 38.7927 66.916 38.367 67.5547 37.888C68.1933 37.4091 68.7787 36.8503 69.3375 36.3181C70.4018 35.2005 71.3864 34.1361 72.2113 33.1782C73.0096 32.2203 73.5683 31.3421 73.8078 30.6769C73.9409 30.331 74.0207 30.0649 74.0473 29.8786C74.0739 29.6924 74.1005 29.5859 74.1005 29.5859C74.1005 29.5859 74.1005 29.6924 74.0739 29.8786C74.0473 30.0649 73.9941 30.3576 73.8877 30.7035C73.6748 31.3954 73.1958 32.3533 72.4241 33.3378C71.6259 34.3224 70.7212 35.44 69.6302 36.5842C69.0714 37.143 68.486 37.7018 67.8207 38.234C67.1555 38.7395 66.4371 39.1919 65.692 39.5644C64.9469 39.9369 64.2285 40.3361 63.6165 40.8417C62.9779 41.3472 62.4457 41.906 61.9401 42.4914C60.9556 43.6889 60.1307 44.8863 59.492 45.9506C58.2148 48.0794 57.6028 49.6493 57.6028 49.6493H57.5762Z" fill="#BFD32F"/>
<path d="M57.8418 33.3382C57.8418 33.3382 58.0547 33.1253 58.3474 32.6463C58.6401 32.194 58.9062 31.4755 59.2521 30.624C59.4117 30.1983 59.6246 29.7193 59.8907 29.2404C60.1568 28.788 60.5559 28.309 60.9817 27.9099C61.8598 27.1116 62.9242 26.4464 63.9087 25.7279C64.9199 25.0361 65.798 24.1846 66.5164 23.3065C67.2615 22.4284 67.8735 21.5503 68.3791 20.7786C68.8846 20.0069 69.2838 19.3417 69.5499 18.8893C69.816 18.437 70.0022 18.1709 70.0022 18.1709C70.0022 18.1709 69.5233 19.3151 68.5919 20.9383C68.113 21.7365 67.5542 22.6679 66.8091 23.5726C66.0641 24.4773 65.1593 25.382 64.1482 26.1005C63.137 26.8189 62.0727 27.4309 61.2212 28.2026C60.7954 28.5751 60.4229 28.9743 60.1568 29.4C59.8641 29.8258 59.6512 30.2781 59.465 30.7039C59.0924 31.5554 58.7199 32.2472 58.4006 32.673C58.0813 33.1253 57.8418 33.3116 57.8418 33.3116V33.3382Z" fill="#BFD32F"/>
<path d="M58.7441 23.1724H59.2763H59.2231L59.436 22.5071C59.5158 22.2943 59.6222 22.0814 59.7021 21.8419C59.915 21.4162 60.1544 21.017 60.3939 20.6179C60.9261 19.8462 61.5381 19.1278 62.1501 18.4093C62.7621 17.7175 63.3742 16.999 63.933 16.2806C64.199 15.908 64.4651 15.5355 64.678 15.1364L64.9973 14.5244L65.2634 13.8857C65.2102 14.1252 65.157 14.3381 65.1038 14.5776L64.8643 15.2428C64.678 15.6686 64.4385 16.0943 64.199 16.4935C63.6935 17.2917 63.0815 18.0102 62.496 18.7286C61.884 19.4471 61.272 20.1389 60.7132 20.8574C60.4205 21.2299 60.181 21.6024 59.9416 22.0016L59.5956 22.6136L59.3029 23.2522L59.2763 23.2788L58.7441 23.2256V23.1724Z" fill="#BFD32F"/>
<path d="M58.9891 23.2801C58.9891 23.2801 59.0689 23.1204 58.9625 22.8809C58.8826 22.6148 58.5899 22.3754 58.244 22.056C57.9247 21.7367 57.5522 21.311 57.2062 20.832C56.8603 20.353 56.541 19.7943 56.2749 19.2088C55.7427 18.0646 55.4766 16.814 55.3968 15.8561C55.317 14.9248 55.3968 14.2861 55.3968 14.2861C55.3968 14.2861 55.3968 14.4458 55.45 14.7119C55.4766 14.978 55.5565 15.3505 55.6363 15.8295C55.8226 16.7342 56.1685 17.905 56.6741 19.0226C57.1796 20.1402 57.8449 21.1779 58.4303 21.8964C58.723 22.2423 58.9891 22.5882 59.0423 22.8809C59.0955 23.1736 58.9891 23.3067 58.9891 23.3067V23.2801Z" fill="#BFD32F"/>
<path d="M57.739 32.9912C57.739 32.9912 56.9408 32.3526 55.7966 31.3414C55.2378 30.8359 54.5459 30.2504 53.8541 29.6118C53.1622 28.9732 52.3906 28.2814 51.6455 27.5895C50.9005 26.8977 50.2352 26.0462 49.7563 25.2213C49.2773 24.3698 49.0112 23.4917 48.8249 22.7466C48.6653 22.0016 48.6387 21.3363 48.6387 20.9106C48.6387 20.4582 48.6653 20.2188 48.6653 20.2188C48.6653 20.2188 48.6653 20.4848 48.7185 20.9106C48.7451 21.3629 48.8515 21.975 49.0644 22.6934C49.2773 23.4119 49.5966 24.2368 50.0756 25.035C50.5545 25.8333 51.1666 26.605 51.9382 27.2702C52.6833 27.9621 53.4017 28.6805 54.0936 29.3191C54.7854 29.9844 55.3974 30.623 55.9562 31.1552C57.0206 32.2461 57.7124 32.9912 57.7124 32.9912H57.739Z" fill="#BFD32F"/>
<path d="M57.2044 49.8096C57.2044 49.8096 57.2044 49.7298 57.1512 49.5435C57.098 49.3838 57.0182 49.1177 56.8053 48.8783C56.4062 48.3461 55.6079 47.8671 54.6233 47.3083C54.1178 47.0422 53.5856 46.6697 53.1066 46.2439C52.601 45.7916 52.1487 45.286 51.6963 44.7272C50.8182 43.583 49.9667 42.359 49.062 41.135C48.1839 39.9109 47.3058 38.6603 46.5075 37.5161C45.7092 36.3453 44.9376 35.2543 44.2989 34.323C43.6337 33.3917 43.1547 32.5668 42.9419 31.9281C42.7024 31.3161 42.6758 30.917 42.6758 30.917C42.6758 30.917 42.729 31.2895 43.0217 31.9015C43.2878 32.5135 43.8466 33.2586 44.5384 34.1633C45.2037 35.068 46.0019 36.1324 46.8534 37.2766C47.6783 38.4208 48.583 39.6448 49.4611 40.8689C50.3393 42.0929 51.1907 43.3435 52.0422 44.4877C52.468 45.0465 52.8937 45.5787 53.3461 46.0045C53.7985 46.4568 54.2774 46.8027 54.7564 47.0954C55.7143 47.6808 56.5126 48.2662 56.8851 48.8516C57.0714 49.1443 57.1512 49.3838 57.1778 49.5701C57.1778 49.7564 57.2044 49.8362 57.2044 49.8362V49.8096Z" fill="#BFD32F"/>
<path d="M54.4379 70.2451C54.4379 70.2451 54.4379 70.1387 54.4379 69.9524C54.4379 69.7661 54.4379 69.5 54.3847 69.1541C54.3581 68.8082 54.2782 68.4091 54.1984 67.9301C54.092 67.4777 53.9589 66.9456 53.7726 66.3868C53.0808 64.1516 51.5109 61.4108 49.6748 58.8829C48.7701 57.6057 47.8388 56.3285 47.0139 55.1044C46.189 53.8804 45.4706 52.683 44.9384 51.6186C44.4062 50.5542 44.0603 49.6229 43.8474 48.9577C43.6345 48.2925 43.5547 47.9199 43.5547 47.9199C43.5547 47.9199 43.6611 48.2924 43.9272 48.9311C44.1667 49.5697 44.5924 50.4478 45.1512 51.4856C46.2954 53.5345 48.1847 56.0358 50.0473 58.5902C50.9521 59.8941 51.8036 61.2246 52.4954 62.5284C53.1872 63.8323 53.6928 65.1361 54.0121 66.2803C54.1718 66.8657 54.2782 67.3979 54.3314 67.8769C54.3847 68.3558 54.4379 68.7816 54.4379 69.1275C54.4379 69.4734 54.4379 69.7395 54.4379 69.9258C54.4379 70.1121 54.4379 70.2185 54.4379 70.2185V70.2451Z" fill="#BFD32F"/>
</g>
<path d="M60.9536 11.7858C60.8205 12.2382 60.5544 12.8502 60.3416 13.7017C60.1021 14.5266 59.836 15.5377 59.5699 16.7352C59.2772 17.906 59.0111 19.263 58.7982 20.7266C58.5587 22.1901 58.3193 23.7866 58.133 25.4896C57.9201 27.1926 57.7338 28.9754 57.6008 30.8381C57.3081 34.5368 57.1751 38.5282 57.0686 42.4663C56.9888 46.3779 56.6163 50.2895 56.1905 53.9615C55.7648 57.6336 55.3656 61.0662 55.0197 64.0199C54.6738 66.9735 54.4609 69.4215 54.2746 71.1511C54.115 72.8807 54.0352 73.8653 54.0352 73.8653C54.0352 73.8653 54.2214 72.9074 54.5407 71.2044C54.8334 69.5014 55.3124 67.0799 55.7914 64.1529C56.2703 61.2259 56.8823 57.8199 57.3879 54.1478C57.9201 50.4757 58.3192 46.5109 58.4257 42.5196C58.4789 40.5505 58.5321 38.5814 58.5587 36.6389C58.6386 34.6964 58.6918 32.7806 58.7716 30.9445C58.9579 27.2458 59.1707 23.8132 59.5433 20.8862C59.6231 20.1412 59.7295 19.4493 59.8094 18.7841C59.8892 18.1188 59.969 17.4802 60.0755 16.8948C60.2351 15.6974 60.448 14.6863 60.6077 13.8348C60.7673 12.9833 60.927 12.3446 61.0334 11.8657C61.1398 11.4133 61.1931 11.1738 61.1931 11.1738C61.1931 11.1738 61.1132 11.4133 60.9536 11.8391V11.7858Z" fill="#BFD32F"/>
<g style="mix-blend-mode:screen">
<path d="M56.6474 53.9872C57.0199 50.5014 57.4457 46.4567 57.5255 42.4387C57.6319 38.6602 57.7384 34.6156 58.0577 30.8371C58.1907 28.8946 58.4036 27.0586 58.5899 25.5152C58.6697 24.9032 58.7495 24.3178 58.8294 23.7324C58.6431 26.0208 58.4834 28.4955 58.377 30.8637C58.2972 32.1676 58.2706 33.4714 58.2173 34.8285L58.1641 36.5581L58.0311 42.4654C57.9513 45.9512 57.6053 49.7563 56.9933 54.0404C56.6474 56.5151 56.2483 58.9099 55.9023 61.0386L56.7272 53.9606L56.6474 53.9872Z" fill="#E4EF54"/>
</g>
</g>
<path style="mix-blend-mode:screen" opacity="0.3" d="M74.9529 51.0614C78.0396 43.9301 80.2482 25.9422 73.6224 15.538C70.722 10.9612 65.7727 8.30027 60.3976 8.45992C59.4131 8.48653 58.4552 8.61958 57.4972 8.83245C55.3153 9.31142 53.0535 10.429 50.8183 12.1054C43.7402 17.4006 39.4561 26.4212 39.3231 36.1868C39.2699 39.4331 39.669 42.5464 40.3609 45.4468C41.7978 47.2562 60.3178 38.7147 74.9795 51.088L74.9529 51.0614Z" fill="url(#paint11_linear_6196_7318)"/>
<g opacity="0.7">
<g style="mix-blend-mode:screen" opacity="0.7">
<path opacity="0.11" d="M42.8635 39.3547C43.9544 27.4337 51.3518 18.3866 59.4943 19.1582C67.6367 19.9033 73.4109 30.1745 72.3199 42.0954C71.2289 54.0164 63.7251 63.0369 55.5561 62.2919C47.4136 61.5468 41.7725 51.3022 42.8635 39.3813V39.3547Z" fill="#5B9B10"/>
<path opacity="0.22" d="M44.6958 39.4875C45.707 28.418 52.1464 19.9829 59.3309 20.6481C66.5155 21.3134 71.5978 30.8395 70.5867 41.9089C69.5755 52.9784 62.8966 61.3869 55.7121 60.7217C48.5276 60.0565 43.6847 50.5569 44.6958 39.5141V39.4875Z" fill="#68A81E"/>
<path opacity="0.33" d="M46.5335 39.6185C47.4382 29.4005 52.9463 21.5508 59.1729 22.1362C65.3995 22.7216 69.79 31.5027 68.8853 41.7206C67.9806 51.9386 62.0999 59.7085 55.8734 59.1497C49.6468 58.5643 45.6022 49.8365 46.5335 39.6185Z" fill="#75B42B"/>
<path opacity="0.44" d="M48.3452 39.7522C49.1701 30.3857 53.7469 23.148 59.0155 23.627C64.2841 24.1059 67.9828 32.1685 67.1579 41.535C66.333 50.9015 61.2773 58.0594 56.0086 57.5804C50.74 57.1014 47.5203 49.1186 48.3452 39.7522Z" fill="#82C138"/>
<path opacity="0.56" d="M50.1773 39.8878C50.9224 31.3462 54.5413 24.7205 58.852 25.1197C63.1627 25.5188 66.1961 32.8364 65.4511 41.3779C64.706 49.9195 60.5017 56.4388 56.191 56.0396C51.8803 55.6405 49.4589 48.4294 50.204 39.9144L50.1773 39.8878Z" fill="#90CD46"/>
<path opacity="0.67" d="M52.0159 40.02C52.6546 32.3299 55.3421 26.3162 58.6949 26.6089C62.0476 26.9282 64.3893 33.5007 63.724 41.1908C63.0854 48.8808 59.6794 54.7615 56.3266 54.4688C52.9739 54.1495 51.3507 47.71 52.0159 40.02Z" fill="#9DDA53"/>
<path opacity="0.78" d="M53.852 40.1528C54.4108 33.3142 56.167 27.886 58.5353 28.0988C60.9035 28.3117 62.5799 34.1657 62.0211 41.0043C61.4623 47.8429 58.8812 53.1115 56.4864 52.8987C54.1181 52.6858 53.2666 46.9914 53.852 40.1528Z" fill="#AAE660"/>
<path opacity="0.89" d="M55.6899 40.2853C56.1689 34.2716 56.9672 29.482 58.3774 29.615C59.7877 29.7481 60.7723 34.8304 60.2933 40.8441C59.8143 46.8578 58.0581 51.4878 56.6478 51.3548C55.2375 51.2217 55.2109 46.299 55.6899 40.2853Z" fill="#B7F36E"/>
<path d="M57.5231 40.4182C57.9222 35.256 57.7626 31.0518 58.2415 31.105C58.7205 31.1582 58.9866 35.4955 58.6141 40.6577C58.2149 45.8199 57.2836 49.8113 56.8313 49.7847C56.3789 49.7315 57.1506 45.5804 57.5497 40.4182H57.5231Z" fill="#C4FF7B"/>
</g>
</g>
</g>
<defs>
<linearGradient id="paint0_linear_6196_7318" x1="7.02884" y1="25.9122" x2="66.2983" y2="102.396" gradientUnits="userSpaceOnUse">
<stop stop-color="#378028"/>
<stop offset="0.64" stop-color="#78BE26"/>
<stop offset="1" stop-color="#D6BE26"/>
</linearGradient>
<linearGradient id="paint1_linear_6196_7318" x1="39.5137" y1="66.8738" x2="59.5513" y2="89.1045" gradientUnits="userSpaceOnUse">
<stop/>
<stop offset="1" stop-color="#B4D11D"/>
</linearGradient>
<linearGradient id="paint2_linear_6196_7318" x1="40.0114" y1="67.3551" x2="59.4928" y2="88.956" gradientUnits="userSpaceOnUse">
<stop stop-color="white"/>
<stop offset="1" stop-color="#378028"/>
</linearGradient>
<linearGradient id="paint3_linear_6196_7318" x1="-0.859555" y1="22.0056" x2="38.3867" y2="62.385" gradientUnits="userSpaceOnUse">
<stop stop-color="#378028"/>
<stop offset="0.64" stop-color="#78BE26"/>
<stop offset="1" stop-color="#D6BE26"/>
</linearGradient>
<linearGradient id="paint4_linear_6196_7318" x1="36.4911" y1="1.74123" x2="54.3596" y2="96.8106" gradientUnits="userSpaceOnUse">
<stop stop-color="#378028"/>
<stop offset="0.64" stop-color="#78BE26"/>
<stop offset="1" stop-color="#D6BE26"/>
</linearGradient>
<linearGradient id="paint5_linear_6196_7318" x1="45.5731" y1="53.2269" x2="48.9042" y2="82.9693" gradientUnits="userSpaceOnUse">
<stop/>
<stop offset="1" stop-color="#B4D11D"/>
</linearGradient>
<linearGradient id="paint6_linear_6196_7318" x1="45.5733" y1="53.9269" x2="48.8276" y2="82.8272" gradientUnits="userSpaceOnUse">
<stop stop-color="white"/>
<stop offset="1" stop-color="#378028"/>
</linearGradient>
<linearGradient id="paint7_linear_6196_7318" x1="38.8072" y1="-6.754" x2="42.9658" y2="49.4017" gradientUnits="userSpaceOnUse">
<stop stop-color="#378028"/>
<stop offset="0.64" stop-color="#78BE26"/>
<stop offset="1" stop-color="#D6BE26"/>
</linearGradient>
<linearGradient id="paint8_linear_6196_7318" x1="61.3356" y1="8.85808" x2="51.1357" y2="110.985" gradientUnits="userSpaceOnUse">
<stop stop-color="#378028"/>
<stop offset="0.64" stop-color="#78BE26"/>
<stop offset="1" stop-color="#D6BE26"/>
</linearGradient>
<linearGradient id="paint9_linear_6196_7318" x1="55.2159" y1="63.9693" x2="49.7164" y2="95.239" gradientUnits="userSpaceOnUse">
<stop/>
<stop offset="1" stop-color="#B4D11D"/>
</linearGradient>
<linearGradient id="paint10_linear_6196_7318" x1="55.0203" y1="64.6927" x2="49.6827" y2="95.0795" gradientUnits="userSpaceOnUse">
<stop stop-color="white"/>
<stop offset="1" stop-color="#378028"/>
</linearGradient>
<linearGradient id="paint11_linear_6196_7318" x1="66.2268" y1="0.897217" x2="53.6762" y2="59.3003" gradientUnits="userSpaceOnUse">
<stop stop-color="#378028"/>
<stop offset="0.64" stop-color="#78BE26"/>
<stop offset="1" stop-color="#D6BE26"/>
</linearGradient>
</defs>
</svg>
