<svg width="26" height="101" viewBox="0 0 26 101" fill="none" xmlns="http://www.w3.org/2000/svg">
<path d="M6.94048 65.3917C-3.56064 72.8034 2.24588 85.9034 2.79149 88.1387C3.1763 89.7401 7.30676 100.775 13.1231 100.775C18.9383 100.775 23.0683 89.7401 23.4542 88.1387C24.0003 85.9029 29.8117 72.7931 19.3046 65.3917C17.5136 64.1299 14.017 62.3726 14.3369 58.1718C15.1207 47.8926 17.3413 24.0353 18.269 7.00488C18.3486 5.54194 18.977 0.775391 13.1236 0.775391C6.64996 0.775391 7.88997 5.41494 7.97718 7.00488C8.90542 24.0353 11.1015 47.8926 11.8853 58.1718C12.2063 62.3726 8.72719 64.1299 6.94048 65.3917Z" fill="url(#paint0_linear_6206_84796)"/>
<path d="M11.6367 54.4387H14.6825C15.6288 42.8758 17.4874 22.2175 18.317 7.00488C18.3966 5.54194 19.0239 0.775391 13.1711 0.775391C6.69741 0.775391 7.93905 5.41494 8.02517 7.00488C8.85311 22.2175 10.6943 42.8758 11.6367 54.4387Z" fill="url(#paint1_linear_6206_84796)"/>
<g opacity="0.35">
<path d="M23.4542 88.1384C24.0003 85.9026 29.8118 72.7928 19.3046 65.3914C19.1629 65.29 19.0087 65.1859 18.8457 65.0791C17.6438 66.4309 16.2174 69.1731 18.2516 73.5968C21.3285 80.2901 22.9762 88.7532 17.2285 93.1388C13.0566 96.3225 14.168 98.9878 16.5227 99.5149C20.4978 96.5765 23.1484 89.4057 23.4542 88.1384Z" fill="#B0AFB5"/>
<path d="M2.79119 88.139C3.05173 89.2198 5.02211 94.6039 8.06518 97.9855C5.56935 93.0238 6.3586 87.3361 8.55628 82.7739C11.3263 77.0246 15.097 74.1347 13.7109 68.4274C12.9086 65.1194 11.4353 63.5072 10.3375 62.7354C9.26323 63.9394 7.87278 64.7335 6.94072 65.392C-3.5604 72.8037 2.24558 85.9037 2.79119 88.139Z" fill="#B0AFB5"/>
</g>
<path d="M4.91406 90.3926C6.41897 93.8412 9.44188 99.113 13.272 99.113C18.5509 99.113 22.2987 89.0964 22.6481 87.6427C23.1447 85.6146 28.4187 73.7148 18.8834 66.997C18.6354 66.8225 18.3509 66.6372 18.0489 66.4355C20.0144 70.8238 22.8144 79.8364 14.9235 83.6856C10.1199 86.0288 6.90462 88.1824 4.91406 90.3926Z" fill="url(#paint2_linear_6206_84796)"/>
<path opacity="0.5" d="M8.02491 7.00488C8.85395 22.2175 10.6946 42.8764 11.637 54.4387H12.5805C11.6229 42.7592 9.83778 22.6132 9.02564 7.69711C8.93843 6.10772 7.69787 1.46762 14.1716 1.46762C15.4159 1.46762 16.3654 1.68455 17.092 2.0383C16.3191 1.29374 15.0982 0.775391 13.1714 0.775391C6.69715 0.775391 7.93934 5.41494 8.02491 7.00488Z" fill="black"/>
<defs>
<linearGradient id="paint0_linear_6206_84796" x1="13.0492" y1="99.2168" x2="13.2033" y2="55.0544" gradientUnits="userSpaceOnUse">
<stop stop-color="#9C9BA0"/>
<stop offset="0.0693" stop-color="#AAA9AE"/>
<stop offset="0.262" stop-color="#CECFD4"/>
<stop offset="0.4109" stop-color="#E5E6E9"/>
<stop offset="0.497" stop-color="#EDEEF0"/>
<stop offset="0.6522" stop-color="#DDDFE2"/>
<stop offset="0.9683" stop-color="#B4B4B9"/>
<stop offset="1" stop-color="#B0AFB5"/>
</linearGradient>
<linearGradient id="paint1_linear_6206_84796" x1="13.1243" y1="53.2079" x2="13.1243" y2="2.12114" gradientUnits="userSpaceOnUse">
<stop/>
<stop offset="0.1434" stop-color="#393636"/>
<stop offset="0.4303" stop-color="#68686C"/>
<stop offset="0.4949" stop-color="#737277"/>
<stop offset="0.6715" stop-color="#565559"/>
<stop offset="0.8832" stop-color="#2C2A2A"/>
<stop offset="1"/>
</linearGradient>
<linearGradient id="paint2_linear_6206_84796" x1="14.7309" y1="62.5112" x2="14.7309" y2="99.113" gradientUnits="userSpaceOnUse">
<stop stop-color="white"/>
<stop offset="0.8587" stop-color="white"/>
<stop offset="1" stop-color="white"/>
</linearGradient>
</defs>
</svg>
