<svg width="130" height="101" viewBox="0 0 130 101" fill="none" xmlns="http://www.w3.org/2000/svg">
<path d="M93.4068 100.05L96.1385 99.2583L116.415 88.2442L123.823 84.3102L128.182 47.9601L129.31 35.8443L103.287 24.8056L109.319 18.1413L95.5908 3.54056L92.8463 0.81543L67.4528 1.49478L54.24 20.8819L42.7063 18.5804L39.3844 18.202L19.6829 25.893L11.0965 28.2695L12.4927 36.078L5.68098 42.9399L1.20312 47.0586L2.22862 60.3381L3.79529 61.3094L18.2725 67.1161L19.0745 72.5831C19.0745 72.5831 24.5508 74.5165 27.2902 75.6776C30.0296 76.84 44.1167 83.038 44.1167 83.038L59.5213 75.3625L59.7537 85.5191L82.2528 94.8129L93.4068 100.05Z" fill="#FFF6D9"/>
<path d="M43.9961 82.1828C43.9961 82.1828 45.1688 67.7267 45.1688 66.9453C45.1688 66.1639 44.3874 40.3786 44.3874 40.3786L59.429 33.9325L73.8842 27.8766L68.4145 25.1411L54.2395 20.8842L67.4522 1.49707L89.9036 20.2578L109.32 18.141L103.288 24.8053L98.3039 22.797L72.9091 35.1039L59.2353 42.3313L59.522 75.3661L43.9961 82.1828Z" fill="#D6CEC3"/>
<path d="M2.97058 60.4987C3.24697 59.9459 15.0829 50.3408 15.0829 50.3408L18.2692 67.1191C18.2692 67.1191 2.77555 60.8887 2.97058 60.4987Z" fill="#E4E2D2"/>
<path d="M93.6161 56.9829L93.4082 100.05L123.825 84.3103L129.311 35.8457L93.6161 56.9829Z" fill="#D6CEC3"/>
<path d="M11.0918 28.2715L44.7746 41.1596L44.112 83.0413L19.0698 72.5851L11.0918 28.2715Z" fill="#E4E2D2"/>
<path d="M59.2341 42.332L77.0113 48.9744L93.6156 56.9831L94.202 85.3077L93.4077 100.05L69.3923 89.2145L59.7546 85.5233C59.7546 85.5233 58.4527 42.332 59.2341 42.332Z" fill="#E4E2D2"/>
<path opacity="0.48" d="M16.6442 58.937L36.3742 37.4485L69.388 25.5329L54.2366 20.886L39.3797 18.2061L24.0669 24.7515L11.0918 28.2722L16.6442 58.937Z" fill="white"/>
<path opacity="0.48" d="M59.4274 64.6008L77.0096 48.9733L117.251 43.5036L129.363 36.4713L98.3023 22.7979L69.1956 37.4477L59.2324 42.3322L59.4274 64.6008Z" fill="white"/>
<path opacity="0.48" d="M78.1815 9.90556L106.117 14.3988L92.8447 0.818359L67.4512 1.4977L78.1815 9.90556Z" fill="white"/>
<path d="M3.55469 44.8725C3.55469 44.8725 14.2992 47.4116 14.2992 46.8253C14.2992 46.2389 12.4872 36.0811 12.4872 36.0811L3.55469 44.8725Z" fill="white"/>
<path d="M10.8952 28.5005C11.6366 35.6982 13.4176 42.9011 14.7156 50.02C16.0834 57.5134 17.4499 65.0082 18.8177 72.5016C18.868 72.7793 19.2917 72.6618 19.2413 72.3854C17.9058 65.0611 16.5716 57.7382 15.2361 50.4139C13.911 43.1465 13.0211 35.6104 11.1315 28.4695C11.0993 28.3404 10.881 28.3623 10.8952 28.5005Z" fill="#BEB8AE"/>
<path d="M11.0077 28.9487C12.6195 28.8996 14.7015 29.9418 16.1907 30.4455C19.3228 31.5046 22.4161 32.676 25.5029 33.8603C31.8884 36.3104 38.1719 39.0381 44.5755 41.4352C44.9849 41.5889 45.282 40.8992 44.8764 40.7235C38.385 37.9054 31.7024 35.4438 25.0793 32.9576C21.9718 31.7913 18.8565 30.6315 15.696 29.6112C14.2844 29.1553 12.493 28.3636 10.9637 28.6219C10.7765 28.6529 10.8217 28.9551 11.0077 28.9487Z" fill="#BEB8AE"/>
<path d="M44.1291 41.97C44.669 55.7377 44.5618 69.5274 43.3787 83.2615C43.3438 83.6722 43.8359 83.8737 44.1537 83.7058C49.2541 81.0052 54.5805 78.6107 59.5569 75.6944C60.1045 75.3729 59.6253 74.6147 59.07 74.8614C53.8042 77.1991 48.7155 80.1037 43.6344 82.8172C43.8928 82.9658 44.1511 83.113 44.4094 83.2615C45.5382 69.5532 45.75 55.7029 44.9221 41.97C44.8899 41.465 44.1085 41.4586 44.1291 41.97Z" fill="#BEB8AE"/>
<path d="M19.0466 72.9146C23.478 73.7554 27.8952 76.3578 32.0359 78.1272C35.8254 79.7455 39.6187 81.6544 43.5399 82.9201C43.6962 82.9704 43.7969 82.7315 43.6523 82.654C39.7208 80.5527 35.372 79.0326 31.2597 77.3058C27.4522 75.7069 23.2055 73.1496 19.0725 72.726C18.9653 72.7157 18.9407 72.8939 19.0466 72.9146Z" fill="#BEB8AE"/>
<path d="M45.0692 40.5889C49.8273 39.0133 54.4163 36.7737 59.0168 34.7925C63.9351 32.6744 68.8495 30.5499 73.7665 28.4292C74.3129 28.1941 73.8415 27.3908 73.2977 27.6284C68.5512 29.7 63.8034 31.7704 59.0582 33.8446C54.3439 35.9058 49.4386 37.776 44.922 40.2376C44.7334 40.3422 44.8613 40.6587 45.0692 40.5889Z" fill="#BEB8AE"/>
<path d="M73.9593 28.485C73.8159 30.5062 73.7049 32.6372 73.7979 34.6611C73.8121 34.9839 74.2602 34.9736 74.2925 34.6611C74.4979 32.6566 74.4488 30.4946 74.3054 28.485C74.2899 28.2628 73.9761 28.2628 73.9593 28.485Z" fill="#A59D91"/>
<path d="M11.0406 28.5849C20.9198 25.936 30.5201 22.2009 40.0066 18.4129C40.1564 18.3534 40.0906 18.1081 39.9395 18.1688C30.4129 21.9749 20.8075 25.4259 10.9941 28.4145C10.8856 28.448 10.9296 28.6146 11.0406 28.5849Z" fill="#BEB8AE"/>
<path d="M39.0909 18.1358C51.1839 19.8909 62.7279 22.6354 73.9116 27.6827C74.0576 27.7486 74.1854 27.5329 74.0382 27.467C63.0999 22.5424 51.1129 18.9197 39.0948 18.1125C39.0806 18.1099 39.0767 18.1332 39.0909 18.1358Z" fill="#BEB8AE"/>
<path d="M58.459 41.9702C58.7509 56.456 59.1358 70.9263 58.9395 85.4198C58.9343 85.806 59.5336 85.806 59.5401 85.4198C59.7506 70.9456 59.6576 56.4095 58.5946 41.9702C58.5882 41.8836 58.4564 41.8811 58.459 41.9702Z" fill="#BEB8AE"/>
<path d="M59.1803 42.2534C72.3246 35.9043 85.2764 29.1961 98.5266 23.0574C98.6751 22.989 98.546 22.7707 98.3987 22.8379C85.1924 28.9623 71.8816 35.1319 59.1389 42.1837C59.0937 42.2095 59.1338 42.2754 59.1803 42.2534Z" fill="#BEB8AE"/>
<path d="M59.0908 42.3367C64.7259 45.0244 70.8622 46.7899 76.5825 49.3484C82.3506 51.9276 87.9496 54.8348 93.6583 57.5341C94.2757 57.826 94.8194 56.9374 94.2021 56.6042C88.5114 53.5433 82.5818 50.8182 76.6458 48.2674C71.1411 45.9013 65.156 42.9993 59.1967 42.0874C59.0572 42.0668 58.9384 42.2644 59.0908 42.3367Z" fill="#BEB8AE"/>
<path d="M94.0751 57.3138C100.095 54.178 105.956 50.7309 111.841 47.3523C117.769 43.9504 123.908 40.7745 129.693 37.1337C130.273 36.7682 129.769 35.9403 129.162 36.2258C123.015 39.1265 117.201 43.067 111.339 46.4934C105.48 49.9185 99.6701 53.4354 93.7883 56.8218C93.4693 57.0064 93.7522 57.483 94.0751 57.3138Z" fill="#BEB8AE"/>
<path d="M98.4561 22.9756C108.888 26.9833 118.858 32.0331 129.192 36.2694C129.392 36.352 129.48 36.0253 129.281 35.9439C118.956 31.7193 109.029 26.5648 98.4716 22.9162C98.4355 22.902 98.42 22.9614 98.4561 22.9756Z" fill="#BEB8AE"/>
<path d="M93.8928 56.9452C93.3826 60.2244 93.6396 63.727 93.6319 67.0398C93.6228 70.7594 93.6461 74.479 93.5996 78.1986C93.5092 85.5603 93.2819 92.9362 92.4979 100.262C92.4217 100.973 93.535 100.968 93.6112 100.262C94.3952 92.9414 94.5037 85.5551 94.5179 78.1986C94.5256 74.4803 94.5114 70.7581 94.4365 67.0398C94.3693 63.727 94.5282 60.2102 93.9406 56.9452C93.9367 56.9219 93.8966 56.9219 93.8928 56.9452Z" fill="#BEB8AE"/>
<path d="M59.2151 85.5125C70.617 90.2227 81.7865 95.1693 92.9172 100.499C93.2349 100.652 93.5152 100.177 93.1949 100.024C82.1869 94.7909 71.0251 88.7129 59.2654 85.3278C59.144 85.2929 59.1053 85.4673 59.2151 85.5125Z" fill="#BEB8AE"/>
<path d="M93.5813 100.804C99.2255 98.651 104.591 95.5346 109.9 92.6829C114.534 90.1941 119.382 87.7945 123.71 84.7878C124.067 84.5385 123.739 83.9534 123.364 84.195C113.8 90.3362 103.449 95.1303 93.4444 100.481C93.2726 100.574 93.3914 100.876 93.5813 100.804Z" fill="#BEB8AE"/>
<path d="M129.314 36.6798C127.577 52.6521 125.064 68.5302 123.246 84.4922C123.204 84.8642 123.785 84.8603 123.828 84.4922C125.693 68.5483 128.046 52.665 129.538 36.6798C129.551 36.5364 129.33 36.539 129.314 36.6798Z" fill="#BEB8AE"/>
<path d="M54.627 20.4884C59.6072 14.5809 63.7222 7.91145 68.0141 1.50288C68.0916 1.38665 67.9056 1.27945 67.8268 1.39311C63.4458 7.7823 59.2417 14.258 54.5443 20.4238C54.5081 20.4729 54.5882 20.5349 54.627 20.4884Z" fill="#BEB8AE"/>
<path d="M67.4259 1.11679C74.4184 8.17112 82.4494 14.3033 90.0167 20.7235C90.1265 20.8165 90.2853 20.6615 90.1768 20.5633C82.7568 13.9107 74.9919 7.61577 67.4904 1.05222C67.4452 1.01605 67.3845 1.07546 67.4259 1.11679Z" fill="#BEB8AE"/>
<path d="M67.0156 1.95065C75.6781 1.74917 84.3393 1.36687 93.0019 1.12923C93.1569 1.12536 93.1569 0.885133 93.0019 0.887716C84.3484 1.02591 75.6523 1.2261 67.0156 1.80729C66.9251 1.81374 66.9239 1.95194 67.0156 1.95065Z" fill="#BEB8AE"/>
<path d="M93.2739 1.15245C98.7617 6.84034 104.429 12.2686 109.616 18.2484C109.728 18.3776 109.916 18.189 109.805 18.0599C104.669 12.1382 99.3003 6.1907 93.3049 1.12145C93.2842 1.10466 93.2545 1.13178 93.2739 1.15245Z" fill="#BEB8AE"/>
<path d="M89.5249 20.8006C96.2772 20.2827 103.076 19.3528 109.782 18.3997C110.103 18.3545 109.967 17.865 109.648 17.9102C102.968 18.8659 96.1055 19.2133 89.4991 20.6004C89.3867 20.6237 89.41 20.8097 89.5249 20.8006Z" fill="#BEB8AE"/>
<path d="M79.1956 31.6653C81.3073 30.0276 83.0897 27.8501 85.049 26.0213C87.0316 24.1705 89.0735 22.3895 91.1633 20.6627C91.4332 20.4393 91.047 20.0557 90.7784 20.2778C88.5801 22.0976 86.4336 23.9755 84.3606 25.9373C82.5253 27.6744 80.4394 29.4283 79.007 31.5193C78.9218 31.642 79.0975 31.7428 79.1956 31.6653Z" fill="#A59D91"/>
<path d="M103.215 24.7911C105.652 22.8628 107.485 20.3121 109.855 18.2999C110.029 18.1513 109.798 17.8452 109.608 17.9796C107.054 19.7812 105.339 22.5244 102.939 24.516C102.744 24.6774 103.022 24.9448 103.215 24.7911Z" fill="#BEB8AE"/>
<path d="M2.15923 60.7354C7.55669 62.6339 12.8728 64.4976 18.0029 67.0639C18.2225 67.1736 18.4175 66.843 18.1966 66.7332C13.1195 64.1837 7.74914 61.8706 2.19539 60.6036C2.10886 60.5843 2.07657 60.707 2.15923 60.7354Z" fill="#BEB8AE"/>
<path d="M2.12237 61.0032C6.78751 57.7589 11.1633 54.0715 15.1982 50.0717C15.3881 49.8831 15.0962 49.5925 14.905 49.7785C10.8288 53.7345 6.52403 57.3404 1.95059 60.7087C1.77752 60.8379 1.94025 61.1297 2.12237 61.0032Z" fill="#BEB8AE"/>
<path d="M1.13428 46.9947C4.99219 43.5399 8.84881 40.0708 12.2805 36.1846C12.3735 36.0787 12.2185 35.9237 12.1255 36.0296C8.69125 39.9132 4.84365 43.3926 0.994784 46.8552C0.899208 46.9404 1.03999 47.0799 1.13428 46.9947Z" fill="#BEB8AE"/>
<path d="M99.9264 39.1915C99.9213 39.1424 99.9161 39.0946 99.9109 39.0456C99.8464 38.4334 99.0223 38.4321 98.9578 39.0456C98.9526 39.0946 98.9474 39.1424 98.9423 39.1915C98.8764 39.8244 99.9936 39.8257 99.9264 39.1915Z" fill="#D6CEC3"/>
<path d="M101 34.3328C101.32 34.2036 101.503 34.0732 101.674 33.7632C101.767 33.5953 101.645 33.439 101.475 33.4158C101.155 33.3732 100.954 33.4235 100.685 33.5863C100.307 33.8149 100.557 34.5123 101 34.3328Z" fill="#D6CEC3"/>
<path d="M115.759 35.6689C115.684 35.7347 115.596 35.7735 115.497 35.7812C114.915 35.9207 115.051 36.8028 115.636 36.8093C116.1 36.8145 116.419 36.5561 116.499 36.0989C116.567 35.7076 116.075 35.2982 115.759 35.6689Z" fill="#D6CEC3"/>
<path d="M104.698 45.1312C104.643 45.17 104.589 45.2087 104.534 45.2475C103.747 45.8054 104.787 46.8528 105.347 46.0611C105.386 46.0069 105.425 45.9526 105.464 45.8971C105.784 45.4476 105.148 44.8122 104.698 45.1312Z" fill="#D6CEC3"/>
<path d="M108.415 39.484C108.422 39.4349 108.428 39.3871 108.435 39.3381C108.524 38.6484 107.271 38.6471 107.36 39.3381C107.366 39.3871 107.373 39.4349 107.379 39.484C107.463 40.1491 108.329 40.1504 108.415 39.484Z" fill="#D6CEC3"/>
<path d="M90.1306 31.3491C90.1823 31.3026 90.2327 31.2562 90.283 31.211C90.4096 31.096 90.4445 30.9087 90.4057 30.7486C90.398 30.715 90.3889 30.6827 90.3812 30.6491C90.3567 30.551 90.2701 30.4644 90.172 30.4399C90.1397 30.4322 90.1061 30.4231 90.0725 30.4154C89.9124 30.3766 89.7251 30.4115 89.6101 30.5381C89.5636 30.5884 89.5171 30.6401 89.4719 30.6905C89.0702 31.136 89.6863 31.7534 90.1306 31.3491Z" fill="#D6CEC3"/>
<path d="M74.9891 40.2604C74.9542 40.0938 74.9167 40.015 74.7979 39.8949C74.7049 39.8006 74.5435 39.8006 74.4505 39.8949C74.3316 40.015 74.2942 40.0938 74.2593 40.2604C74.1327 40.87 75.1169 40.8739 74.9891 40.2604Z" fill="#D6CEC3"/>
<path d="M83.2629 45.9059C83.2655 45.8568 83.2681 45.809 83.2707 45.76C83.2797 45.6076 83.1777 45.4164 83.0356 45.3505C82.8509 45.2653 82.7437 45.264 82.5578 45.3505C82.417 45.4151 82.3149 45.6076 82.3227 45.76C82.3253 45.809 82.3278 45.8568 82.3304 45.9059C82.3666 46.5052 83.2294 46.5065 83.2629 45.9059Z" fill="#D6CEC3"/>
<path d="M80.2811 37.8409C80.4154 37.8073 80.498 37.7724 80.6194 37.7079C80.8209 37.5981 80.8209 37.2817 80.6194 37.1719C80.4993 37.106 80.4154 37.0724 80.2811 37.0389C79.612 36.8684 79.6069 38.0127 80.2811 37.8409Z" fill="#D6CEC3"/>
<path d="M92.6507 41.7185C92.6391 41.7637 92.6287 41.8089 92.6171 41.8554C92.5771 42.0169 92.6404 42.2429 92.8057 42.3178C92.9684 42.3927 93.055 42.3927 93.219 42.3178C93.3843 42.2416 93.4476 42.0181 93.4076 41.8554C93.3959 41.8102 93.3843 41.765 93.374 41.7185C93.2849 41.3621 92.7385 41.3621 92.6507 41.7185Z" fill="#D6CEC3"/>
<path d="M98.849 48.3708C98.1024 48.4625 98.1024 49.187 98.849 49.2787C99.4327 49.3497 99.434 48.2984 98.849 48.3708Z" fill="#D6CEC3"/>
<path d="M93.3699 35.8224C93.459 35.9257 93.5236 36.0419 93.5636 36.1711C93.8142 36.7587 94.6679 35.9115 94.0764 35.6583C93.9472 35.6183 93.8297 35.5537 93.7276 35.4646C93.5158 35.3174 93.2227 35.6106 93.3699 35.8224Z" fill="#D6CEC3"/>
<path d="M80.1713 62.3418C80.2682 62.3534 80.365 62.3573 80.4632 62.3534C80.9695 62.3521 80.9708 61.5682 80.4632 61.5669C80.365 61.563 80.2682 61.5669 80.1713 61.5785C79.6805 61.6173 79.6792 62.3018 80.1713 62.3418Z" fill="#D6CEC3"/>
<path d="M86.7623 80.1837C86.9832 79.6529 86.6603 79.1647 86.1269 79.0304C85.7019 78.9232 85.268 79.5147 85.6632 79.8273C85.7304 79.8802 85.7988 79.9861 85.804 80.0546C85.8505 80.6254 86.5518 80.6887 86.7623 80.1837Z" fill="#D6CEC3"/>
<path d="M73.6463 78.9237C74.1371 78.7016 74.4006 78.3154 74.2236 77.7691C74.1758 77.6231 74.0596 77.4733 73.8981 77.4436C73.8671 77.4372 73.8362 77.432 73.8039 77.4255C73.6954 77.4049 73.5675 77.4178 73.4913 77.5082C73.2511 77.791 73.3738 78.1591 73.1658 78.442C72.9333 78.7571 73.366 79.0503 73.6463 78.9237Z" fill="#D6CEC3"/>
<path d="M78.2844 73.7649C78.0196 73.4291 77.7354 73.1966 77.2963 73.1953C77.0858 73.1953 76.9062 73.3735 76.9062 73.5854C76.9075 74.0245 77.14 74.3086 77.4758 74.5734C78.057 75.0306 78.7429 74.3461 78.2844 73.7649Z" fill="#D6CEC3"/>
<path d="M72.579 58.252C72.291 58.252 72.074 58.3191 71.817 58.4431C71.5871 58.5555 71.5871 58.9391 71.817 59.0501C72.0766 59.1767 72.2884 59.2413 72.579 59.2413C73.217 59.2438 73.2183 58.252 72.579 58.252Z" fill="#D6CEC3"/>
<path d="M67.8275 71.2988C67.8508 70.9605 67.8779 70.7887 67.7164 70.4865C67.5589 70.1907 67.09 70.1907 66.9325 70.4865C66.7672 70.7964 66.7982 70.9566 66.8214 71.2988C66.864 71.9459 67.7836 71.9472 67.8275 71.2988Z" fill="#D6CEC3"/>
<path d="M70.4403 59.4894C70.4067 59.3434 70.3731 59.2569 70.2917 59.1342C70.1251 58.8811 69.779 58.8811 69.6124 59.1342C69.531 59.2582 69.4974 59.3447 69.4638 59.4894C69.2727 60.3056 70.6301 60.3108 70.4403 59.4894Z" fill="#D6CEC3"/>
<path d="M79.2535 68.0884C79.2535 68.0393 79.2548 67.9915 79.2548 67.9425C79.26 67.2399 78.157 67.2386 78.1621 67.9425C78.1621 67.9915 78.1634 68.0393 78.1634 68.0884C78.1686 68.7897 79.2483 68.791 79.2535 68.0884Z" fill="#D6CEC3"/>
<path d="M79.5028 86.9201C79.433 86.4306 79.3039 86.0573 78.8299 85.8675C78.702 85.8171 78.5341 85.9011 78.4708 86.0134C78.2203 86.4564 78.405 86.8671 78.6529 87.2778C78.9435 87.7622 79.5738 87.4173 79.5028 86.9201Z" fill="#D6CEC3"/>
<path d="M80.1684 80.2213C80.2175 80.2252 80.2653 80.2291 80.3144 80.2316C80.7509 80.2639 80.964 79.8158 80.9072 79.4541C80.902 79.4206 80.8969 79.387 80.8917 79.3534C80.8697 79.2165 80.7161 79.0628 80.5791 79.0421C80.5456 79.037 80.512 79.0318 80.4784 79.0266C80.1168 78.9698 79.6686 79.1816 79.7009 79.6195C79.7047 79.6685 79.7086 79.7163 79.7112 79.7654C79.7293 80.025 79.9049 80.2019 80.1684 80.2213Z" fill="#D6CEC3"/>
<path d="M87.074 88.9451C87.1399 88.5757 87.1322 88.2503 86.8248 87.9958C86.6788 87.8744 86.507 87.8731 86.3585 87.9958C86.0524 88.2503 86.0434 88.5757 86.1092 88.9451C86.1958 89.4217 86.9888 89.4217 87.074 88.9451Z" fill="#D6CEC3"/>
<path d="M88.9185 72.5449C88.7932 72.6031 88.7183 72.6547 88.6343 72.7619C88.4845 72.9518 88.4832 73.1481 88.6343 73.3405C88.7196 73.449 88.7945 73.4994 88.9185 73.5575C90.0241 74.0767 90.0241 72.0257 88.9185 72.5449Z" fill="#D6CEC3"/>
<path d="M89.7192 65.0226C89.7412 65.0277 89.7631 65.0342 89.7864 65.0394C89.6856 64.8624 89.5862 64.6868 89.4854 64.5098C89.4363 64.6287 89.4066 64.7178 89.4157 64.8469C89.4428 65.2189 89.8031 65.4384 90.1415 65.2641C90.1609 65.2538 90.1803 65.2447 90.1997 65.2344C90.3843 65.1388 90.5238 64.8456 90.4412 64.6429C90.3159 64.3355 90.0692 64.1043 89.7205 64.236C89.364 64.3678 89.2994 64.9141 89.7192 65.0226Z" fill="#D6CEC3"/>
<path d="M63.8915 80.3469C63.9535 79.8742 64.2299 79.6017 63.7946 79.2091C63.6397 79.0696 63.4266 79.0696 63.2703 79.2091C62.8337 79.6017 63.1114 79.8755 63.1734 80.3469C63.2341 80.8067 63.8321 80.808 63.8915 80.3469Z" fill="#D6CEC3"/>
<path d="M65.7106 66.6298C65.7093 66.6789 65.7067 66.7266 65.7054 66.7757C65.6847 67.3569 66.6289 67.3582 66.6082 66.7757C66.6069 66.7266 66.6044 66.6789 66.6031 66.6298C66.5837 66.055 65.7312 66.0538 65.7106 66.6298Z" fill="#D6CEC3"/>
<path d="M90.5308 17.7461C91.4788 17.7461 91.4801 16.2725 90.5308 16.2725C89.5815 16.2738 89.5802 17.7461 90.5308 17.7461Z" fill="#D6CEC3"/>
<path d="M95.9966 15.9073C96.7858 15.9073 96.7871 14.6816 95.9966 14.6816C95.2075 14.6816 95.2062 15.9073 95.9966 15.9073Z" fill="#D6CEC3"/>
<path d="M91.7688 3.77416C91.752 3.84261 91.7352 3.91106 91.7171 3.97951C91.8178 3.87877 91.9186 3.77933 92.018 3.67859C91.9999 3.68505 91.9819 3.6915 91.9625 3.69796C91.6499 3.80903 91.402 4.13579 91.5169 4.48321C91.5789 4.67177 91.6357 4.81255 91.7339 4.98432C91.9031 5.28396 92.3616 5.28396 92.5308 4.98432C92.6276 4.81255 92.6845 4.67177 92.7478 4.48321C92.8614 4.13837 92.6134 3.80903 92.3022 3.69796C92.2841 3.6915 92.266 3.68505 92.2466 3.67859C92.3474 3.77933 92.4481 3.87877 92.5476 3.97951C92.5308 3.91106 92.514 3.84261 92.4959 3.77416C92.4081 3.41382 91.8592 3.41382 91.7688 3.77416Z" fill="#D6CEC3"/>
<path d="M101.435 13.0743C101.284 13.0097 101.134 12.9477 100.981 12.8883C100.748 12.7992 100.473 13.0743 100.562 13.3067C100.622 13.4604 100.684 13.6102 100.748 13.7626C101.083 14.5531 102.232 13.4114 101.435 13.0743Z" fill="#D6CEC3"/>
<path d="M88.5597 12.3396C88.5623 12.2905 88.5648 12.2427 88.5687 12.1937C88.6075 11.5259 87.4915 11.5246 87.5303 12.1937C87.5329 12.2427 87.5355 12.2905 87.5393 12.3396C87.5768 12.997 88.5222 12.9983 88.5597 12.3396Z" fill="#D6CEC3"/>
<path d="M78.3549 5.33381C78.3019 6.26242 79.7963 5.95762 79.5702 5.0303C79.4036 4.3445 78.4427 4.65317 78.5396 5.31444C78.5422 5.3351 78.546 5.35577 78.5486 5.37643C78.5667 5.23824 78.5848 5.10004 78.6029 4.96185C78.5783 5.01093 78.4285 5.13491 78.5551 5.05484C78.7217 5.0768 78.8883 5.09746 79.0549 5.11941C79.0394 5.10004 79.0226 5.08196 79.0071 5.06259C78.7785 4.79266 78.3717 5.03159 78.3549 5.33381Z" fill="#D6CEC3"/>
<path d="M97.2488 29.0469C97.0163 28.9629 96.8626 28.9849 96.6198 28.9177C96.3227 28.8351 96.0205 29.2613 96.2956 29.4744C96.5074 29.6384 96.6353 29.8166 96.86 29.9664C97.4412 30.3539 97.9695 29.3065 97.2488 29.0469Z" fill="#D6CEC3"/>
<path d="M112.77 33.065C112.708 32.9565 112.642 32.8687 112.562 32.7744C112.427 32.6156 112.117 32.6156 111.983 32.7744C111.903 32.8687 111.837 32.9565 111.775 33.065C111.166 34.1409 113.381 34.1409 112.77 33.065Z" fill="#D6CEC3"/>
<path d="M55.0255 28.7226C55.0009 28.6981 54.9764 28.6748 54.9518 28.6503C54.6935 28.3959 54.266 28.3946 54.0064 28.6503C53.9819 28.6748 53.9573 28.6981 53.9328 28.7226C53.4536 29.1953 53.8127 30.04 54.4791 30.04C55.1443 30.04 55.5034 29.1953 55.0255 28.7226Z" fill="#D6CEC3"/>
<path d="M49.226 24.3512C49.2751 24.3564 49.3229 24.3629 49.372 24.368C50.2012 24.4649 50.2024 22.9809 49.372 23.0778C49.3229 23.083 49.2751 23.0894 49.226 23.0946C48.4201 23.1889 48.4188 24.257 49.226 24.3512Z" fill="#D6CEC3"/>
<path d="M47.0606 36.1469C47.0386 36.0552 47.0166 35.9648 46.9947 35.8731C46.9017 35.4844 46.2998 35.4831 46.2068 35.8731C46.1849 35.9648 46.1629 36.0552 46.141 36.1469C45.9576 36.9154 47.2465 36.9205 47.0606 36.1469Z" fill="#D6CEC3"/>
<path d="M37.3609 51.2417C37.4177 51.2068 37.4745 51.172 37.5313 51.1371C38.6783 50.4332 37.118 48.8614 36.4102 50.0148C36.3754 50.0716 36.3405 50.1284 36.3056 50.1852C35.9027 50.8413 36.706 51.6447 37.3609 51.2417Z" fill="#D6CEC3"/>
<path d="M35.5079 67.0101C36.3745 67.0101 36.3758 65.6631 35.5079 65.6631C34.6412 65.6631 34.64 67.0101 35.5079 67.0101Z" fill="#D6CEC3"/>
<path d="M26.9743 63.8605C26.9679 63.814 26.9614 63.7662 26.9537 63.7197C26.8839 63.2341 26.0418 63.2341 25.9721 63.7197C25.9656 63.7662 25.9592 63.814 25.9514 63.8605C25.8313 64.7142 27.097 64.7206 26.9743 63.8605Z" fill="#D6CEC3"/>
<path d="M27.45 53.1047C27.4565 53.0582 27.4643 53.0117 27.4707 52.9652C27.6528 51.759 25.8433 51.7512 26.0267 52.9652C26.0332 53.0117 26.0409 53.0582 26.0474 53.1047C26.1546 53.7983 27.3454 53.7983 27.45 53.1047Z" fill="#D6CEC3"/>
<path d="M32.0904 58.457C32.0982 58.2503 32.0775 58.1018 32.0284 57.9016C31.9819 57.713 31.7946 57.4922 31.5906 57.4638C31.4718 57.4483 31.3762 57.4483 31.2574 57.4638C31.0533 57.4909 30.8673 57.7118 30.8195 57.9016C30.7691 58.1018 30.7498 58.2503 30.7575 58.457C30.7885 59.3132 32.0594 59.3158 32.0904 58.457Z" fill="#D6CEC3"/>
<path d="M23.5468 38.0314C23.4938 38.0753 23.4409 38.1205 23.3879 38.1645C22.56 38.858 23.8748 40.1741 24.5697 39.3462C24.6136 39.2933 24.6588 39.2403 24.7027 39.1873C25.3808 38.3788 24.3566 37.3534 23.5468 38.0314Z" fill="#D6CEC3"/>
<path d="M19.3218 48.811C19.3683 48.8045 19.4161 48.798 19.4626 48.7916C20.0063 48.7154 20.0063 47.7687 19.4626 47.6925C19.4161 47.686 19.3683 47.6796 19.3218 47.6731C18.3699 47.5388 18.3635 48.9453 19.3218 48.811Z" fill="#D6CEC3"/>
<path d="M20.7413 67.2624C21.0396 67.3153 21.2579 67.3269 21.5098 67.1435C21.8921 66.8659 21.8921 66.388 21.5098 66.1116C21.254 65.9269 21.0358 65.9411 20.7413 65.9928C20.1123 66.1039 20.1123 67.1513 20.7413 67.2624Z" fill="#D6CEC3"/>
<path d="M32.1088 71.7655C31.8376 71.8353 31.671 71.9463 31.5199 72.1801C31.4153 72.3428 31.4153 72.5908 31.5199 72.7535C31.6749 72.9925 31.8376 73.0984 32.1088 73.1681C33.279 73.4677 33.2854 71.4633 32.1088 71.7655Z" fill="#D6CEC3"/>
<path d="M26.1718 64.15C26.1228 64.1435 26.075 64.1371 26.0259 64.1306C25.0675 64.004 25.0662 65.7489 26.0259 65.6223C26.075 65.6159 26.1228 65.6094 26.1718 65.6029C27.1031 65.4802 27.1056 64.274 26.1718 64.15Z" fill="#D6CEC3"/>
<path d="M21.3492 57.4488C20.954 56.825 20.2927 56.8263 19.8988 57.4488C19.5539 57.9938 20.0047 58.7132 20.6246 58.7132C21.2433 58.7119 21.6928 57.9926 21.3492 57.4488Z" fill="#D6CEC3"/>
<path d="M37.5768 61.7243C37.5213 62.0381 37.4941 62.2719 37.6117 62.5741C37.9242 63.3749 38.9355 63.3762 39.2481 62.5741C39.3656 62.2719 39.3385 62.0369 39.2843 61.7243C39.1344 60.8784 37.7266 60.8784 37.5768 61.7243Z" fill="#D6CEC3"/>
<path d="M39.6785 71.7165C39.3505 71.7772 39.1942 71.9335 39.1335 72.2602C38.9979 72.9938 39.8542 73.6008 40.4367 73.0184C41.0205 72.4359 40.4134 71.5809 39.6785 71.7165Z" fill="#D6CEC3"/>
<path d="M29.6472 69.839C29.6226 69.5316 29.6084 69.3069 29.4663 69.0344C29.3178 68.7477 28.8567 68.7477 28.7082 69.0344C28.5661 69.3069 28.5519 69.5355 28.5274 69.839C28.4693 70.5597 29.704 70.561 29.6472 69.839Z" fill="#D6CEC3"/>
<path d="M32.0049 61.5704C31.8099 61.5808 31.6162 61.5911 31.4212 61.6001C30.5842 61.644 30.5829 62.8581 31.4212 62.902C31.6162 62.9123 31.8099 62.9227 32.0049 62.9317C32.8806 62.9769 32.8832 61.5239 32.0049 61.5704Z" fill="#D6CEC3"/>
<path d="M37.3198 24.6345C36.9646 24.7727 36.6766 24.9122 36.572 25.3113C36.714 25.1692 36.8574 25.0271 36.9995 24.8838C36.9401 24.9057 36.8819 24.9264 36.8225 24.9483C36.3072 25.1356 36.3059 25.8111 36.8225 25.9996C36.8819 26.0203 36.9401 26.0423 36.9995 26.0642C36.8574 25.9222 36.7153 25.7801 36.572 25.6367C36.6779 26.0371 36.9607 26.174 37.3198 26.3135C38.7108 26.8521 38.7211 24.0921 37.3198 24.6345Z" fill="#D6CEC3"/>
<path d="M28.0626 27.0067C28.0768 27.0184 28.091 27.03 28.1065 27.0416C27.7061 26.596 26.957 26.9577 26.957 27.5182C26.957 28.0787 27.7087 28.439 28.1065 27.9948C28.0923 28.0064 28.0781 28.018 28.0626 28.0296C28.5676 27.9043 28.5676 27.132 28.0626 27.0067Z" fill="#D6CEC3"/>
<path d="M37.956 34.0113C38.0025 34.0191 38.049 34.0268 38.0955 34.0346C38.4984 34.1004 38.8162 33.9325 38.9621 33.5425C39.0073 33.4224 39.0073 33.2881 38.9621 33.1679C38.8175 32.7818 38.5023 32.61 38.0955 32.6759C38.049 32.6836 38.0025 32.6914 37.956 32.6991C37.3063 32.8037 37.3063 33.9054 37.956 34.0113Z" fill="#D6CEC3"/>
<path d="M32.5951 30.7806C32.6351 30.7264 32.6739 30.6722 32.7139 30.6192C33.0898 30.1039 32.3407 29.3548 31.8253 29.7306C31.7711 29.7707 31.7168 29.8094 31.6639 29.8495C30.774 30.4978 31.9416 31.6757 32.5951 30.7806Z" fill="#D6CEC3"/>
<path d="M41.8412 21.535C42.1266 21.4756 42.2958 21.3477 42.4546 21.1114C42.5683 20.9435 42.5683 20.6684 42.4546 20.5005C42.2919 20.2577 42.1266 20.1363 41.8412 20.0769C40.6219 19.8199 40.6142 21.792 41.8412 21.535Z" fill="#D6CEC3"/>
<path d="M58.1184 25.8529C58.1119 25.8994 58.1042 25.9459 58.0977 25.9924C57.904 27.2723 59.8233 27.2813 59.6282 25.9924C59.6218 25.9459 59.614 25.8994 59.6076 25.8529C59.4952 25.1154 58.2295 25.1154 58.1184 25.8529Z" fill="#D6CEC3"/>
<path d="M57.2135 31.8012C57.1244 31.8309 57.0353 31.8593 56.9462 31.889C56.3649 32.0789 56.3637 32.8809 56.9462 33.0708C57.0353 33.1005 57.1244 33.1289 57.2135 33.1586C58.3436 33.528 58.3514 31.4293 57.2135 31.8012Z" fill="#D6CEC3"/>
<path d="M48.2047 35.4887C48.1969 35.5352 48.1892 35.5817 48.1827 35.6282C47.9825 36.8862 49.8876 36.8939 49.6861 35.6282C49.6784 35.5817 49.6719 35.5352 49.6642 35.4887C49.5479 34.7655 48.3183 34.7655 48.2047 35.4887Z" fill="#D6CEC3"/>
<path d="M89.0887 41.4039C89.0719 41.4427 89.0538 41.4814 89.0357 41.5189C88.7658 42.1117 89.077 42.8517 89.8003 42.8517C90.5236 42.8517 90.8349 42.1117 90.5649 41.5189C90.5468 41.4801 90.53 41.4414 90.512 41.4039C90.2679 40.8641 89.3341 40.8641 89.0887 41.4039Z" fill="#D6CEC3"/>
<path d="M87.2082 46.781C87.2044 46.8301 87.2018 46.8778 87.1992 46.9269C87.1295 48.0196 88.9687 48.0221 88.8976 46.9269C88.895 46.8778 88.8912 46.8301 88.8886 46.781C88.8188 45.7013 87.278 45.7 87.2082 46.781Z" fill="#D6CEC3"/>
<path d="M63.7244 58.5659C63.7696 58.5542 63.8161 58.5426 63.8613 58.531C64.5122 58.367 64.5122 57.3776 63.8613 57.2136C63.8161 57.202 63.7709 57.1904 63.7244 57.1788C62.5671 56.8882 62.5594 58.859 63.7244 58.5659Z" fill="#D6CEC3"/>
<path d="M78.5265 56.122C78.5304 56.0729 78.5343 56.0251 78.5382 55.976C78.6428 54.6948 76.442 54.6935 76.5466 55.976C76.5505 56.0251 76.5543 56.0729 76.5582 56.122C76.6615 57.3864 78.4232 57.389 78.5265 56.122Z" fill="#D6CEC3"/>
<path d="M99.7009 31.0801C99.5472 30.9871 99.4555 30.9548 99.2786 30.9483C99.143 30.9445 99.0177 31.0697 99.0216 31.2053C99.0267 31.3836 99.0603 31.4753 99.1533 31.6277C99.4943 32.1934 100.268 31.4236 99.7009 31.0801Z" fill="#D6CEC3"/>
<path d="M78.4821 56.3295C78.4511 56.274 78.4214 56.2185 78.3904 56.1629C78.2883 55.9756 77.9964 55.9756 77.8944 56.1629C77.8634 56.2185 77.8337 56.274 77.8027 56.3295C77.3985 57.0657 78.8876 57.0657 78.4821 56.3295Z" fill="#D6CEC3"/>
<path d="M84.0124 63.6066C83.9814 63.5859 83.9517 63.564 83.9207 63.5433C83.7722 63.4413 83.5191 63.4413 83.3705 63.5433C83.3395 63.564 83.3098 63.5859 83.2788 63.6066C82.708 64.0018 82.8888 64.9601 83.6456 64.9601C84.4038 64.9601 84.5859 64.0018 84.0124 63.6066Z" fill="white"/>
<path d="M86.9034 59.6926C86.8711 59.6383 86.8375 59.5841 86.8053 59.5299C86.5728 59.1424 86.0058 59.1424 85.7733 59.5299C85.741 59.5841 85.7074 59.6383 85.6751 59.6926C85.3962 60.1562 85.7552 60.7633 86.2899 60.7633C86.8233 60.7633 87.1824 60.1575 86.9034 59.6926Z" fill="white"/>
<path d="M87.0542 80.2089C87.8253 79.7672 88.0952 78.7262 87.1924 78.2341C86.659 77.9435 86.1514 78.3233 86.0843 78.8709C86.0675 79.0026 86.0481 79.1137 86.0571 79.2454C86.0597 79.3074 86.0714 79.3681 86.0907 79.4262C86.1204 79.5605 86.1308 79.5102 86.1217 79.2777C85.7653 79.8679 86.4705 80.5434 87.0542 80.2089Z" fill="white"/>
<path d="M67.6835 55.2574C68.7413 55.2574 68.7438 53.6133 67.6835 53.6133C66.6244 53.612 66.6231 55.2574 67.6835 55.2574Z" fill="white"/>
<path d="M74.0686 54.6565C74.1048 54.619 74.1409 54.5815 74.1758 54.5441C74.4108 54.2987 74.4121 53.9125 74.1758 53.6672C74.1396 53.6297 74.1035 53.5922 74.0686 53.5548C73.5946 53.0614 72.7383 53.4411 72.7383 54.1063C72.7383 54.7688 73.5959 55.1485 74.0686 54.6565Z" fill="white"/>
<path d="M67.5533 80.8904C66.7344 80.6605 66.201 81.8552 66.9643 82.2879C67.9291 82.8342 68.6356 81.1952 67.5533 80.8904Z" fill="white"/>
<path d="M80.6616 84.6176C80.6332 84.5608 80.6047 84.504 80.5763 84.4471C80.4058 84.1062 79.844 84.1062 79.6748 84.4471C79.6464 84.504 79.618 84.5608 79.5896 84.6176C79.0084 85.7851 81.2428 85.7851 80.6616 84.6176Z" fill="white"/>
<path d="M79.4829 74.6304C79.532 74.5426 79.5823 74.456 79.6314 74.3682C79.8523 73.9782 79.4106 73.5365 79.0205 73.7573C78.9327 73.8064 78.8462 73.8555 78.7583 73.9058C77.995 74.3359 79.0476 75.3975 79.4829 74.6304Z" fill="white"/>
<path d="M89.9706 72.6929C89.9408 72.6373 89.9111 72.5805 89.8814 72.525C89.6774 72.1401 89.0665 72.1401 88.8624 72.525C88.8327 72.5805 88.803 72.6373 88.7733 72.6929C88.5292 73.1514 88.8301 73.7364 89.3726 73.7364C89.9137 73.7364 90.2147 73.1514 89.9706 72.6929Z" fill="white"/>
<path d="M75.4916 61.9118C75.4063 61.8796 75.3224 61.8473 75.2371 61.8163C74.7696 61.6393 74.2232 62.1869 74.3989 62.6545C74.4312 62.7397 74.4635 62.8237 74.4945 62.9089C74.7037 63.463 75.3869 63.7277 75.848 63.2667C76.3104 62.8043 76.0456 62.1224 75.4916 61.9118Z" fill="white"/>
<path d="M25.2662 39.1588C25.3424 39.1381 25.4173 39.1136 25.491 39.0852C25.8655 38.9495 26.0437 38.6861 26.0877 38.3012C26.0928 38.2573 26.098 38.2134 26.1032 38.1707C26.2117 37.2176 24.8323 37.1853 24.5404 37.9589C24.4835 38.1088 24.4667 38.2508 24.4577 38.4097C24.53 38.2353 24.6011 38.0623 24.6734 37.8879C24.6398 37.915 24.6075 37.9422 24.5739 37.9693C24.0108 38.4303 24.6191 39.3525 25.2662 39.1588Z" fill="white"/>
<path d="M32.0432 40.5438C32.0238 40.5658 32.0045 40.5878 31.9838 40.6084C32.2563 40.5361 32.5301 40.4638 32.8027 40.3914C32.9874 40.4805 33.0016 40.4702 32.8453 40.3604C32.0923 39.7341 30.8317 40.5258 31.4116 41.4673C31.9593 42.3558 33.3632 42.3081 33.4252 41.116C33.4614 40.4276 32.5069 40.0311 32.0432 40.5438Z" fill="white"/>
<path d="M20.8392 55.3995C20.7578 55.2548 20.6635 55.1309 20.5537 55.0069C20.2748 54.693 19.6897 54.6956 19.4107 55.0069C19.1717 55.2742 19.062 55.5157 19.08 55.8761C19.1601 57.4556 21.5934 56.744 20.8392 55.3995Z" fill="white"/>
<path d="M28.8094 54.2472C27.9763 53.8249 27.0425 54.8788 27.7735 55.5904C28.6879 56.4828 29.902 54.8013 28.8094 54.2472Z" fill="white"/>
<path d="M33.9467 48.8053C34.5395 47.9942 33.6148 47.0591 32.7972 47.6558C31.7007 48.4579 33.1395 49.9096 33.9467 48.8053Z" fill="white"/>
<path d="M39.611 52.5391C40.7114 52.5391 40.714 50.8291 39.611 50.8291C38.5105 50.8291 38.5092 52.5391 39.611 52.5391Z" fill="white"/>
<path d="M38.4857 39.6293C40.0201 39.6293 40.0227 37.2451 38.4857 37.2451C36.9514 37.2464 36.9488 39.6293 38.4857 39.6293Z" fill="white"/>
<path d="M29.9216 36.503C29.959 36.4991 29.9952 36.4952 30.0314 36.4913C30.6681 36.4242 31.0879 35.6841 30.5777 35.174C30.0701 34.6664 29.3275 35.0823 29.2603 35.7203C29.2564 35.7565 29.2526 35.7939 29.2487 35.8301C29.2112 36.1672 29.5858 36.5391 29.9216 36.503Z" fill="white"/>
<path d="M64.0517 32.6839C65.103 32.6839 65.1056 31.0488 64.0517 31.0488C62.999 31.0488 62.9978 32.6839 64.0517 32.6839Z" fill="white"/>
<path d="M68.8936 46.3199C69.9256 46.3199 69.9281 44.7158 68.8936 44.7158C67.8616 44.7158 67.8603 46.3199 68.8936 46.3199Z" fill="white"/>
<path d="M76.3988 48.4473C76.364 48.5002 76.3291 48.5532 76.2942 48.6061C75.9287 49.1615 76.4118 49.9041 77.0395 49.9041C77.6672 49.9041 78.1502 49.1615 77.7847 48.6061C77.7498 48.5532 77.715 48.5002 77.6801 48.4473C77.3662 47.9694 76.7127 47.9694 76.3988 48.4473Z" fill="white"/>
<path d="M90.9143 57.1685C92.3067 57.1685 92.3092 55.0039 90.9143 55.0039C89.522 55.0052 89.5194 57.1685 90.9143 57.1685Z" fill="white"/>
<path d="M94.242 64.3991C94.2162 64.341 94.1904 64.2829 94.1633 64.2247C94.0289 63.9277 93.5123 63.9277 93.3793 64.2247C93.3535 64.2829 93.3276 64.341 93.3005 64.3991C92.8394 65.4272 94.7044 65.4272 94.242 64.3991Z" fill="white"/>
<path d="M104.174 82.3484C104.143 82.2928 104.113 82.2373 104.082 82.1818C104.006 82.0436 103.792 82.0436 103.717 82.1818C103.686 82.2373 103.656 82.2928 103.625 82.3484C103.298 82.9438 104.501 82.9438 104.174 82.3484Z" fill="white"/>
<path d="M102.075 63.0619C102.107 63.0205 102.139 62.9805 102.172 62.9392C102.3 62.7777 102.301 62.6098 102.172 62.4471C102.139 62.4058 102.107 62.3657 102.075 62.3244C101.78 61.9511 101.184 62.2792 101.184 62.6938C101.184 63.1084 101.782 63.4325 102.075 63.0619Z" fill="white"/>
<path d="M118.504 80.9495C118.571 80.4781 118.55 80.2236 118.229 79.853C118.012 79.6037 117.535 79.6037 117.319 79.853C117 80.2211 116.977 80.4716 117.044 80.9495C117.148 81.6727 118.402 81.6727 118.504 80.9495Z" fill="white"/>
<path d="M110.748 55.6897C110.718 55.8253 110.698 55.948 110.702 56.0875C110.708 56.3458 110.912 56.5511 111.17 56.5563C111.31 56.5602 111.431 56.5395 111.568 56.5085C112.066 56.4 112.202 55.7362 111.861 55.3952C111.522 55.0555 110.857 55.1924 110.748 55.6897Z" fill="white"/>
<path d="M107.977 70.5045C108.019 70.4722 108.06 70.4399 108.101 70.4076C108.229 70.3082 108.228 70.046 108.101 69.9478C108.06 69.9155 108.019 69.8833 107.977 69.851C107.678 69.6185 107.189 69.7412 107.189 70.1777C107.189 70.6117 107.676 70.7382 107.977 70.5045Z" fill="white"/>
<path d="M120.913 55.8733C120.86 55.9082 120.807 55.943 120.754 55.9779C120.345 56.2465 120.345 56.8071 120.754 57.0757C120.807 57.1106 120.86 57.1454 120.913 57.1803C121.401 57.5006 122.052 57.0783 122.052 56.5268C122.052 55.9766 121.401 55.553 120.913 55.8733Z" fill="white"/>
<path d="M83.4276 74.3055C84.4893 74.3055 84.4906 72.6562 83.4276 72.6562C82.3659 72.6562 82.3646 74.3055 83.4276 74.3055Z" fill="white"/>
<path d="M81.383 13.9421C81.5341 13.9098 81.6374 13.8698 81.7601 13.7755C82.0107 13.5831 82.1334 13.3441 82.0649 13.0251C82.0572 12.9864 82.0481 12.9476 82.0404 12.9089C81.9512 12.4879 81.3106 12.2915 81.0265 12.6415C80.9774 12.7022 80.6765 13.082 80.8082 12.9554C80.3639 13.3868 80.8289 14.0596 81.383 13.9421Z" fill="white"/>
<path d="M82.9859 7.28834C83.9403 7.28834 83.9416 5.80566 82.9859 5.80566C82.0314 5.80566 82.0301 7.28834 82.9859 7.28834Z" fill="white"/>
<path d="M91.3538 11.4706C92.5911 11.4706 92.5924 9.54883 91.3538 9.54883C90.1177 9.54754 90.1152 11.4706 91.3538 11.4706Z" fill="white"/>
<path d="M93.2523 16.3712C93.2885 16.3337 93.3246 16.2963 93.3595 16.2588C93.6101 15.998 93.6101 15.5885 93.3595 15.3277C93.3233 15.2902 93.2872 15.2527 93.2523 15.2153C92.7564 14.6974 91.8574 15.0965 91.8574 15.7939C91.8561 16.4887 92.7564 16.8865 93.2523 16.3712Z" fill="white"/>
<path d="M89.4691 21.9626C89.4937 21.9717 89.5169 21.9807 89.5414 21.9898C89.9095 22.1305 90.3151 21.7702 90.3061 21.4073C90.3048 21.3711 90.3048 21.3337 90.3035 21.2975C90.297 21.0276 90.0826 20.8119 89.8114 20.8054C89.7752 20.8041 89.7378 20.8041 89.7016 20.8028C89.3387 20.7951 88.9783 21.2006 89.1191 21.5674C89.1953 21.7637 89.2689 21.8864 89.4691 21.9626Z" fill="white"/>
<path d="M84.628 26.7057C84.5932 26.6527 84.5583 26.5998 84.5234 26.5468C84.309 26.2201 83.8621 26.2201 83.6477 26.5468C83.6129 26.5998 83.578 26.6527 83.5431 26.7057C83.2771 27.1099 83.6284 27.6511 84.0856 27.6511C84.5428 27.6511 84.8941 27.1112 84.628 26.7057Z" fill="white"/>
<path d="M94.7878 21.8019C94.7736 21.7322 94.7581 21.6637 94.7439 21.594C94.6341 21.0748 93.8023 21.0735 93.6926 21.594C93.6783 21.6637 93.6628 21.7322 93.6486 21.8019C93.4497 22.7538 94.9893 22.7589 94.7878 21.8019Z" fill="white"/>
<path d="M68.4557 8.78422C68.4867 8.83976 68.5164 8.89529 68.5474 8.95083C68.6908 9.21171 69.0976 9.21171 69.2397 8.95083C69.2707 8.89529 69.3004 8.83976 69.3314 8.78422C69.8532 7.83495 67.9352 7.83495 68.4557 8.78422Z" fill="white"/>
<path d="M60.766 19.9415C60.8112 19.9182 60.8551 19.8963 60.9003 19.873C61.6701 19.4791 60.589 18.3904 60.1925 19.1653C60.1693 19.2105 60.1473 19.2544 60.1241 19.2996C59.9071 19.7232 60.3424 20.1585 60.766 19.9415Z" fill="white"/>
<path d="M76.7824 25.4325C76.8018 25.364 76.8212 25.2968 76.8406 25.2284C77.1647 24.097 75.1576 24.0893 75.4831 25.2284C75.5025 25.2968 75.5219 25.364 75.5412 25.4325C75.7169 26.0446 76.6081 26.0446 76.7824 25.4325Z" fill="white"/>
<path d="M72.7817 15.4233C73.3564 15.7152 73.9957 14.9958 73.4972 14.496C72.8747 13.8735 72.0222 15.0385 72.7817 15.4233Z" fill="white"/>
<path d="M49.6626 69.022C49.7504 68.7675 49.7659 68.6913 49.7375 68.4266C49.7052 68.1231 49.4056 67.8945 49.1111 68.0675C48.8618 68.2135 48.7598 68.3323 48.5971 68.5725C48.145 69.239 49.3707 69.8653 49.6626 69.022Z" fill="white"/>
<path d="M11.1818 57.7931C11.0966 57.7608 11.0126 57.7285 10.9274 57.6975C10.5063 57.5387 10.0143 58.0307 10.1731 58.4518C10.2054 58.537 10.2377 58.621 10.2687 58.7062C10.4611 59.2138 11.0863 59.4566 11.5086 59.033C11.9322 58.6107 11.6894 57.9856 11.1818 57.7931Z" fill="white"/>
<path d="M14.5736 55.3763C14.0209 55.096 13.4061 55.787 13.8852 56.2675C14.4845 56.8667 15.3034 55.747 14.5736 55.3763Z" fill="white"/>
<path d="M7.14531 46.3877C7.16081 46.4562 7.17631 46.5259 7.1931 46.5944C7.35455 47.2969 8.45368 47.2982 8.61641 46.5944C8.63191 46.5259 8.64869 46.4562 8.66418 46.3877C8.95479 45.1194 6.85212 45.1117 7.14531 46.3877Z" fill="white"/>
</svg>
